<svg width="475" height="813" viewBox="0 0 475 813" fill="none" xmlns="http://www.w3.org/2000/svg">
<path style="mix-blend-mode:multiply" opacity="0.22" d="M5.90378 787.591L22.5376 796.949L441.482 548.218L435.915 215.937L419.71 206.819L382.243 193.53L381.694 0.00195312L71.8843 178.871L72.3628 347.724L0.342285 456.591L5.90378 787.591Z" fill="url(#paint0_linear_32_2870)"/>
<path d="M56.7746 812.114L41.1447 803.32L35.5974 473.203L51.2272 481.996L56.7746 812.114Z" fill="url(#paint1_linear_32_2870)"/>
<path d="M51.2272 481.996L35.5974 473.203L453.546 224.053L469.176 232.846L51.2272 481.996Z" fill="url(#paint2_linear_32_2870)"/>
<path d="M51.2273 481.996L56.7747 812.113L213.334 544.935L51.2273 481.996Z" fill="url(#paint3_linear_32_2870)"/>
<path d="M474.723 563.974L469.176 232.846L311.209 486.36L474.723 563.974Z" fill="url(#paint4_linear_32_2870)"/>
<path d="M311.209 486.36L262.949 563.974L213.334 544.936L56.7747 812.114L474.723 563.974L311.209 486.36Z" fill="url(#paint5_linear_32_2870)"/>
<path d="M261.346 157.639L212 233.813L51.2273 481.997L213.334 544.936L262.949 563.974L469.175 232.846L261.346 157.639Z" fill="url(#paint6_linear_32_2870)"/>
<path d="M214.409 542.135L55.7488 480.533L262.568 161.271L464.67 234.405L261.713 560.285L214.409 542.135Z" fill="url(#paint7_linear_32_2870)"/>
<path d="M54.3013 486.408L208.964 546.457L59.5952 801.367L54.3013 486.408Z" fill="url(#paint8_linear_32_2870)"/>
<path d="M315.534 485.092L466.346 243.059L471.643 559.19L315.534 485.092Z" fill="url(#paint9_linear_32_2870)"/>
<path d="M214.635 548.649L264.188 567.663L312.342 490.218L468.349 564.269L65.2417 803.598L214.635 548.649Z" fill="url(#paint10_linear_32_2870)"/>
<path d="M35.5974 473.203L51.2273 481.996L212.001 233.812L261.346 157.638L248.531 151.337L35.5974 473.203Z" fill="url(#paint11_linear_32_2870)"/>
<path d="M453.546 224.053L248.53 151.337L261.346 157.638L469.176 232.846L453.546 224.053Z" fill="url(#paint12_linear_32_2870)"/>
<path d="M284.697 325.629C284.71 330.106 281.553 335.576 277.656 337.825L276.172 338.682L279.418 336.808C282.349 335.116 284.728 336.472 284.738 339.83C284.728 336.472 287.092 332.378 290.023 330.685L291.784 329.668C287.88 331.922 284.71 330.106 284.697 325.629Z" fill="url(#paint13_linear_32_2870)"/>
<path d="M268.858 334.774C268.87 339.251 265.721 344.716 261.816 346.971L261.38 347.223L263.587 345.948C266.509 344.261 268.889 345.617 268.898 348.975C268.889 345.617 271.253 341.523 274.183 339.831L275.944 338.814C272.049 341.063 268.87 339.251 268.858 334.774Z" fill="url(#paint14_linear_32_2870)"/>
<path d="M253.027 343.915C253.04 348.391 249.883 353.86 245.987 356.11L247.748 355.094C250.678 353.402 253.058 354.757 253.067 358.115C253.058 354.757 255.422 350.663 258.353 348.971L260.114 347.954C256.209 350.208 253.04 348.392 253.027 343.915Z" fill="url(#paint15_linear_32_2870)"/>
<path d="M268.828 243.337C268.869 257.858 279.151 263.708 291.789 256.412C304.419 249.12 314.634 231.436 314.593 216.914C314.552 202.392 304.269 196.542 291.64 203.833C279.002 211.13 268.787 228.815 268.828 243.337Z" fill="url(#paint16_linear_32_2870)"/>
<path d="M252.685 310.117L271.557 299.221L262.047 278.653L252.685 310.117Z" fill="url(#paint17_linear_32_2870)"/>
<path d="M415.805 320.018L414.949 18.0508L107.137 195.766L108.013 504.839L264.188 567.662L415.805 320.018ZM237.307 395.437L231.785 398.626C230.006 399.653 228.331 400.1 226.868 400.03C226.146 399.996 225.483 399.821 224.878 399.542C224.669 399.446 224.469 399.339 224.276 399.215C223.765 398.887 223.314 398.462 222.928 397.946C222.793 397.765 222.665 397.574 222.547 397.371C221.852 396.178 221.448 394.62 221.443 392.722L221.412 381.846L221.397 376.4C221.395 375.98 221.431 375.549 221.501 375.112C221.57 374.676 221.673 374.234 221.806 373.793C222.471 371.586 223.886 369.399 225.607 368C225.951 367.72 226.308 367.471 226.673 367.26L228.438 366.242C228.431 366.245 228.425 366.248 228.418 366.252C228.181 366.388 227.947 366.51 227.716 366.616C227.714 366.617 227.713 366.617 227.711 366.618C225.338 367.706 223.31 367.244 222.219 365.573C222.186 365.524 222.161 365.466 222.13 365.414C222.057 365.291 221.983 365.17 221.919 365.035C221.905 365.005 221.895 364.97 221.882 364.939C221.809 364.775 221.739 364.607 221.68 364.427C221.624 364.255 221.58 364.069 221.538 363.882C221.528 363.837 221.513 363.797 221.504 363.751C221.458 363.52 221.423 363.277 221.398 363.026C221.397 363.019 221.396 363.014 221.395 363.007C221.37 362.749 221.357 362.479 221.356 362.199L221.337 355.517L221.318 348.816C218.404 348.172 215.646 347.195 213.067 345.899C210.487 344.603 208.086 342.988 205.886 341.066C204.368 339.741 202.952 338.261 201.632 336.648C201.201 336.121 200.781 335.579 200.372 335.023C199.128 333.329 197.982 331.506 196.952 329.539C196.136 327.981 195.395 326.332 194.722 324.607C194.343 323.637 193.987 322.643 193.655 321.622C193.319 320.587 193.007 319.527 192.72 318.44C192.456 317.443 192.214 316.424 191.993 315.384C191.713 314.064 191.462 312.715 191.251 311.326C191.135 310.554 191.029 309.771 190.934 308.978C190.654 306.633 190.473 304.196 190.393 301.671C190.392 301.619 190.389 301.568 190.387 301.516C190.362 300.674 190.348 299.823 190.345 298.962C190.293 280.493 195.537 260.388 204.437 241.492C205.806 238.585 207.261 235.707 208.798 232.868C213.406 224.349 218.739 216.182 224.636 208.646C235.447 194.828 248.151 183.131 261.754 175.277C273.5 168.496 284.595 165.344 294.394 165.454C295.941 165.471 297.456 165.57 298.936 165.748C300.91 165.986 302.821 166.366 304.665 166.885C305.586 167.144 306.491 167.438 307.378 167.766C308.265 168.095 309.134 168.457 309.985 168.853C310.41 169.051 310.831 169.258 311.247 169.472C312.079 169.902 312.892 170.366 313.686 170.862C314.479 171.359 315.253 171.889 316.006 172.451C317.513 173.576 318.939 174.831 320.277 176.214C321.949 177.943 323.484 179.871 324.871 181.991C325.981 183.687 326.995 185.506 327.909 187.445C328.137 187.93 328.359 188.422 328.575 188.922C329.006 189.921 329.411 190.95 329.791 192.008C332.255 198.887 333.604 207.003 333.63 216.237C333.643 220.812 333.331 225.487 332.719 230.218C332.474 232.111 332.181 234.013 331.842 235.921C331.503 237.829 331.117 239.744 330.687 241.662C329.892 245.208 328.937 248.766 327.845 252.318C327.683 252.845 327.519 253.372 327.351 253.898C326.813 255.583 326.249 257.267 325.648 258.947C324.963 260.862 324.238 262.772 323.475 264.675C323.094 265.626 322.702 266.576 322.302 267.523C321.1 270.364 319.814 273.186 318.448 275.978C313.441 286.217 307.368 296.062 300.496 305.053L300.529 316.489C300.532 317.608 300.337 318.789 299.983 319.966C299.777 320.649 299.512 321.329 299.207 321.996C299.031 322.378 298.841 322.755 298.637 323.126C298.488 323.395 298.333 323.66 298.17 323.92C298.053 324.107 297.934 324.292 297.811 324.473C296.618 326.233 295.122 327.742 293.488 328.685L293.778 328.518L295.258 327.663C295.674 327.423 296.078 327.251 296.467 327.131C297.784 326.725 298.917 326.987 299.655 327.812C299.812 327.987 299.946 328.194 300.066 328.419C300.165 328.605 300.255 328.801 300.326 329.019C300.433 329.348 300.505 329.715 300.541 330.114C300.558 330.299 300.568 330.49 300.569 330.69L300.615 347.012C300.616 347.421 300.599 347.835 300.565 348.254C300.497 349.091 300.36 349.944 300.162 350.803C300.062 351.232 299.948 351.662 299.818 352.092C299.559 352.951 299.242 353.809 298.873 354.654C298.244 356.094 297.458 357.49 296.563 358.793C294.834 361.311 292.68 363.468 290.332 364.824L284.818 368.007L268.978 377.152L263.455 380.341L253.147 386.292L247.134 389.764L237.307 395.437Z" fill="url(#paint18_linear_32_2870)"/>
<path d="M242.513 358.116L244.272 357.1C243.055 357.802 241.908 358.108 240.906 358.06C240.882 358.059 240.859 358.053 240.835 358.052C239.267 357.949 238.06 356.976 237.512 355.288C237.442 355.073 237.383 354.848 237.336 354.611C237.24 354.137 237.189 353.619 237.187 353.06C237.189 353.585 237.143 354.125 237.061 354.672C237.049 354.755 237.034 354.837 237.02 354.92C236.939 355.395 236.828 355.873 236.691 356.351C236.652 356.487 236.61 356.622 236.567 356.758C236.43 357.188 236.273 357.616 236.095 358.041C236.022 358.217 235.945 358.392 235.865 358.567C235.116 360.2 234.094 361.751 232.895 363.028C232.205 363.764 231.456 364.402 230.673 364.921C230.498 365.036 230.324 365.153 230.146 365.255L229.9 365.398L229.809 365.45L231.908 364.239C232.405 363.951 232.885 363.758 233.342 363.642C233.562 363.586 233.778 363.543 233.985 363.524C234.616 363.468 235.185 363.584 235.663 363.855C236.144 364.129 236.534 364.561 236.804 365.134C237.074 365.706 237.225 366.42 237.228 367.26C237.227 366.877 237.265 366.483 237.323 366.086C237.392 365.612 237.493 365.133 237.637 364.653C237.77 364.211 237.933 363.771 238.123 363.337C238.534 362.397 239.077 361.498 239.701 360.685C240.517 359.624 241.475 358.715 242.513 358.116Z" fill="url(#paint19_linear_32_2870)"/>
<path d="M232.276 290.771C244.914 283.475 255.13 265.79 255.089 251.268C255.048 236.747 244.765 230.896 232.127 238.193C219.49 245.489 209.283 263.169 209.323 277.691C209.365 292.213 219.639 298.068 232.276 290.771Z" fill="url(#paint20_linear_32_2870)"/>
<path d="M263.455 380.342L268.978 377.152L284.818 368.008L290.332 364.824C292.68 363.468 294.834 361.311 296.563 358.793C297.458 357.49 298.244 356.095 298.873 354.655C299.242 353.81 299.559 352.952 299.818 352.092C299.948 351.662 300.062 351.232 300.162 350.803C300.36 349.945 300.497 349.091 300.565 348.254C300.599 347.836 300.616 347.421 300.615 347.012L300.569 330.69C300.568 330.491 300.558 330.3 300.541 330.115C300.505 329.715 300.433 329.349 300.326 329.019C300.255 328.801 300.165 328.605 300.066 328.419C299.946 328.194 299.812 327.987 299.655 327.812C298.917 326.987 297.784 326.726 296.467 327.131C296.078 327.251 295.674 327.423 295.258 327.664L293.778 328.518L293.488 328.685L291.785 329.668L290.023 330.686C287.092 332.378 284.728 336.472 284.738 339.83C284.728 336.472 282.349 335.116 279.418 336.809L276.172 338.682L275.945 338.814L274.183 339.831C271.253 341.523 268.889 345.617 268.898 348.975C268.889 345.617 266.51 344.261 263.587 345.948L261.381 347.223L260.114 347.954L258.353 348.971C255.422 350.663 253.058 354.757 253.067 358.115C253.058 354.757 250.678 353.402 247.748 355.094L245.987 356.11L245.986 356.111L244.275 357.099C244.275 357.099 244.274 357.099 244.274 357.099L242.513 358.116C241.475 358.715 240.517 359.624 239.701 360.685C239.077 361.498 238.534 362.397 238.123 363.337C237.933 363.771 237.77 364.211 237.637 364.653C237.492 365.133 237.392 365.612 237.323 366.086C237.265 366.483 237.227 366.877 237.228 367.26C237.225 366.42 237.075 365.707 236.804 365.134C236.534 364.561 236.144 364.129 235.663 363.855C235.185 363.584 234.616 363.468 233.986 363.524C233.778 363.543 233.563 363.586 233.343 363.642C232.886 363.758 232.406 363.951 231.908 364.239L229.809 365.45L229.732 365.495L228.444 366.239C228.442 366.24 228.44 366.241 228.438 366.242L226.673 367.261C226.308 367.472 225.951 367.72 225.607 368C223.886 369.4 222.471 371.587 221.806 373.793C221.673 374.234 221.57 374.676 221.501 375.113C221.431 375.549 221.395 375.98 221.397 376.4L221.412 381.846L221.443 392.723C221.448 394.621 221.852 396.179 222.547 397.371C222.665 397.574 222.793 397.765 222.928 397.946C223.314 398.462 223.765 398.888 224.276 399.216C224.469 399.339 224.669 399.447 224.878 399.542C225.483 399.821 226.146 399.996 226.868 400.031C228.331 400.101 230.006 399.653 231.785 398.626L237.307 395.437L247.134 389.764L253.147 386.292L263.455 380.342Z" fill="url(#paint21_linear_32_2870)"/>
<path d="M228.444 366.238L229.732 365.494L229.9 365.397L230.146 365.255C230.324 365.153 230.498 365.036 230.673 364.92C231.456 364.402 232.205 363.764 232.895 363.028C234.094 361.752 235.116 360.2 235.865 358.566C235.945 358.392 236.022 358.217 236.095 358.04C236.273 357.616 236.431 357.188 236.567 356.758C236.611 356.622 236.652 356.487 236.691 356.351C236.828 355.872 236.939 355.394 237.02 354.92C237.035 354.837 237.049 354.754 237.061 354.672C237.143 354.125 237.189 353.585 237.187 353.059C237.189 353.619 237.24 354.137 237.336 354.611C237.383 354.847 237.442 355.073 237.512 355.287C238.06 356.975 239.267 357.949 240.835 358.051C240.86 358.053 240.882 358.059 240.906 358.06C241.908 358.108 243.055 357.802 244.272 357.1C244.273 357.099 244.273 357.099 244.274 357.099L245.986 356.11C245.986 356.11 245.986 356.11 245.987 356.11C249.882 353.86 253.04 348.391 253.027 343.914C253.04 348.391 256.209 350.207 260.113 347.954L261.381 347.222L261.817 346.97C265.722 344.716 268.871 339.251 268.858 334.774C268.871 339.251 272.049 341.063 275.945 338.814L276.172 338.682L277.656 337.825C281.553 335.576 284.71 330.106 284.697 325.629C284.71 330.106 287.88 331.923 291.785 329.669L293.487 328.685C295.121 327.742 296.618 326.233 297.811 324.474C297.934 324.292 298.053 324.108 298.17 323.921C298.332 323.66 298.488 323.395 298.636 323.126C298.841 322.755 299.031 322.379 299.206 321.996C299.512 321.329 299.777 320.649 299.983 319.966C300.337 318.789 300.532 317.609 300.528 316.489L300.496 305.053C307.368 296.062 313.441 286.217 318.448 275.978C319.814 273.186 321.1 270.364 322.302 267.523C322.702 266.576 323.093 265.626 323.475 264.675C324.238 262.772 324.963 260.862 325.648 258.947C326.248 257.268 326.813 255.583 327.351 253.898C327.519 253.372 327.683 252.845 327.845 252.319C328.936 248.766 329.892 245.208 330.687 241.662C331.118 239.744 331.503 237.829 331.842 235.921C332.181 234.013 332.474 232.111 332.719 230.218C333.331 225.487 333.643 220.812 333.63 216.237C333.604 207.003 332.255 198.887 329.79 192.008C329.411 190.95 329.006 189.921 328.575 188.922C328.359 188.422 328.137 187.93 327.909 187.445C326.995 185.506 325.981 183.687 324.871 181.991C323.484 179.871 321.949 177.943 320.277 176.214C318.939 174.831 317.513 173.576 316.006 172.451C315.253 171.889 314.479 171.359 313.685 170.862C312.892 170.366 312.079 169.903 311.247 169.473C310.831 169.258 310.41 169.051 309.985 168.853C309.134 168.457 308.265 168.095 307.378 167.767C306.491 167.438 305.586 167.144 304.664 166.885C302.821 166.367 300.91 165.987 298.936 165.748C297.456 165.57 295.941 165.471 294.394 165.454C284.595 165.344 273.5 168.496 261.754 175.277C248.151 183.131 235.446 194.829 224.636 208.646C218.739 216.182 213.406 224.35 208.798 232.868C207.261 235.707 205.806 238.585 204.436 241.492C195.537 260.388 190.293 280.493 190.345 298.962C190.348 299.823 190.362 300.674 190.387 301.516C190.389 301.568 190.392 301.619 190.393 301.671C190.473 304.196 190.654 306.633 190.934 308.978C191.029 309.771 191.134 310.554 191.251 311.326C191.462 312.715 191.713 314.064 191.993 315.384C192.214 316.424 192.456 317.443 192.719 318.44C193.007 319.527 193.319 320.587 193.655 321.622C193.987 322.643 194.343 323.637 194.722 324.607C195.395 326.332 196.136 327.981 196.952 329.539C197.982 331.506 199.128 333.329 200.372 335.023C200.781 335.58 201.201 336.121 201.632 336.648C202.952 338.261 204.368 339.741 205.886 341.067C208.086 342.988 210.487 344.603 213.067 345.899C215.646 347.195 218.404 348.172 221.318 348.817L221.337 355.518L221.356 362.199C221.357 362.479 221.37 362.749 221.395 363.008C221.396 363.014 221.397 363.019 221.398 363.026C221.423 363.278 221.458 363.52 221.504 363.751C221.513 363.797 221.528 363.837 221.538 363.882C221.58 364.07 221.624 364.255 221.68 364.427C221.739 364.608 221.809 364.775 221.882 364.939C221.895 364.97 221.905 365.005 221.919 365.035C221.983 365.17 222.057 365.291 222.13 365.414C222.161 365.466 222.186 365.524 222.219 365.573C223.31 367.244 225.338 367.706 227.711 366.618C227.713 366.617 227.714 366.617 227.716 366.616C227.946 366.51 228.181 366.388 228.418 366.252C228.424 366.248 228.431 366.245 228.438 366.241C228.44 366.24 228.442 366.24 228.444 366.238ZM252.685 310.117L262.047 278.653L271.557 299.221L252.685 310.117ZM291.64 203.833C304.269 196.542 314.552 202.392 314.593 216.914C314.634 231.435 304.419 249.12 291.789 256.411C279.152 263.708 268.869 257.858 268.828 243.336C268.787 228.815 279.002 211.13 291.64 203.833ZM209.323 277.691C209.283 263.169 219.49 245.489 232.127 238.193C244.765 230.896 255.048 236.747 255.089 251.268C255.13 265.79 244.914 283.475 232.277 290.771C219.639 298.068 209.365 292.213 209.323 277.691Z" fill="url(#paint22_linear_32_2870)"/>
<mask id="mask0_32_2870" style="mask-type:luminance" maskUnits="userSpaceOnUse" x="107" y="18" width="309" height="550">
<path d="M415.805 320.018L414.949 18.0508L107.137 195.766L108.013 504.839L264.188 567.662L415.805 320.018ZM237.307 395.437L231.785 398.626C230.006 399.653 228.331 400.1 226.868 400.03C226.146 399.996 225.483 399.821 224.878 399.542C224.669 399.446 224.469 399.339 224.276 399.215C223.765 398.887 223.314 398.462 222.928 397.946C222.793 397.765 222.665 397.574 222.547 397.371C221.852 396.178 221.448 394.62 221.443 392.722L221.412 381.846L221.397 376.4C221.395 375.98 221.431 375.549 221.501 375.112C221.57 374.676 221.673 374.234 221.806 373.793C222.471 371.586 223.886 369.399 225.607 368C225.951 367.72 226.308 367.471 226.673 367.26L228.438 366.242C228.431 366.245 228.425 366.248 228.418 366.252C228.181 366.388 227.947 366.51 227.716 366.616C227.714 366.617 227.713 366.617 227.711 366.618C225.338 367.706 223.31 367.244 222.219 365.573C222.186 365.524 222.161 365.466 222.13 365.414C222.057 365.291 221.983 365.17 221.919 365.035C221.905 365.005 221.895 364.97 221.882 364.939C221.809 364.775 221.739 364.607 221.68 364.427C221.624 364.255 221.58 364.069 221.538 363.882C221.528 363.837 221.513 363.797 221.504 363.751C221.458 363.52 221.423 363.277 221.398 363.026C221.397 363.019 221.396 363.014 221.395 363.007C221.37 362.749 221.357 362.479 221.356 362.199L221.337 355.517L221.318 348.816C218.404 348.172 215.646 347.195 213.067 345.899C210.487 344.603 208.086 342.988 205.886 341.066C204.368 339.741 202.952 338.261 201.632 336.648C201.201 336.121 200.781 335.579 200.372 335.023C199.128 333.329 197.982 331.506 196.952 329.539C196.136 327.981 195.395 326.332 194.722 324.607C194.343 323.637 193.987 322.643 193.655 321.622C193.319 320.587 193.007 319.527 192.72 318.44C192.456 317.443 192.214 316.424 191.993 315.384C191.713 314.064 191.462 312.715 191.251 311.326C191.135 310.554 191.029 309.771 190.934 308.978C190.654 306.633 190.473 304.196 190.393 301.671C190.392 301.619 190.389 301.568 190.387 301.516C190.362 300.674 190.348 299.823 190.345 298.962C190.293 280.493 195.537 260.388 204.437 241.492C205.806 238.585 207.261 235.707 208.798 232.868C213.406 224.349 218.739 216.182 224.636 208.646C235.447 194.828 248.151 183.131 261.754 175.277C273.5 168.496 284.595 165.344 294.394 165.454C295.941 165.471 297.456 165.57 298.936 165.748C300.91 165.986 302.821 166.366 304.665 166.885C305.586 167.144 306.491 167.438 307.378 167.766C308.265 168.095 309.134 168.457 309.985 168.853C310.41 169.051 310.831 169.258 311.247 169.472C312.079 169.902 312.892 170.366 313.686 170.862C314.479 171.359 315.253 171.889 316.006 172.451C317.513 173.576 318.939 174.831 320.277 176.214C321.949 177.943 323.484 179.871 324.871 181.991C325.981 183.687 326.995 185.506 327.909 187.445C328.137 187.93 328.359 188.422 328.575 188.922C329.006 189.921 329.411 190.95 329.791 192.008C332.255 198.887 333.604 207.003 333.63 216.237C333.643 220.812 333.331 225.487 332.719 230.218C332.474 232.111 332.181 234.013 331.842 235.921C331.503 237.829 331.117 239.744 330.687 241.662C329.892 245.208 328.937 248.766 327.845 252.318C327.683 252.845 327.519 253.372 327.351 253.898C326.813 255.583 326.249 257.267 325.648 258.947C324.963 260.862 324.238 262.772 323.475 264.675C323.094 265.626 322.702 266.576 322.302 267.523C321.1 270.364 319.814 273.186 318.448 275.978C313.441 286.217 307.368 296.062 300.496 305.053L300.529 316.489C300.532 317.608 300.337 318.789 299.983 319.966C299.777 320.649 299.512 321.329 299.207 321.996C299.031 322.378 298.841 322.755 298.637 323.126C298.488 323.395 298.333 323.66 298.17 323.92C298.053 324.107 297.934 324.292 297.811 324.473C296.618 326.233 295.122 327.742 293.488 328.685L293.778 328.518L295.258 327.663C295.674 327.423 296.078 327.251 296.467 327.131C297.784 326.725 298.917 326.987 299.655 327.812C299.812 327.987 299.946 328.194 300.066 328.419C300.165 328.605 300.255 328.801 300.326 329.019C300.433 329.348 300.505 329.715 300.541 330.114C300.558 330.299 300.568 330.49 300.569 330.69L300.615 347.012C300.616 347.421 300.599 347.835 300.565 348.254C300.497 349.091 300.36 349.944 300.162 350.803C300.062 351.232 299.948 351.662 299.818 352.092C299.559 352.951 299.242 353.809 298.873 354.654C298.244 356.094 297.458 357.49 296.563 358.793C294.834 361.311 292.68 363.468 290.332 364.824L284.818 368.007L268.978 377.152L263.455 380.341L253.147 386.292L247.134 389.764L237.307 395.437Z" fill="white"/>
</mask>
<g mask="url(#mask0_32_2870)">
<path d="M371.994 344.92C374.985 343.193 377.403 339.006 377.393 335.559C377.383 332.122 374.95 330.735 371.959 332.462L257.399 398.603L142.84 464.744C139.849 466.471 137.431 470.658 137.441 474.095C137.451 477.542 139.884 478.929 142.875 477.202L257.435 411.061L371.994 344.92Z" fill="#C0C0C0"/>
<path d="M371.994 390.5C374.985 388.774 377.403 384.586 377.393 381.139C377.383 377.702 374.95 376.316 371.959 378.043L257.399 444.184L142.84 510.325C139.849 512.052 137.431 516.238 137.441 519.675C137.451 523.122 139.884 524.509 142.875 522.783L257.435 456.641L371.994 390.5Z" fill="#C0C0C0"/>
<path d="M371.994 436.081C374.985 434.354 377.403 430.167 377.393 426.72C377.383 423.283 374.95 421.896 371.959 423.623L257.399 489.764L142.84 555.905C139.849 557.632 137.431 561.819 137.441 565.256C137.451 568.703 139.884 570.09 142.875 568.363L257.435 502.222L371.994 436.081Z" fill="#C0C0C0"/>
<path d="M371.994 481.661C374.985 479.935 377.403 475.747 377.393 472.3C377.383 468.864 374.95 467.477 371.959 469.204L257.399 535.345L142.84 601.486C139.849 603.213 137.431 607.4 137.441 610.837C137.451 614.283 139.884 615.67 142.875 613.944L257.435 547.802L371.994 481.661Z" fill="#C0C0C0"/>
</g>
<defs>
<linearGradient id="paint0_linear_32_2870" x1="0.342285" y1="398.476" x2="441.482" y2="398.476" gradientUnits="userSpaceOnUse">
<stop stop-color="#727094"/>
<stop offset="0.2377" stop-color="#9D9ACB"/>
<stop offset="0.7902" stop-color="#9D9ACB"/>
<stop offset="1" stop-color="#727094"/>
</linearGradient>
<linearGradient id="paint1_linear_32_2870" x1="35.5974" y1="642.658" x2="56.7746" y2="642.658" gradientUnits="userSpaceOnUse">
<stop stop-color="#DEE0E5"/>
<stop offset="1" stop-color="#9FA4C6"/>
</linearGradient>
<linearGradient id="paint2_linear_32_2870" x1="449.227" y1="207.864" x2="60.7463" y2="494.35" gradientUnits="userSpaceOnUse">
<stop stop-color="#DEE0E5"/>
<stop offset="1" stop-color="#9FA4C6"/>
</linearGradient>
<linearGradient id="paint3_linear_32_2870" x1="9.2157" y1="504.012" x2="121.898" y2="660.279" gradientUnits="userSpaceOnUse">
<stop stop-color="#F7F8FC"/>
<stop offset="1" stop-color="#B8BCDF"/>
</linearGradient>
<linearGradient id="paint4_linear_32_2870" x1="379.212" y1="312.345" x2="431.878" y2="539.012" gradientUnits="userSpaceOnUse">
<stop stop-color="#F7F8FC"/>
<stop offset="0.2257" stop-color="#F0F1F8"/>
<stop offset="0.5481" stop-color="#DDDFF0"/>
<stop offset="0.9269" stop-color="#BEC2E2"/>
<stop offset="1" stop-color="#B8BCDF"/>
</linearGradient>
<linearGradient id="paint5_linear_32_2870" x1="273.653" y1="782.455" x2="246.654" y2="459.972" gradientUnits="userSpaceOnUse">
<stop stop-color="#F7F8FC"/>
<stop offset="0.3624" stop-color="#DADCEE"/>
<stop offset="0.7595" stop-color="#C1C4E3"/>
<stop offset="1" stop-color="#B8BCDF"/>
</linearGradient>
<linearGradient id="paint6_linear_32_2870" x1="258.726" y1="222.803" x2="262.726" y2="587.804" gradientUnits="userSpaceOnUse">
<stop stop-color="#F3F5FB"/>
<stop offset="0.2188" stop-color="#ECEEF7"/>
<stop offset="0.5314" stop-color="#D9DCEF"/>
<stop offset="0.8986" stop-color="#BABFE0"/>
<stop offset="1" stop-color="#B1B6DC"/>
</linearGradient>
<linearGradient id="paint7_linear_32_2870" x1="258.76" y1="225.271" x2="262.688" y2="583.671" gradientUnits="userSpaceOnUse">
<stop stop-color="#F3F5FB"/>
<stop offset="0.2188" stop-color="#ECEEF7"/>
<stop offset="0.5314" stop-color="#D9DCEF"/>
<stop offset="0.8986" stop-color="#BABFE0"/>
<stop offset="1" stop-color="#B1B6DC"/>
</linearGradient>
<linearGradient id="paint8_linear_32_2870" x1="14.2194" y1="507.413" x2="121.728" y2="656.505" gradientUnits="userSpaceOnUse">
<stop stop-color="#F3F5FB"/>
<stop offset="1" stop-color="#B1B6DC"/>
</linearGradient>
<linearGradient id="paint9_linear_32_2870" x1="380.457" y1="318.958" x2="430.738" y2="535.359" gradientUnits="userSpaceOnUse">
<stop stop-color="#F3F5FB"/>
<stop offset="0.2188" stop-color="#ECEEF7"/>
<stop offset="0.5314" stop-color="#D9DCEF"/>
<stop offset="0.8986" stop-color="#BABFE0"/>
<stop offset="1" stop-color="#B1B6DC"/>
</linearGradient>
<linearGradient id="paint10_linear_32_2870" x1="274.422" y1="775.029" x2="248.466" y2="465.001" gradientUnits="userSpaceOnUse">
<stop stop-color="#F3F5FB"/>
<stop offset="0.3838" stop-color="#D3D6EC"/>
<stop offset="0.7677" stop-color="#BABEE0"/>
<stop offset="1" stop-color="#B1B6DC"/>
</linearGradient>
<linearGradient id="paint11_linear_32_2870" x1="51.8542" y1="219.02" x2="297.233" y2="463.848" gradientUnits="userSpaceOnUse">
<stop stop-color="#DEE0E5"/>
<stop offset="1" stop-color="#9FA4C6"/>
</linearGradient>
<linearGradient id="paint12_linear_32_2870" x1="362.931" y1="164.707" x2="344.498" y2="288.476" gradientUnits="userSpaceOnUse">
<stop stop-color="#DEE0E5"/>
<stop offset="1" stop-color="#9FA4C6"/>
</linearGradient>
<linearGradient id="paint13_linear_32_2870" x1="283.978" y1="597.248" x2="283.978" y2="110.937" gradientUnits="userSpaceOnUse">
<stop stop-color="white"/>
<stop offset="1" stop-color="#D5D6DB"/>
</linearGradient>
<linearGradient id="paint14_linear_32_2870" x1="268.662" y1="597.245" x2="268.662" y2="110.939" gradientUnits="userSpaceOnUse">
<stop stop-color="white"/>
<stop offset="1" stop-color="#D5D6DB"/>
</linearGradient>
<linearGradient id="paint15_linear_32_2870" x1="253.05" y1="597.247" x2="253.05" y2="110.939" gradientUnits="userSpaceOnUse">
<stop stop-color="white"/>
<stop offset="1" stop-color="#D5D6DB"/>
</linearGradient>
<linearGradient id="paint16_linear_32_2870" x1="291.71" y1="597.247" x2="291.71" y2="110.939" gradientUnits="userSpaceOnUse">
<stop stop-color="white"/>
<stop offset="1" stop-color="#D5D6DB"/>
</linearGradient>
<linearGradient id="paint17_linear_32_2870" x1="262.121" y1="597.247" x2="262.121" y2="110.938" gradientUnits="userSpaceOnUse">
<stop stop-color="white"/>
<stop offset="1" stop-color="#D5D6DB"/>
</linearGradient>
<linearGradient id="paint18_linear_32_2870" x1="261.471" y1="3.27668" x2="261.471" y2="407.87" gradientUnits="userSpaceOnUse">
<stop stop-color="white"/>
<stop offset="0.6813" stop-color="#DDDEE2"/>
<stop offset="0.8356" stop-color="#D5D6DB"/>
<stop offset="1" stop-color="#DFE3F3"/>
</linearGradient>
<linearGradient id="paint19_linear_32_2870" x1="237.04" y1="597.248" x2="237.04" y2="110.939" gradientUnits="userSpaceOnUse">
<stop stop-color="white"/>
<stop offset="1" stop-color="#D5D6DB"/>
</linearGradient>
<linearGradient id="paint20_linear_32_2870" x1="232.206" y1="597.247" x2="232.206" y2="110.938" gradientUnits="userSpaceOnUse">
<stop stop-color="white"/>
<stop offset="1" stop-color="#D5D6DB"/>
</linearGradient>
<linearGradient id="paint21_linear_32_2870" x1="261.006" y1="267.264" x2="261.006" y2="427.819" gradientUnits="userSpaceOnUse">
<stop stop-color="#EF3F6C"/>
<stop offset="1" stop-color="#9C2947"/>
</linearGradient>
<linearGradient id="paint22_linear_32_2870" x1="261.987" y1="267.264" x2="261.987" y2="427.819" gradientUnits="userSpaceOnUse">
<stop stop-color="#EF3F6C"/>
<stop offset="1" stop-color="#9C2947"/>
</linearGradient>
</defs>
</svg>
