<svg width="486" height="581" viewBox="0 0 486 581" fill="none" xmlns="http://www.w3.org/2000/svg">
<path style="mix-blend-mode:multiply" opacity="0.22" d="M62.6589 536.969L87.1217 551.186L87.1324 551.169C103.687 560.793 122.671 565.671 143.585 565.671C173.564 565.671 205.846 555.81 239.533 536.361C357.14 468.46 452.509 303.273 452.126 168.13C451.942 102.881 429.723 54.1274 389.551 30.7856L389.555 30.7787C366.461 17.3598 337.717 0.660645 302.016 0.660645C262.689 0.660645 219.059 20.7485 168.633 62.0727C136.28 88.5746 105.516 123.094 79.6676 161.898C78.1236 164.214 76.5434 166.628 74.9703 169.076C74.9703 169.076 74.3805 169.972 74.2564 170.166L73.8824 170.767C72.2428 173.337 70.5885 175.985 68.9644 178.636L67.9753 180.27C47.6452 213.749 30.7935 250.315 19.2408 286.018C6.43316 325.606 -0.0110606 363.829 0.0885394 399.625C0.274039 464.853 22.4948 513.629 62.6589 536.969Z" fill="url(#paint0_linear_32_2868)"/>
<path d="M59.8936 422.497C59.9255 421.138 59.9643 419.778 60.0146 418.414C60.0403 417.72 60.069 417.025 60.0993 416.33C60.1584 414.985 60.2276 413.638 60.3041 412.289C60.3409 411.644 60.3745 410.999 60.4153 410.354C60.5234 408.637 60.6462 406.917 60.7831 405.194C60.8033 404.936 60.819 404.679 60.8401 404.421C61.0018 402.443 61.1852 400.46 61.3837 398.473C61.4422 397.887 61.5087 397.3 61.5706 396.713C61.7203 395.291 61.877 393.867 62.0454 392.441C62.1284 391.739 62.2148 391.036 62.3023 390.334C62.4433 389.2 62.5939 388.065 62.7465 386.929C62.9298 385.564 63.122 384.196 63.3221 382.828C63.4648 381.853 63.6086 380.877 63.7596 379.901C63.9753 378.507 64.2031 377.111 64.4355 375.714C64.5932 374.767 64.7483 373.821 64.9136 372.873C65.1704 371.4 65.4436 369.925 65.7191 368.45C65.8819 367.578 66.0379 366.708 66.2071 365.835C66.5425 364.107 66.8979 362.377 67.2581 360.646C67.3883 360.02 67.5087 359.395 67.6422 358.769C67.7816 358.116 67.9326 357.461 68.0757 356.807C68.3974 355.335 68.7203 353.862 69.0601 352.388C69.2493 351.566 69.4504 350.743 69.6453 349.921C69.9552 348.613 70.2651 347.304 70.5889 345.996C70.8082 345.109 71.037 344.223 71.2627 343.336C71.5798 342.089 71.8983 340.843 72.2277 339.596C72.4704 338.677 72.7205 337.759 72.9696 336.841C73.3127 335.577 73.6587 334.313 74.0141 333.048C74.2218 332.31 74.4316 331.573 74.6435 330.835C75.0379 329.461 75.4408 328.087 75.8499 326.713C76.0553 326.022 76.2589 325.331 76.4682 324.64C76.9749 322.968 77.4937 321.296 78.0215 319.625C78.1383 319.256 78.25 318.886 78.3679 318.516C79.0181 316.476 79.6857 314.436 80.3672 312.398C80.528 311.918 80.6939 311.438 80.8562 310.958C81.3769 309.417 81.9057 307.878 82.4442 306.339C82.666 305.705 82.8894 305.071 83.1144 304.437C83.6524 302.92 84.1996 301.405 84.7545 299.89C84.9389 299.386 85.1199 298.882 85.3064 298.379C86.0256 296.436 86.7585 294.495 87.505 292.556C88.5912 289.735 89.7125 286.92 90.8555 284.109C91.1482 283.39 91.4463 282.671 91.7427 281.952C92.7087 279.61 93.6932 277.271 94.6975 274.937C94.9432 274.366 95.1833 273.794 95.4314 273.224C96.6203 270.49 97.8362 267.763 99.0768 265.044C99.3641 264.414 99.6589 263.786 99.9491 263.157C100.965 260.954 101.998 258.757 103.047 256.564C103.393 255.843 103.737 255.12 104.086 254.399C105.393 251.701 106.719 249.01 108.075 246.331C108.219 246.047 108.368 245.766 108.512 245.482C109.743 243.061 110.998 240.65 112.269 238.245C112.663 237.501 113.059 236.757 113.457 236.013C114.703 233.683 115.966 231.361 117.249 229.048C117.46 228.667 117.667 228.283 117.879 227.902C119.354 225.259 120.856 222.632 122.377 220.014C122.764 219.348 123.156 218.685 123.546 218.021C124.862 215.78 126.194 213.548 127.543 211.328C127.873 210.784 128.199 210.237 128.531 209.694C130.144 207.06 131.781 204.442 133.44 201.839C133.799 201.275 134.164 200.716 134.525 200.153C136.07 197.75 137.633 195.36 139.215 192.985C139.537 192.502 139.856 192.015 140.18 191.532C141.974 188.858 143.795 186.205 145.637 183.571C146.031 183.007 146.429 182.447 146.825 181.885C148.887 178.961 150.967 176.054 153.085 173.183C153.127 173.126 153.17 173.07 153.212 173.013C155.306 170.175 157.434 167.372 159.581 164.589C160.054 163.976 160.523 163.36 160.998 162.75C161.665 161.894 162.337 161.045 163.008 160.195C163.776 159.222 164.545 158.25 165.319 157.284C166.001 156.434 166.687 155.59 167.374 154.746C168.148 153.793 168.925 152.842 169.705 151.897C170.4 151.056 171.098 150.221 171.796 149.387C172.582 148.449 173.369 147.513 174.161 146.583C174.864 145.756 175.571 144.934 176.279 144.113C177.002 143.275 177.729 142.44 178.457 141.608C179.638 140.259 180.827 138.921 182.021 137.589C182.594 136.95 183.164 136.306 183.74 135.671C185.343 133.903 186.956 132.15 188.58 130.414C188.74 130.243 188.898 130.068 189.058 129.897C190.842 127.997 192.641 126.12 194.45 124.26C195.001 123.693 195.558 123.135 196.112 122.572C197.386 121.276 198.664 119.988 199.95 118.713C200.821 117.849 201.695 116.99 202.571 116.136C203.134 115.587 203.696 115.037 204.261 114.493C205.356 113.437 206.458 112.393 207.562 111.352C208.01 110.929 208.456 110.501 208.906 110.081C210.458 108.631 212.017 107.196 213.584 105.777C213.837 105.548 214.092 105.325 214.346 105.097C215.662 103.912 216.982 102.736 218.308 101.574C218.852 101.098 219.399 100.629 219.944 100.156C220.993 99.2478 222.043 98.3433 223.098 97.4492C223.709 96.9312 224.322 96.4182 224.935 95.9054C225.945 95.06 226.957 94.2213 227.973 93.3893C228.594 92.8809 229.215 92.3729 229.838 91.8696C230.89 91.0189 231.947 90.1784 233.005 89.3423C233.579 88.8883 234.152 88.4307 234.729 87.9813C236.015 86.9775 237.306 85.9886 238.6 85.0071C238.946 84.7447 239.289 84.4761 239.636 84.2157C241.275 82.9821 242.921 81.7675 244.572 80.5703C245.02 80.2457 245.47 79.9309 245.918 79.6089C247.129 78.7401 248.342 77.8768 249.559 77.0279C250.167 76.6039 250.777 76.1876 251.387 75.7688C252.457 75.0326 253.53 74.302 254.605 73.5817C255.255 73.1457 255.907 72.7135 256.56 72.2834C257.622 71.5829 258.687 70.8913 259.754 70.2062C260.392 69.7964 261.03 69.3855 261.67 68.9813C262.821 68.2538 263.976 67.5402 265.132 66.8312C265.68 66.4948 266.227 66.1525 266.777 65.8202C268.479 64.7912 270.185 63.7782 271.897 62.7896C273.543 61.8394 275.182 60.9222 276.819 60.0201C277.246 59.7851 277.671 59.5524 278.097 59.3208C279.567 58.5207 281.033 57.7364 282.495 56.9748C282.673 56.8823 282.852 56.7853 283.03 56.6931C284.642 55.858 286.248 55.0522 287.85 54.2636C288.264 54.0602 288.677 53.8604 289.09 53.6601C290.456 52.9971 291.819 52.3497 293.178 51.7203C293.456 51.5917 293.735 51.4581 294.012 51.3308C295.596 50.6046 297.174 49.904 298.748 49.2235C299.131 49.0576 299.514 48.8969 299.897 48.7338C301.319 48.1273 302.739 47.5349 304.154 46.9658C304.318 46.8998 304.483 46.8305 304.647 46.7648C306.207 46.141 307.762 45.5453 309.311 44.9667C309.623 44.8504 309.935 44.7341 310.246 44.6195C311.775 44.0566 313.299 43.513 314.817 42.994C315.06 42.9113 315.301 42.8323 315.543 42.7506C317.015 42.2535 318.482 41.775 319.943 41.3192C320.089 41.2735 320.236 41.2253 320.382 41.1801C321.906 40.7086 323.422 40.2649 324.933 39.8381C325.235 39.7526 325.538 39.667 325.839 39.5836C326.874 39.2973 327.901 39.0333 328.929 38.7678C329.617 38.5898 330.307 38.4052 330.992 38.2367C331.995 37.9902 332.992 37.7653 333.989 37.5388C334.62 37.3952 335.254 37.2422 335.883 37.1068C337.009 36.8639 338.128 36.6456 339.247 36.4284C339.737 36.3334 340.232 36.226 340.72 36.1357C342.325 35.8393 343.921 35.5676 345.508 35.3234C345.615 35.307 345.72 35.2949 345.827 35.2785C347.232 35.0656 348.629 34.8748 350.02 34.7028C350.508 34.6424 350.992 34.5923 351.478 34.5369C352.495 34.4213 353.508 34.3135 354.517 34.2195C355.059 34.1691 355.599 34.1234 356.139 34.0793C357.115 33.9997 358.086 33.9314 359.054 33.8723C359.568 33.841 360.083 33.8073 360.595 33.7819C361.866 33.7182 363.131 33.6697 364.388 33.6417C364.531 33.6386 364.676 33.6309 364.819 33.6281C366.225 33.6011 367.621 33.6016 369.009 33.6188C369.41 33.6237 369.809 33.6361 370.209 33.6448C371.226 33.6669 372.239 33.7002 373.247 33.7462C381.296 34.1127 388.857 35.1961 396.377 37.0801C397.495 37.3608 398.606 37.6556 399.708 37.9697C399.84 38.0074 399.974 38.041 400.106 38.0793C401.323 38.4314 402.528 38.8094 403.725 39.2023C404.043 39.3068 404.359 39.4154 404.676 39.5227C405.646 39.8512 406.608 40.193 407.563 40.5481C407.823 40.6449 408.086 40.7376 408.345 40.8362C409.508 41.2797 410.662 41.7432 411.804 42.2265C412.064 42.3361 412.32 42.452 412.579 42.5637C413.503 42.9637 414.421 43.3769 415.331 43.8032C415.638 43.9467 415.944 44.089 416.249 44.2354C417.374 44.7757 418.49 45.3298 419.592 45.9099C419.67 45.9507 419.745 45.9944 419.823 46.0355C420.995 46.6564 422.157 47.2966 423.303 47.9629C371.402 17.8081 315.048 -12.2337 203.517 79.1662C169.266 107.223 139.197 142.072 114.75 178.772C113.168 181.145 111.607 183.533 110.063 185.935C109.829 186.299 109.586 186.656 109.352 187.022C109.224 187.221 109.102 187.425 108.975 187.624C107.317 190.227 105.681 192.844 104.068 195.478C103.736 196.02 103.41 196.566 103.08 197.109C63.9112 261.609 35.1309 341.097 35.3395 415.942C35.5298 483.026 59.2141 530.227 97.4115 552.425L121.875 566.641C83.6775 544.444 59.9932 497.242 59.8029 430.159C59.7975 428.224 59.8169 426.281 59.8505 424.335C59.861 423.723 59.8793 423.109 59.8936 422.497Z" fill="url(#paint1_linear_32_2868)"/>
<path d="M271.897 62.7894C389.418 -5.06151 484.994 49.4124 485.377 184.453C485.76 319.486 390.804 483.963 273.283 551.814C155.762 619.665 60.1857 565.192 59.8029 430.159C59.42 295.118 154.376 130.64 271.897 62.7894Z" fill="url(#paint2_linear_32_2868)"/>
<path d="M177.806 576.318C144.484 576.318 116.336 563.24 96.4054 538.499C75.6523 512.739 64.6161 475.27 64.488 430.145C64.1092 296.815 158.204 133.84 274.239 66.8463C307.063 47.8956 338.398 38.2866 367.373 38.2866C400.695 38.2866 428.842 51.3651 448.774 76.1066C469.527 101.869 480.564 139.34 480.692 184.467C481.071 317.793 386.977 480.764 270.941 547.758C238.117 566.709 206.782 576.318 177.806 576.318Z" fill="url(#paint3_linear_32_2868)"/>
<path d="M273.301 86.212C265.12 90.9355 258.514 102.376 258.541 111.778C258.568 121.168 265.216 124.956 273.398 120.233C281.569 115.515 288.175 104.074 288.148 94.6844C288.122 85.2828 281.473 81.4943 273.301 86.212Z" fill="url(#paint4_linear_32_2868)"/>
<path d="M184.085 199.373C186.597 197.923 189.14 195.718 191.465 192.828C198.537 184.042 200.929 172.235 196.82 166.464C194.064 162.585 189.078 162.409 183.963 165.362C181.451 166.813 178.908 169.017 176.583 171.908C169.511 180.694 167.119 192.501 171.228 198.272C173.984 202.151 178.969 202.327 184.085 199.373Z" fill="url(#paint5_linear_32_2868)"/>
<path d="M131.629 296.467C135.702 285.96 133.241 276.967 126.152 276.357C123.814 276.154 121.265 276.888 118.752 278.339C113.638 281.292 108.674 287.215 105.95 294.249C101.887 304.749 104.338 313.749 111.437 314.353C113.772 314.553 116.319 313.819 118.83 312.37C123.941 309.419 128.905 303.5 131.629 296.467Z" fill="url(#paint6_linear_32_2868)"/>
<path d="M80.3258 420.46C80.3532 429.849 87.0016 433.638 95.1727 428.92C103.354 424.196 109.959 412.755 109.933 403.366C109.906 393.976 103.258 390.187 95.0762 394.911C86.9052 399.628 80.2999 411.069 80.3258 420.458V420.46Z" fill="url(#paint7_linear_32_2868)"/>
<path d="M106.58 516.717C109.338 520.59 114.322 520.77 119.44 517.815C121.949 516.366 124.491 514.163 126.818 511.273C133.88 502.493 136.282 490.68 132.163 484.914C129.408 481.036 124.426 480.857 119.313 483.809C116.804 485.259 114.262 487.463 111.936 490.353C104.864 499.139 102.472 510.946 106.58 516.717Z" fill="url(#paint8_linear_32_2868)"/>
<path d="M177.675 557.232C180.01 557.433 182.556 556.699 185.068 555.248C190.183 552.295 195.152 546.371 197.877 539.328C201.94 528.84 199.489 519.829 192.39 519.224C190.058 519.024 187.513 519.758 185.004 521.207C179.886 524.162 174.914 530.09 172.188 537.128C168.125 547.617 170.577 556.628 177.675 557.232Z" fill="url(#paint9_linear_32_2868)"/>
<path d="M289.313 505.6C289.287 496.199 282.638 492.41 274.466 497.128C266.285 501.851 259.679 513.293 259.706 522.694C259.733 532.084 266.381 535.872 274.562 531.149C282.734 526.431 289.34 514.99 289.313 505.6Z" fill="url(#paint10_linear_32_2868)"/>
<path d="M363.897 452.001C366.408 450.551 368.952 448.346 371.281 445.453C378.343 436.673 380.745 424.86 376.626 419.095C373.87 415.222 368.885 415.042 363.767 417.998C361.258 419.446 358.716 421.649 356.389 424.539C349.327 433.32 346.925 445.132 351.044 450.898C353.8 454.776 358.781 454.955 363.897 452.001Z" fill="url(#paint11_linear_32_2868)"/>
<path d="M421.712 341.015C424.044 341.216 426.589 340.482 429.098 339.033C434.216 336.078 439.188 330.15 441.914 323.112C445.977 312.623 443.526 303.613 436.427 303.008C434.093 302.808 431.546 303.541 429.034 304.992C423.919 307.946 418.95 313.869 416.225 320.911C412.162 331.4 414.613 340.411 421.712 341.015Z" fill="url(#paint12_linear_32_2868)"/>
<path d="M452.778 222.456C460.959 217.733 467.564 206.292 467.538 196.903V196.901C467.511 187.512 460.863 183.724 452.682 188.447C444.51 193.165 437.905 204.605 437.931 213.996C437.958 223.385 444.606 227.174 452.778 222.456Z" fill="url(#paint13_linear_32_2868)"/>
<path d="M428.546 133.555C431.058 132.105 433.602 129.899 435.928 127.008C443 118.222 445.392 106.427 441.283 100.644C438.528 96.7733 433.543 96.5938 428.428 99.5474C425.916 100.998 423.372 103.205 421.046 106.1C413.974 114.886 411.582 126.681 415.691 132.464C418.446 136.334 423.431 136.508 428.546 133.555Z" fill="url(#paint14_linear_32_2868)"/>
<path d="M362.862 96.156C367.977 93.2028 372.941 87.2813 375.666 80.2389C379.739 69.7441 377.277 60.7391 370.189 60.1292C367.851 59.9303 365.304 60.6646 362.791 62.1153C357.676 65.0689 352.712 70.9902 349.987 78.0324C345.914 88.5272 348.376 97.5322 355.464 98.1421C357.802 98.341 360.349 97.6065 362.862 96.156Z" fill="url(#paint15_linear_32_2868)"/>
<path d="M225.619 471.405C206.602 471.406 179.415 465.063 157.893 434.844C134.77 402.377 122.941 348.906 122.734 275.918L122.721 271.441L126.656 269.307C127.003 269.122 128.14 268.504 130.094 267.376C143.935 259.386 214.752 216.144 249.881 149.32L253.941 141.595L260.965 146.777C268.026 151.985 277.432 154.626 288.925 154.627H288.932C322.756 154.627 363.914 132.381 375.724 125.562C377.974 124.263 379.097 123.563 379.108 123.557L390.531 116.436L390.58 129.889C391.236 361.196 275.088 453.965 261.842 463.782L261.099 464.332L260.245 464.686C255.362 466.706 242.213 471.405 225.619 471.405Z" fill="url(#paint16_linear_32_2868)"/>
<path d="M400.038 176.73C400.706 176.443 401.368 176.157 402.023 175.87C402.226 175.781 402.43 175.692 402.631 175.603C403.423 175.254 404.205 174.906 404.976 174.557C405.109 174.497 405.239 174.438 405.371 174.378C406.035 174.077 406.689 173.776 407.337 173.477C407.535 173.386 407.732 173.294 407.928 173.203C408.679 172.854 409.421 172.506 410.148 172.16C410.181 172.144 410.212 172.129 410.245 172.114C410.942 171.782 411.625 171.453 412.299 171.125C412.49 171.033 412.679 170.941 412.869 170.848C413.503 170.539 414.128 170.231 414.74 169.927C414.8 169.898 414.861 169.868 414.921 169.838C415.593 169.504 416.247 169.175 416.891 168.849C417.053 168.766 417.213 168.685 417.374 168.603C417.908 168.331 418.433 168.063 418.946 167.798C419.056 167.741 419.169 167.683 419.277 167.627C419.876 167.317 420.457 167.013 421.025 166.715C421.164 166.642 421.298 166.571 421.434 166.499C421.898 166.254 422.351 166.013 422.792 165.777C422.911 165.714 423.031 165.65 423.148 165.587C423.675 165.304 424.187 165.028 424.68 164.759C424.778 164.706 424.871 164.655 424.967 164.602C425.38 164.377 425.779 164.158 426.166 163.944C426.277 163.883 426.388 163.821 426.497 163.761C426.947 163.511 427.383 163.269 427.797 163.037C427.844 163.01 427.887 162.985 427.934 162.959C428.304 162.751 428.656 162.552 428.995 162.359C429.093 162.303 429.19 162.248 429.286 162.193C429.647 161.987 429.996 161.787 430.318 161.602C432.646 160.257 433.867 159.498 433.932 159.459L383.086 129.91C383.021 129.95 381.8 130.709 379.472 132.053C379.15 132.239 378.801 132.439 378.44 132.645C378.344 132.699 378.247 132.755 378.149 132.811C377.81 133.003 377.458 133.202 377.088 133.411C377.041 133.437 376.998 133.462 376.95 133.488C376.536 133.721 376.098 133.965 375.646 134.215C375.541 134.274 375.432 134.334 375.324 134.393C374.936 134.607 374.535 134.828 374.121 135.054C374.025 135.106 373.932 135.157 373.834 135.21C373.341 135.479 372.829 135.756 372.301 136.039C372.186 136.101 372.067 136.164 371.951 136.226C371.505 136.465 371.047 136.708 370.578 136.955C370.447 137.025 370.317 137.093 370.184 137.164C369.615 137.463 369.031 137.768 368.431 138.079C368.324 138.134 368.212 138.191 368.104 138.247C367.588 138.513 367.061 138.783 366.524 139.057C366.365 139.138 366.206 139.218 366.046 139.3C365.402 139.626 364.747 139.955 364.075 140.29C364.016 140.319 363.954 140.349 363.895 140.379C363.282 140.683 362.655 140.991 362.021 141.301C361.833 141.392 361.645 141.484 361.456 141.575C360.781 141.903 360.096 142.233 359.397 142.566C359.365 142.581 359.334 142.596 359.302 142.611C358.575 142.957 357.832 143.305 357.081 143.655C356.887 143.745 356.691 143.836 356.495 143.926C355.838 144.23 355.173 144.536 354.499 144.841C354.378 144.896 354.26 144.95 354.139 145.005C353.362 145.356 352.573 145.707 351.776 146.059C351.582 146.144 351.386 146.23 351.191 146.315C350.527 146.606 349.856 146.897 349.178 147.187C348.998 147.265 348.819 147.342 348.638 147.419C347.819 147.768 346.99 148.116 346.152 148.463C345.984 148.533 345.814 148.602 345.645 148.671C344.873 148.989 344.093 149.306 343.307 149.62C343.127 149.692 342.949 149.764 342.768 149.836C341.87 150.193 340.963 150.547 340.049 150.898C339.858 150.972 339.666 151.044 339.474 151.117C338.67 151.423 337.86 151.727 337.045 152.027C336.872 152.091 336.701 152.155 336.528 152.219C335.596 152.559 334.657 152.895 333.713 153.226C333.504 153.299 333.293 153.372 333.083 153.445C332.233 153.74 331.379 154.031 330.52 154.317C330.376 154.365 330.233 154.414 330.089 154.462C329.128 154.78 328.161 155.09 327.19 155.395C326.964 155.466 326.738 155.535 326.512 155.605C325.617 155.883 324.719 156.155 323.817 156.42C323.706 156.453 323.596 156.486 323.486 156.519C322.504 156.805 321.517 157.082 320.528 157.352C320.311 157.411 320.094 157.469 319.877 157.528C318.716 157.84 317.552 158.142 316.385 158.429C316.225 158.468 316.065 158.505 315.906 158.544C314.683 158.84 313.458 159.126 312.232 159.391C312.203 159.397 312.174 159.403 312.145 159.409C310.93 159.671 309.714 159.914 308.498 160.143C308.354 160.171 308.21 160.199 308.066 160.226C306.89 160.444 305.714 160.641 304.539 160.825C304.309 160.861 304.078 160.898 303.848 160.932C303.16 161.036 302.473 161.132 301.787 161.223C301.608 161.247 301.428 161.274 301.25 161.296C300.39 161.406 299.533 161.505 298.677 161.594C298.46 161.616 298.244 161.634 298.028 161.655C297.383 161.718 296.739 161.776 296.097 161.827C295.811 161.849 295.527 161.87 295.242 161.889C294.638 161.932 294.036 161.968 293.435 161.998C293.157 162.012 292.878 162.029 292.601 162.04C292.219 162.056 291.838 162.067 291.458 162.078C291.105 162.088 290.752 162.1 290.4 162.106C290.018 162.113 289.638 162.113 289.258 162.115C288.91 162.116 288.562 162.119 288.216 162.116C287.833 162.113 287.452 162.102 287.071 162.094C286.73 162.086 286.388 162.08 286.049 162.068C285.667 162.054 285.288 162.033 284.908 162.014C284.592 161.998 284.275 161.984 283.96 161.964C282.896 161.896 281.841 161.801 280.794 161.686C280.594 161.665 280.394 161.642 280.195 161.618C279.156 161.495 278.126 161.35 277.106 161.178C276.923 161.147 276.741 161.112 276.558 161.079C275.776 160.94 275.001 160.785 274.231 160.615C274.055 160.577 273.878 160.541 273.703 160.501C272.822 160.297 271.951 160.072 271.088 159.827C270.882 159.768 270.678 159.705 270.473 159.644C269.846 159.458 269.224 159.259 268.608 159.05C268.397 158.978 268.185 158.908 267.975 158.834C267.192 158.556 266.417 158.262 265.653 157.945C265.542 157.899 265.433 157.847 265.323 157.8C264.703 157.537 264.09 157.26 263.483 156.97C263.26 156.864 263.039 156.753 262.818 156.643C262.301 156.385 261.788 156.116 261.281 155.837C260.974 155.669 260.664 155.507 260.361 155.331C260.361 155.331 260.359 155.33 260.358 155.33L311.204 184.878C311.375 184.977 311.545 185.075 311.717 185.171C311.851 185.247 311.992 185.312 312.127 185.386C312.634 185.665 313.146 185.933 313.664 186.191C313.885 186.302 314.106 186.412 314.329 186.519C314.935 186.808 315.546 187.084 316.165 187.347C316.257 187.386 316.346 187.432 316.439 187.47C316.459 187.479 316.48 187.485 316.5 187.494C317.263 187.811 318.038 188.104 318.819 188.382C319.031 188.457 319.244 188.527 319.457 188.599C320.071 188.808 320.691 189.006 321.316 189.192C321.451 189.232 321.583 189.281 321.719 189.32C321.791 189.341 321.865 189.356 321.936 189.376C322.798 189.621 323.669 189.846 324.549 190.049C324.724 190.09 324.901 190.125 325.077 190.164C325.847 190.334 326.623 190.488 327.405 190.628C327.528 190.65 327.648 190.679 327.771 190.701C327.831 190.711 327.893 190.717 327.952 190.727C328.972 190.899 330.002 191.044 331.041 191.167C331.241 191.191 331.44 191.213 331.64 191.235C332.687 191.349 333.741 191.444 334.804 191.512C334.851 191.515 334.896 191.521 334.943 191.524C335.215 191.541 335.49 191.549 335.764 191.563C336.14 191.582 336.515 191.603 336.892 191.616C337.235 191.629 337.579 191.635 337.923 191.642C338.302 191.651 338.681 191.661 339.062 191.664C339.408 191.667 339.756 191.664 340.104 191.663C340.484 191.662 340.864 191.661 341.246 191.654C341.598 191.648 341.951 191.637 342.304 191.626C342.684 191.615 343.065 191.605 343.447 191.589C343.547 191.584 343.646 191.583 343.745 191.579C343.923 191.571 344.103 191.556 344.281 191.547C344.881 191.516 345.482 191.48 346.085 191.438C346.372 191.418 346.659 191.397 346.946 191.375C347.585 191.325 348.224 191.267 348.865 191.205C349.085 191.183 349.305 191.165 349.526 191.142C350.38 191.053 351.235 190.955 352.093 190.845C352.276 190.822 352.46 190.795 352.643 190.77C353.326 190.68 354.009 190.584 354.693 190.481C354.809 190.464 354.924 190.45 355.039 190.432C355.154 190.415 355.27 190.391 355.385 190.373C356.56 190.19 357.736 189.992 358.912 189.775C359.056 189.748 359.2 189.719 359.343 189.692C360.56 189.463 361.777 189.22 362.993 188.957C363.021 188.951 363.049 188.946 363.077 188.94C364.303 188.674 365.528 188.389 366.75 188.093C366.911 188.054 367.071 188.016 367.232 187.977C368.397 187.69 369.559 187.389 370.719 187.077C370.826 187.048 370.935 187.023 371.042 186.994C371.155 186.963 371.267 186.93 371.379 186.899C372.365 186.63 373.348 186.354 374.327 186.069C374.445 186.034 374.561 185.999 374.678 185.964C375.572 185.701 376.463 185.431 377.35 185.156C377.581 185.085 377.811 185.014 378.041 184.942C379.009 184.638 379.973 184.328 380.931 184.012C381.08 183.962 381.229 183.911 381.379 183.861C382.23 183.578 383.076 183.289 383.918 182.997C384.135 182.922 384.351 182.848 384.566 182.772C385.507 182.442 386.441 182.108 387.369 181.769C387.547 181.704 387.724 181.637 387.902 181.572C388.71 181.274 389.512 180.974 390.308 180.67C390.507 180.595 390.705 180.52 390.902 180.444C391.812 180.095 392.714 179.743 393.607 179.388C393.795 179.313 393.98 179.238 394.167 179.163C394.944 178.852 395.713 178.54 396.477 178.226C396.593 178.178 396.713 178.131 396.828 178.083C396.889 178.058 396.947 178.033 397.007 178.008C397.839 177.663 398.663 177.317 399.478 176.97C399.666 176.89 399.851 176.81 400.038 176.73Z" fill="url(#paint17_linear_32_2868)"/>
<path d="M339.098 186.98C338.748 186.976 338.392 186.968 338.036 186.96C338.036 186.96 337.327 186.944 337.055 186.935C336.784 186.925 335.27 186.851 335.27 186.851C335.205 186.845 335.142 186.84 335.079 186.836C334.156 186.777 333.191 186.693 332.154 186.578L331.596 186.515C330.607 186.398 329.645 186.262 328.731 186.107L328.538 186.078C328.425 186.054 328.326 186.034 328.224 186.016C327.511 185.888 326.798 185.747 326.089 185.59L325.624 185.489C324.819 185.303 324.015 185.096 323.214 184.869L323.008 184.815C322.852 184.764 322.752 184.732 322.651 184.702C322.085 184.533 321.523 184.354 320.964 184.164L320.393 183.969C319.643 183.703 318.979 183.449 318.365 183.196L318.204 183.129C318.157 183.106 318.079 183.07 318 183.037C317.44 182.799 316.891 182.551 316.348 182.291C316.161 182.203 315.985 182.114 315.807 182.025C315.29 181.767 314.832 181.527 314.378 181.277C314.274 181.22 314.169 181.166 314.065 181.113L313.557 180.827L289.418 166.799H289.506C289.834 166.798 290.161 166.796 290.49 166.79C290.768 166.785 291.592 166.761 291.592 166.761C292 166.749 292.4 166.737 292.803 166.72C293.017 166.712 293.681 166.676 293.681 166.676C294.301 166.645 294.934 166.607 295.568 166.564L296.471 166.497C297.134 166.445 297.808 166.384 298.484 166.318L299.168 166.252C300.051 166.161 300.945 166.058 301.838 165.944L302.38 165.871C303.118 165.772 303.831 165.672 304.545 165.565L305.274 165.452C306.479 165.264 307.699 165.058 308.918 164.832L309.378 164.745C310.622 164.51 311.878 164.26 313.134 163.989L313.237 163.967C314.487 163.696 315.748 163.402 317.009 163.097L317.509 162.976C318.702 162.683 319.9 162.373 321.095 162.051L321.767 161.87C322.776 161.594 323.788 161.311 324.797 161.017L325.152 160.91C326.062 160.643 326.981 160.365 327.897 160.081L328.584 159.868C329.589 159.551 330.577 159.235 331.559 158.91L331.993 158.764C332.879 158.469 333.753 158.172 334.621 157.87L335.253 157.651C336.228 157.309 337.186 156.966 338.136 156.619L338.658 156.425C339.495 156.117 340.322 155.807 341.142 155.494L341.731 155.271C342.657 154.916 343.581 154.554 344.498 154.19L345.05 153.968C345.848 153.649 346.641 153.327 347.426 153.004L347.941 152.793C348.801 152.437 349.642 152.083 350.476 151.728L351.027 151.492C351.712 151.199 352.395 150.902 353.071 150.607L353.665 150.346C354.475 149.989 355.279 149.631 356.07 149.274L356.421 149.113C357.118 148.797 357.797 148.487 358.465 148.176L359.064 147.899C359.821 147.547 360.576 147.193 361.315 146.842L364.075 145.511C364.717 145.198 366.197 144.466 366.197 144.466C366.843 144.145 367.509 143.81 368.165 143.477L370.582 142.24C371.195 141.923 372.765 141.098 372.765 141.098C373.242 140.847 374.526 140.161 374.526 140.161C375.052 139.88 376.357 139.171 376.357 139.171L377.909 138.318L379.5 137.429L381.818 136.108C382.298 135.831 382.733 135.577 383.122 135.35L424.601 159.455L422.448 160.641C421.954 160.91 420.583 161.646 420.583 161.646C420.147 161.88 418.865 162.558 418.865 162.558C418.284 162.864 416.917 163.573 416.917 163.573L414.777 164.669C414.142 164.99 413.499 165.314 412.837 165.642C412.837 165.642 411.439 166.334 410.815 166.638L410.261 166.908C409.59 167.233 408.919 167.557 408.235 167.882L408.151 167.923C407.424 168.268 406.692 168.611 405.955 168.954L405.385 169.218C404.733 169.521 404.09 169.815 403.439 170.109L403.061 170.283C402.289 170.631 401.521 170.974 400.743 171.316L400.164 171.569C399.498 171.862 398.848 172.143 398.192 172.424L397.638 172.662C396.84 173.003 396.032 173.341 395.217 173.679L394.702 173.891C393.942 174.203 393.187 174.51 392.426 174.815L391.867 175.038C391 175.383 390.115 175.729 389.222 176.072L388.646 176.291C387.86 176.591 387.075 176.884 386.284 177.175L385.766 177.367C384.851 177.702 383.936 178.029 383.016 178.351L382.386 178.57C381.559 178.857 380.73 179.14 379.897 179.418L379.466 179.562C378.524 179.874 377.583 180.175 376.638 180.472L375.965 180.681C375.096 180.951 374.226 181.214 373.354 181.471L372.994 181.578C372.062 181.85 371.102 182.118 370.141 182.381L369.529 182.546C368.373 182.857 367.244 183.149 366.111 183.429L365.657 183.537C364.478 183.823 363.309 184.096 362.138 184.35L361.961 184.388C360.83 184.632 359.654 184.867 358.478 185.088L358.095 185.161C356.925 185.378 355.794 185.568 354.661 185.746L354.031 185.843C353.34 185.947 352.686 186.039 352.033 186.125L351.514 186.196C350.677 186.303 349.858 186.398 349.041 186.482L348.401 186.544C347.8 186.602 347.188 186.657 346.578 186.706L345.756 186.766C345.186 186.805 344.616 186.839 344.046 186.867L343.552 186.898L343.232 186.909C342.935 186.921 342.625 186.931 342.316 186.939C342.316 186.939 341.493 186.964 341.161 186.971C340.809 186.976 340.454 186.977 340.097 186.978L339.378 186.981L339.098 186.98Z" fill="url(#paint18_linear_32_2868)"/>
<path d="M181.076 305.445L130.229 275.896C130.554 390.234 159.361 436.9 189.498 454.414L240.345 483.963C210.207 466.449 181.4 419.783 181.076 305.445Z" fill="url(#paint19_linear_32_2868)"/>
<path d="M191.853 450.363C175.526 440.875 162.47 423.85 153.047 399.758C141.795 370.99 135.728 332.105 134.989 284.08L176.404 308.149C176.757 359.885 183.067 401.784 195.167 432.719C199.295 443.273 204.108 452.599 209.58 460.666L191.853 450.363Z" fill="url(#paint20_linear_32_2868)"/>
<path d="M430.318 161.601C432.646 160.257 433.867 159.498 433.932 159.458C434.596 393.652 314.544 482.625 308.226 487.308C301.902 489.924 181.74 539.638 181.076 305.445C181.14 305.411 182.359 304.761 184.69 303.415C201.375 293.782 271.636 250.314 307.361 182.356C343.358 208.909 413.639 171.231 430.318 161.601Z" fill="url(#paint21_linear_32_2868)"/>
<path d="M276.464 488.774C252.971 488.775 233.523 478.194 218.661 457.327C197.313 427.353 186.252 377.186 185.773 308.193C186.151 307.978 186.571 307.739 187.032 307.472C206.741 296.094 272.707 254.493 309.067 189.052C317.522 193.901 327.821 196.355 339.77 196.356H339.775C348.882 196.356 381.745 194.24 429.221 167.616C427.21 384.454 320.489 472.217 305.902 483.196C301.322 485.035 290.306 488.774 276.464 488.774Z" fill="url(#paint22_linear_32_2868)"/>
<path d="M305.168 186.407C305.592 185.641 306.011 184.871 306.426 184.099C306.577 183.818 306.734 183.54 306.885 183.258C307.044 182.958 307.203 182.657 307.361 182.356L256.515 152.808C256.207 153.394 255.89 153.975 255.576 154.558C255.162 155.327 254.746 156.094 254.323 156.858C254.081 157.295 253.837 157.731 253.593 158.166C253.168 158.92 252.739 159.671 252.307 160.419C252.075 160.82 251.844 161.222 251.61 161.621C250.894 162.841 250.172 164.055 249.435 165.257C249.434 165.26 249.432 165.262 249.431 165.265C248.693 166.47 247.942 167.664 247.185 168.852C246.979 169.175 246.771 169.495 246.564 169.817C245.849 170.926 245.128 172.027 244.397 173.12C244.231 173.369 244.066 173.621 243.899 173.869C243.041 175.144 242.172 176.407 241.293 177.661C241.115 177.914 240.936 178.166 240.757 178.418C239.68 179.944 238.591 181.458 237.487 182.952C237.423 183.038 237.358 183.123 237.294 183.21C236.197 184.689 235.087 186.151 233.967 187.598C233.846 187.754 233.726 187.913 233.605 188.068C232.035 190.088 230.444 192.076 228.834 194.033C228.754 194.131 228.672 194.228 228.591 194.325C227.044 196.201 225.48 198.047 223.902 199.865C223.719 200.077 223.534 200.288 223.35 200.499C222.166 201.854 220.977 203.196 219.78 204.519C219.616 204.7 219.451 204.879 219.287 205.06C218.039 206.433 216.786 207.792 215.527 209.129C215.477 209.181 215.428 209.233 215.378 209.285C214.119 210.621 212.853 211.936 211.586 213.235C211.464 213.359 211.344 213.485 211.223 213.609C209.983 214.876 208.74 216.122 207.495 217.353C207.277 217.569 207.059 217.786 206.841 218.001C206.094 218.736 205.346 219.464 204.599 220.186C204.461 220.32 204.322 220.456 204.184 220.59C203.298 221.442 202.412 222.285 201.527 223.12C201.28 223.353 201.033 223.582 200.786 223.813C200.138 224.421 199.49 225.025 198.842 225.622C198.543 225.899 198.244 226.173 197.946 226.447C197.325 227.016 196.704 227.581 196.085 228.141C195.808 228.391 195.532 228.642 195.256 228.89C194.448 229.616 193.642 230.335 192.838 231.045C192.766 231.108 192.693 231.173 192.621 231.237C191.744 232.01 190.869 232.772 189.996 233.527C189.738 233.75 189.481 233.97 189.224 234.191C188.6 234.727 187.978 235.26 187.357 235.786C187.062 236.037 186.767 236.287 186.472 236.535C185.86 237.051 185.251 237.562 184.643 238.068C184.382 238.285 184.12 238.504 183.86 238.72C183.006 239.427 182.154 240.128 181.308 240.817C181.28 240.84 181.252 240.862 181.223 240.885C180.402 241.553 179.586 242.21 178.774 242.86C178.514 243.068 178.257 243.271 177.999 243.477C177.408 243.947 176.82 244.412 176.235 244.873C175.955 245.093 175.674 245.314 175.394 245.532C174.795 246.001 174.2 246.463 173.607 246.922C173.377 247.099 173.146 247.279 172.918 247.455C172.106 248.079 171.3 248.696 170.501 249.3C170.396 249.38 170.292 249.457 170.186 249.537C169.491 250.063 168.8 250.581 168.115 251.092C167.864 251.279 167.616 251.463 167.367 251.647C166.82 252.053 166.277 252.454 165.739 252.849C165.478 253.041 165.217 253.232 164.958 253.421C164.388 253.838 163.823 254.247 163.262 254.652C163.066 254.794 162.868 254.938 162.673 255.078C161.928 255.615 161.189 256.142 160.461 256.659C160.309 256.766 160.161 256.87 160.01 256.976C159.429 257.387 158.853 257.792 158.284 258.19C158.044 258.358 157.806 258.524 157.567 258.69C157.08 259.028 156.597 259.362 156.12 259.692C155.889 259.851 155.657 260.011 155.428 260.168C154.89 260.537 154.359 260.898 153.834 261.255C153.688 261.354 153.539 261.456 153.393 261.554C152.728 262.004 152.073 262.444 151.429 262.874C151.272 262.979 151.12 263.079 150.964 263.183C150.474 263.509 149.99 263.83 149.513 264.144C149.307 264.28 149.102 264.414 148.898 264.548C148.47 264.829 148.047 265.105 147.63 265.376C147.437 265.501 147.243 265.627 147.053 265.75C146.566 266.066 146.088 266.373 145.619 266.674C145.521 266.737 145.419 266.802 145.322 266.864C144.757 267.225 144.207 267.575 143.668 267.914C143.523 268.006 143.384 268.093 143.24 268.183C142.847 268.431 142.46 268.674 142.082 268.909C141.912 269.015 141.745 269.119 141.578 269.222C141.223 269.443 140.875 269.658 140.534 269.869C140.385 269.96 140.235 270.053 140.089 270.142C139.672 270.398 139.264 270.647 138.87 270.886C138.82 270.916 138.768 270.949 138.719 270.979C138.276 271.247 137.851 271.503 137.439 271.75C137.316 271.823 137.199 271.893 137.08 271.964C136.792 272.136 136.511 272.304 136.24 272.464C136.113 272.539 135.989 272.613 135.866 272.685C135.6 272.842 135.343 272.993 135.094 273.139C134.994 273.198 134.891 273.258 134.794 273.315C134.462 273.508 134.142 273.695 133.843 273.867C132.678 274.54 131.791 275.039 131.187 275.374C130.583 275.709 130.261 275.88 130.229 275.897L181.076 305.445C181.14 305.411 182.359 304.761 184.689 303.416C184.988 303.243 185.308 303.057 185.64 302.863C185.737 302.806 185.84 302.746 185.94 302.688C186.189 302.542 186.445 302.391 186.712 302.234C186.835 302.161 186.959 302.088 187.086 302.013C187.357 301.852 187.638 301.685 187.925 301.513C188.046 301.441 188.162 301.372 188.285 301.298C188.697 301.051 189.122 300.796 189.565 300.527C189.614 300.497 189.666 300.465 189.716 300.435C190.111 300.195 190.518 299.947 190.935 299.69C191.081 299.601 191.231 299.508 191.379 299.417C191.721 299.207 192.069 298.992 192.425 298.771C192.591 298.667 192.758 298.564 192.927 298.458C193.306 298.222 193.693 297.979 194.086 297.732C194.23 297.642 194.369 297.555 194.515 297.463C195.053 297.123 195.603 296.774 196.168 296.413C196.265 296.351 196.367 296.285 196.465 296.222C196.934 295.922 197.412 295.614 197.899 295.299C198.089 295.176 198.283 295.05 198.476 294.924C198.893 294.653 199.315 294.377 199.744 294.096C199.949 293.962 200.152 293.829 200.359 293.692C200.836 293.378 201.321 293.057 201.811 292.731C201.966 292.628 202.118 292.527 202.275 292.423C202.919 291.993 203.574 291.553 204.24 291.103C204.385 291.004 204.534 290.902 204.68 290.803C205.205 290.447 205.736 290.085 206.274 289.716C206.503 289.559 206.734 289.399 206.966 289.24C207.444 288.911 207.926 288.577 208.413 288.238C208.652 288.072 208.889 287.907 209.13 287.738C209.7 287.341 210.275 286.935 210.856 286.525C211.007 286.418 211.155 286.315 211.307 286.207C212.035 285.69 212.774 285.163 213.52 284.627C213.714 284.487 213.912 284.342 214.108 284.201C214.669 283.796 215.234 283.386 215.804 282.97C216.063 282.781 216.324 282.589 216.585 282.398C217.124 282.002 217.667 281.601 218.213 281.196C218.462 281.011 218.71 280.827 218.961 280.641C219.646 280.13 220.337 279.612 221.032 279.086C221.138 279.006 221.242 278.929 221.347 278.849C222.146 278.244 222.952 277.628 223.764 277.003C223.992 276.827 224.223 276.648 224.453 276.47C225.046 276.012 225.641 275.549 226.24 275.081C226.52 274.862 226.8 274.642 227.081 274.421C227.666 273.961 228.255 273.495 228.845 273.025C229.103 272.82 229.36 272.616 229.619 272.409C230.432 271.759 231.248 271.102 232.069 270.434C232.098 270.411 232.125 270.388 232.154 270.365C233 269.677 233.852 268.976 234.706 268.268C234.966 268.053 235.228 267.834 235.489 267.616C236.097 267.11 236.706 266.6 237.318 266.084C237.613 265.835 237.908 265.586 238.203 265.335C238.826 264.806 239.45 264.273 240.076 263.734C240.33 263.516 240.584 263.299 240.838 263.079C241.712 262.323 242.588 261.56 243.467 260.785C243.539 260.722 243.612 260.657 243.684 260.593C244.488 259.883 245.294 259.165 246.102 258.439C246.378 258.191 246.654 257.94 246.931 257.69C247.551 257.129 248.171 256.565 248.792 255.996C249.091 255.722 249.389 255.447 249.688 255.171C250.336 254.573 250.984 253.969 251.632 253.362C251.879 253.13 252.126 252.901 252.373 252.668C253.258 251.833 254.144 250.991 255.03 250.138C255.167 250.006 255.304 249.871 255.442 249.738C256.191 249.014 256.941 248.284 257.69 247.547C257.795 247.443 257.901 247.342 258.006 247.238C258.117 247.128 258.228 247.013 258.339 246.904C259.585 245.671 260.829 244.424 262.071 243.156C262.19 243.034 262.309 242.91 262.428 242.788C263.697 241.487 264.963 240.171 266.224 238.833C266.274 238.781 266.323 238.73 266.373 238.678C267.632 237.34 268.886 235.981 270.134 234.607C270.298 234.427 270.462 234.249 270.626 234.068C271.823 232.745 273.012 231.404 274.195 230.048C274.308 229.919 274.422 229.795 274.534 229.666C274.607 229.583 274.677 229.495 274.749 229.412C276.327 227.594 277.892 225.747 279.44 223.87C279.52 223.774 279.6 223.68 279.679 223.584C281.289 221.626 282.881 219.637 284.452 217.617C284.485 217.573 284.52 217.532 284.554 217.488C284.641 217.376 284.725 217.26 284.812 217.148C285.932 215.701 287.041 214.24 288.137 212.762C288.203 212.674 288.269 212.587 288.334 212.499C289.439 211.005 290.527 209.491 291.604 207.965C291.709 207.817 291.819 207.673 291.923 207.524C291.996 207.42 292.066 207.314 292.138 207.211C293.018 205.955 293.888 204.69 294.748 203.413C294.912 203.17 295.074 202.923 295.237 202.678C295.97 201.58 296.695 200.475 297.412 199.361C297.537 199.168 297.666 198.979 297.79 198.785C297.871 198.659 297.949 198.529 298.03 198.403C299.545 196.026 301.022 193.614 302.457 191.168C302.535 191.034 302.617 190.903 302.695 190.769C302.849 190.505 302.997 190.237 303.15 189.972C303.584 189.222 304.014 188.469 304.44 187.712C304.684 187.278 304.927 186.843 305.168 186.407Z" fill="url(#paint23_linear_32_2868)"/>
<path d="M139.593 275.92L141.254 274.92L142.947 273.884L144.79 272.741L146.181 271.868C146.714 271.532 148.132 270.628 148.132 270.628L150.181 269.305L152.347 267.887L153.978 266.805C154.684 266.334 155.346 265.889 156.019 265.433L158.781 263.547L160.97 262.028C161.542 261.629 163.169 260.481 163.169 260.481C163.908 259.957 164.656 259.423 165.411 258.88L168.509 256.627C169.056 256.225 170.913 254.85 170.913 254.85C171.609 254.33 173.348 253.02 173.348 253.02C174.134 252.426 174.951 251.801 175.774 251.169L179.123 248.562C179.725 248.089 181.419 246.742 181.419 246.742L181.691 246.526C182.522 245.861 183.348 245.195 184.179 244.52L184.318 244.406C185.12 243.754 185.983 243.044 186.849 242.328L187.59 241.71C188.255 241.157 188.873 240.638 189.494 240.115L190.388 239.358C191.016 238.825 191.647 238.286 192.28 237.742L193.061 237.07C193.945 236.306 194.831 235.534 195.72 234.749L195.88 234.608C196.752 233.838 197.567 233.112 198.384 232.379L199.226 231.616C199.856 231.046 200.484 230.476 201.113 229.899L202.016 229.069C202.676 228.459 203.332 227.848 203.989 227.233L204.744 226.525C205.638 225.682 206.535 224.829 207.432 223.965L207.866 223.543C208.61 222.826 209.37 222.085 210.129 221.338L210.793 220.68C212.052 219.434 213.313 218.17 214.57 216.886L214.935 216.511C216.225 215.189 217.509 213.853 218.787 212.498L218.926 212.352C220.215 210.984 221.487 209.604 222.754 208.209L223.263 207.652C224.469 206.32 225.678 204.956 226.88 203.578L227.45 202.923C229.059 201.069 230.662 199.176 232.205 197.307L232.453 197.009C234.109 194.994 235.741 192.954 237.304 190.945L237.667 190.472C238.811 188.994 239.94 187.506 241.056 186.002L241.244 185.75C242.379 184.216 243.486 182.675 244.583 181.122L245.135 180.341C246.026 179.071 246.911 177.784 247.786 176.484L248.29 175.725C249.038 174.606 249.775 173.483 250.503 172.353L251.131 171.378C251.892 170.184 252.642 168.992 253.379 167.789L253.491 167.621L253.535 167.533C254.25 166.361 254.954 165.179 255.651 163.99C255.888 163.587 256.123 163.178 256.359 162.769C256.804 162.001 257.243 161.232 257.677 160.461C257.896 160.071 258.116 159.678 258.334 159.284L301.079 184.124C301.075 184.129 300.355 185.42 300.355 185.42C299.941 186.154 299.52 186.892 299.094 187.628L298.651 188.406L298.42 188.791C297.036 191.152 295.576 193.537 294.08 195.884L293.841 196.266L293.475 196.823C292.771 197.917 292.059 199.002 291.341 200.078L290.862 200.798C290.019 202.049 289.165 203.29 288.302 204.522L288.085 204.839L287.784 205.254C286.719 206.762 285.652 208.247 284.567 209.715L284.371 209.977C283.298 211.425 282.206 212.861 281.106 214.283L280.855 214.614L280.742 214.756C279.237 216.693 277.659 218.666 276.061 220.609L275.833 220.881C274.349 222.68 272.796 224.515 271.211 226.344L270.666 226.968C269.501 228.302 268.33 229.624 267.152 230.926L266.659 231.466C265.439 232.809 264.204 234.147 262.963 235.464L262.852 235.582C261.573 236.937 260.326 238.234 259.077 239.514L258.733 239.869C257.499 241.129 256.273 242.358 255.045 243.573L254.406 244.205C253.666 244.934 252.926 245.655 252.187 246.368L251.785 246.758C250.906 247.605 250.031 248.438 249.157 249.262L248.423 249.95C247.791 250.542 247.151 251.138 246.512 251.727L245.625 252.543C245.013 253.104 243.391 254.575 243.391 254.575L242.968 254.957C242.174 255.672 241.379 256.38 240.585 257.08L240.387 257.256C239.501 258.038 238.636 258.79 237.774 259.536L237.021 260.182C236.403 260.715 235.786 261.242 235.172 261.763L234.295 262.506C233.694 263.012 231.718 264.66 231.718 264.66C230.874 265.359 230.033 266.051 229.197 266.732L229.112 266.8C228.302 267.459 227.496 268.108 226.694 268.749C226.694 268.749 224.761 270.286 224.184 270.74L223.356 271.389C222.763 271.854 220.911 273.288 220.911 273.288C220.104 273.909 219.308 274.516 218.519 275.114C218.519 275.114 216.836 276.381 216.159 276.887L213.037 279.188C212.477 279.598 210.787 280.822 210.787 280.822C210.048 281.353 209.318 281.875 208.597 282.386C208.597 282.386 207.007 283.507 206.446 283.899L203.619 285.857C203.095 286.217 201.607 287.228 201.607 287.228C200.956 287.668 199.217 288.83 199.217 288.83L197.166 290.185L195.361 291.361L193.655 292.46C193.089 292.821 191.594 293.765 191.594 293.765L189.634 294.99L188.478 295.702L187.182 296.494C186.699 296.787 185.519 297.494 185.519 297.494L183.292 298.81L182.349 299.358C181.9 299.617 181.492 299.85 181.127 300.057L139.593 275.92Z" fill="url(#paint24_linear_32_2868)"/>
<path d="M325.843 367.768L332.102 246.587C332.512 234.605 324.331 229.531 314.119 235.426L307.976 238.973C297.765 244.868 289.639 259.357 290.115 270.828L297.04 384.397L325.843 367.768Z" fill="url(#paint25_linear_32_2868)"/>
<path d="M327.499 417.01C331.817 410.09 333.966 403.182 333.947 396.295C333.927 389.415 331.746 385.008 327.402 383.088C323.053 381.172 317.645 382.085 311.167 385.825C304.688 389.565 299.287 394.894 294.969 401.814C290.65 408.734 288.501 415.641 288.52 422.522V422.523C288.54 429.41 290.721 433.816 295.065 435.736C299.408 437.648 304.822 436.74 311.299 433L311.301 432.999C317.779 429.259 323.174 423.927 327.499 417.01Z" fill="url(#paint26_linear_32_2868)"/>
<path d="M322.912 242.748L316.653 363.929L296.501 375.563L297.04 384.397L325.843 367.768L332.103 246.587C332.42 237.288 327.563 232.153 320.599 233.074C322.193 235.392 323.051 238.668 322.912 242.748Z" fill="url(#paint27_linear_32_2868)"/>
<path d="M327.402 383.088C325.735 382.354 323.911 382.039 321.932 382.136C323.798 384.516 324.743 387.953 324.756 392.457C324.776 399.344 322.626 406.252 318.308 413.172C313.984 420.089 308.588 425.421 302.11 429.161L302.109 429.162C298.115 431.467 294.527 432.693 291.343 432.849C292.328 434.105 293.564 435.073 295.065 435.736C299.408 437.648 304.822 436.74 311.299 433L311.301 432.999C317.779 429.259 323.174 423.927 327.499 417.01C331.817 410.09 333.966 403.183 333.947 396.295C333.927 389.415 331.746 385.008 327.402 383.088Z" fill="url(#paint28_linear_32_2868)"/>
<defs>
<linearGradient id="paint0_linear_32_2868" x1="0.0874394" y1="283.166" x2="452.128" y2="283.166" gradientUnits="userSpaceOnUse">
<stop stop-color="#727094"/>
<stop offset="0.2377" stop-color="#9D9ACB"/>
<stop offset="0.7902" stop-color="#9D9ACB"/>
<stop offset="1" stop-color="#727094"/>
</linearGradient>
<linearGradient id="paint1_linear_32_2868" x1="35.3384" y1="292.311" x2="423.303" y2="292.311" gradientUnits="userSpaceOnUse">
<stop stop-color="#566AA6"/>
<stop offset="1" stop-color="#9AA8CB"/>
</linearGradient>
<linearGradient id="paint2_linear_32_2868" x1="59.8017" y1="307.302" x2="485.378" y2="307.302" gradientUnits="userSpaceOnUse">
<stop stop-color="#6E84C1"/>
<stop offset="1" stop-color="#BCC9E7"/>
</linearGradient>
<linearGradient id="paint3_linear_32_2868" x1="64.4869" y1="307.302" x2="480.694" y2="307.302" gradientUnits="userSpaceOnUse">
<stop stop-color="#5F75B8"/>
<stop offset="1" stop-color="#A8B7DE"/>
</linearGradient>
<linearGradient id="paint4_linear_32_2868" x1="258.541" y1="103.224" x2="288.148" y2="103.224" gradientUnits="userSpaceOnUse">
<stop stop-color="#566AA6"/>
<stop offset="1" stop-color="#9AA8CB"/>
</linearGradient>
<linearGradient id="paint5_linear_32_2868" x1="169.218" y1="182.368" x2="198.829" y2="182.368" gradientUnits="userSpaceOnUse">
<stop stop-color="#566AA6"/>
<stop offset="1" stop-color="#9AA8CB"/>
</linearGradient>
<linearGradient id="paint6_linear_32_2868" x1="103.989" y1="295.354" x2="133.595" y2="295.354" gradientUnits="userSpaceOnUse">
<stop stop-color="#566AA6"/>
<stop offset="1" stop-color="#9AA8CB"/>
</linearGradient>
<linearGradient id="paint7_linear_32_2868" x1="80.3257" y1="411.914" x2="109.933" y2="411.914" gradientUnits="userSpaceOnUse">
<stop stop-color="#566AA6"/>
<stop offset="1" stop-color="#9AA8CB"/>
</linearGradient>
<linearGradient id="paint8_linear_32_2868" x1="104.571" y1="500.813" x2="134.178" y2="500.813" gradientUnits="userSpaceOnUse">
<stop stop-color="#566AA6"/>
<stop offset="1" stop-color="#9AA8CB"/>
</linearGradient>
<linearGradient id="paint9_linear_32_2868" x1="170.227" y1="538.228" x2="199.838" y2="538.228" gradientUnits="userSpaceOnUse">
<stop stop-color="#566AA6"/>
<stop offset="1" stop-color="#9AA8CB"/>
</linearGradient>
<linearGradient id="paint10_linear_32_2868" x1="259.706" y1="514.14" x2="289.313" y2="514.14" gradientUnits="userSpaceOnUse">
<stop stop-color="#566AA6"/>
<stop offset="1" stop-color="#9AA8CB"/>
</linearGradient>
<linearGradient id="paint11_linear_32_2868" x1="349.03" y1="434.999" x2="378.641" y2="434.999" gradientUnits="userSpaceOnUse">
<stop stop-color="#566AA6"/>
<stop offset="1" stop-color="#9AA8CB"/>
</linearGradient>
<linearGradient id="paint12_linear_32_2868" x1="414.264" y1="322.012" x2="443.875" y2="322.012" gradientUnits="userSpaceOnUse">
<stop stop-color="#566AA6"/>
<stop offset="1" stop-color="#9AA8CB"/>
</linearGradient>
<linearGradient id="paint13_linear_32_2868" x1="437.931" y1="205.45" x2="467.539" y2="205.45" gradientUnits="userSpaceOnUse">
<stop stop-color="#566AA6"/>
<stop offset="1" stop-color="#9AA8CB"/>
</linearGradient>
<linearGradient id="paint14_linear_32_2868" x1="413.681" y1="116.552" x2="443.293" y2="116.552" gradientUnits="userSpaceOnUse">
<stop stop-color="#566AA6"/>
<stop offset="1" stop-color="#9AA8CB"/>
</linearGradient>
<linearGradient id="paint15_linear_32_2868" x1="348.021" y1="79.1356" x2="377.632" y2="79.1356" gradientUnits="userSpaceOnUse">
<stop stop-color="#566AA6"/>
<stop offset="1" stop-color="#9AA8CB"/>
</linearGradient>
<linearGradient id="paint16_linear_32_2868" x1="122.721" y1="293.92" x2="390.583" y2="293.92" gradientUnits="userSpaceOnUse">
<stop stop-color="#566AA6"/>
<stop offset="1" stop-color="#9AA8CB"/>
</linearGradient>
<linearGradient id="paint17_linear_32_2868" x1="260.358" y1="160.788" x2="433.932" y2="160.788" gradientUnits="userSpaceOnUse">
<stop stop-color="white"/>
<stop offset="0.5402" stop-color="#DDDDDF"/>
<stop offset="0.8356" stop-color="#C9C9CD"/>
<stop offset="1" stop-color="#CFD3E2"/>
</linearGradient>
<linearGradient id="paint18_linear_32_2868" x1="289.418" y1="161.165" x2="424.601" y2="161.165" gradientUnits="userSpaceOnUse">
<stop stop-color="white"/>
<stop offset="0.3609" stop-color="#DDDDDE"/>
<stop offset="0.8356" stop-color="#ABABAF"/>
<stop offset="1" stop-color="#B6BAC7"/>
</linearGradient>
<linearGradient id="paint19_linear_32_2868" x1="130.229" y1="379.93" x2="240.345" y2="379.93" gradientUnits="userSpaceOnUse">
<stop stop-color="white"/>
<stop offset="0.5402" stop-color="#DDDDDF"/>
<stop offset="0.8356" stop-color="#C9C9CD"/>
<stop offset="1" stop-color="#CFD3E2"/>
</linearGradient>
<linearGradient id="paint20_linear_32_2868" x1="134.989" y1="372.373" x2="209.58" y2="372.373" gradientUnits="userSpaceOnUse">
<stop stop-color="white"/>
<stop offset="0.3609" stop-color="#DDDDDE"/>
<stop offset="0.8356" stop-color="#ABABAF"/>
<stop offset="1" stop-color="#B6BAC7"/>
</linearGradient>
<linearGradient id="paint21_linear_32_2868" x1="181.076" y1="326.458" x2="433.934" y2="326.458" gradientUnits="userSpaceOnUse">
<stop stop-color="white"/>
<stop offset="0.5402" stop-color="#DDDDDF"/>
<stop offset="0.8356" stop-color="#C9C9CD"/>
<stop offset="1" stop-color="#CFD3E2"/>
</linearGradient>
<linearGradient id="paint22_linear_32_2868" x1="185.773" y1="328.195" x2="429.221" y2="328.195" gradientUnits="userSpaceOnUse">
<stop stop-color="white"/>
<stop offset="0.5402" stop-color="#DDDDDF"/>
<stop offset="0.8356" stop-color="#C9C9CD"/>
<stop offset="1" stop-color="#CFD3E2"/>
</linearGradient>
<linearGradient id="paint23_linear_32_2868" x1="130.229" y1="229.126" x2="307.361" y2="229.126" gradientUnits="userSpaceOnUse">
<stop stop-color="white"/>
<stop offset="0.5402" stop-color="#DDDDDF"/>
<stop offset="0.8356" stop-color="#C9C9CD"/>
<stop offset="1" stop-color="#CFD3E2"/>
</linearGradient>
<linearGradient id="paint24_linear_32_2868" x1="139.593" y1="229.671" x2="301.079" y2="229.671" gradientUnits="userSpaceOnUse">
<stop stop-color="white"/>
<stop offset="0.3609" stop-color="#DDDDDE"/>
<stop offset="0.8356" stop-color="#ABABAF"/>
<stop offset="1" stop-color="#B6BAC7"/>
</linearGradient>
<linearGradient id="paint25_linear_32_2868" x1="290.095" y1="308.681" x2="332.117" y2="308.681" gradientUnits="userSpaceOnUse">
<stop stop-color="#EF3F6C"/>
<stop offset="1" stop-color="#9C2947"/>
</linearGradient>
<linearGradient id="paint26_linear_32_2868" x1="288.52" y1="409.411" x2="333.947" y2="409.411" gradientUnits="userSpaceOnUse">
<stop stop-color="#EF3F6C"/>
<stop offset="1" stop-color="#9C2947"/>
</linearGradient>
<linearGradient id="paint27_linear_32_2868" x1="290.096" y1="308.683" x2="332.117" y2="308.683" gradientUnits="userSpaceOnUse">
<stop stop-color="#DC3B64"/>
<stop offset="1" stop-color="#89233F"/>
</linearGradient>
<linearGradient id="paint28_linear_32_2868" x1="288.52" y1="409.413" x2="333.947" y2="409.413" gradientUnits="userSpaceOnUse">
<stop stop-color="#DC3B64"/>
<stop offset="1" stop-color="#89233F"/>
</linearGradient>
</defs>
</svg>
