<svg width="424" height="725" viewBox="0 0 424 725" fill="none" xmlns="http://www.w3.org/2000/svg">
<path style="mix-blend-mode:multiply" opacity="0.22" d="M11.0392 657.416L96.7756 707.241L96.7824 707.23C99.5725 708.853 102.763 709.675 106.277 709.675C111.237 709.675 116.558 708.056 122.09 704.861L355.281 570.228C374.398 559.191 389.9 532.34 389.837 510.374L389.262 215.193C389.231 204.404 385.514 196.32 378.796 192.418L378.797 192.416C359.205 181.03 344.13 172.219 332.017 165.139C316.196 155.892 306.485 150.216 299.928 146.529V52.8584C299.928 36.0909 293.617 22.3662 281.68 13.169C270.658 4.67775 255.205 0.189453 236.99 0.189453C202.186 0.189453 163.769 15.9522 134.224 42.3565C109.527 64.4268 80.0891 103.652 80.0891 165.184L79.5891 253.604L75.4582 255.989C47.4706 272.144 33.327 280.323 33.0275 280.525L32.884 280.619C32.7541 280.7 31.7756 281.336 31.2248 281.715C13.3625 293.978 -0.0612895 318.802 0.000210462 339.459L0.576382 634.64C0.606582 645.425 4.32251 653.514 11.0392 657.416ZM250.564 154.894C198.487 184.963 158.927 207.804 128.858 225.162V155.326C128.858 112.287 147.37 86.1768 162.9 71.8516C183.663 52.6993 208.044 45.876 223.939 45.876C240.376 45.876 250.588 52.5352 250.588 63.2559C250.588 64.7071 250.584 68.086 250.579 72.8721C250.562 89.9737 250.524 125.44 250.564 154.894Z" fill="url(#paint0_linear_32_2869)"/>
<path d="M388.234 211.982C407.105 201.087 422.45 209.832 422.512 231.516L423.087 526.695C423.149 548.38 407.903 574.786 389.032 585.682L155.841 720.315C136.969 731.21 121.624 722.465 121.563 700.781L120.987 405.602C120.926 383.917 136.172 357.51 155.043 346.615C246.539 292.942 334.175 241.736 388.234 211.982Z" fill="url(#paint1_linear_32_2869)"/>
<path d="M140.508 720.001C131.81 720.001 126.597 712.811 126.563 700.766L125.987 405.591C125.931 385.536 140.086 361.024 157.542 350.945C245.348 299.437 335.648 246.632 390.645 216.363L390.734 216.312C395.285 213.684 399.723 212.294 403.566 212.294C412.264 212.294 417.478 219.486 417.512 231.531L418.087 526.705C418.144 546.76 403.988 571.272 386.531 581.351L153.34 715.985C148.788 718.613 144.351 720.001 140.508 720.001Z" fill="url(#paint2_linear_32_2869)"/>
<path d="M317.053 157.493C311.914 157.682 306.895 159.619 302.498 162.157C55.293 304.9 69.3334 296.731 67.6672 297.785C67.5404 297.865 66.5815 298.488 66.0415 298.858C48.3679 310.992 35.1908 335.793 35.2509 355.777L35.8262 650.956C35.8567 661.729 39.6592 669.308 45.7922 672.872L131.529 722.696C125.396 719.132 121.593 711.553 121.562 700.781L120.987 405.601C120.925 384.919 134.903 359.626 152.882 347.949C153.055 347.836 153.228 347.72 153.402 347.61C153.946 347.266 154.492 346.933 155.043 346.615C392.091 210.079 393.783 206.688 404.768 207.334C407.525 207.496 410.185 208.23 412.546 209.6C318.264 154.81 324.469 157.23 317.053 157.493Z" fill="url(#paint3_linear_32_2869)"/>
<path d="M311.431 480.815L294.33 399.121C302.06 386.654 306.904 372.236 306.867 359.323C306.799 335.203 289.734 325.478 268.743 337.597L268.742 337.598C247.758 349.713 230.797 379.083 230.865 403.203C230.902 416.116 235.819 424.898 243.594 428.414L227.011 529.554L311.431 480.815Z" fill="url(#paint4_linear_32_2869)"/>
<path d="M294.33 399.122C302.06 386.654 306.904 372.236 306.867 359.323C306.812 339.87 295.698 329.789 280.389 332.971C285.283 337.499 288.209 344.99 288.237 354.94C288.273 367.852 283.429 382.27 275.699 394.738L292.8 476.431L229.753 512.831L227.011 529.554L311.431 480.815L294.33 399.122Z" fill="url(#paint5_linear_32_2869)"/>
<path d="M157.836 289.922C152.519 286.853 145.577 285.163 138.289 285.163C130.992 285.163 124.056 286.857 118.762 289.935C112.638 293.493 109.131 298.755 109.138 304.369C109.146 310.01 112.699 315.293 118.885 318.865C124.206 321.937 131.152 323.629 138.443 323.629H138.445C145.738 323.629 152.669 321.936 157.96 318.861C164.086 315.3 167.595 310.038 167.587 304.423C167.579 298.781 164.025 293.497 157.836 289.922Z" fill="url(#paint6_linear_32_2869)"/>
<path d="M328.906 192.837C323.589 189.767 316.648 188.077 309.36 188.077C302.063 188.077 295.128 189.771 289.832 192.848C283.708 196.408 280.201 201.669 280.209 207.285C280.217 212.925 283.769 218.209 289.955 221.78C295.276 224.851 302.222 226.544 309.514 226.544H309.516C316.808 226.544 323.739 224.85 329.03 221.776C335.156 218.215 338.666 212.952 338.658 207.336C338.65 201.695 335.095 196.41 328.906 192.837Z" fill="url(#paint7_linear_32_2869)"/>
<path d="M333.178 207.294V69.1773C333.178 -29.8207 115.339 16.5732 115.339 181.509L114.646 304.023C114.638 304.242 114.634 304.46 114.643 304.679C114.643 304.679 114.641 304.919 114.664 304.924C114.904 308.265 117.208 311.569 121.624 314.12C130.93 319.493 145.967 319.492 155.206 314.123C159.828 311.437 162.128 307.916 162.108 304.396V171.646C162.108 60.29 285.838 40.5409 285.838 79.5747C285.838 88.6093 285.699 172.338 285.927 205.429C285.627 206.723 285.646 208.035 285.983 209.328C285.986 209.377 285.988 209.428 286.012 209.443C286.777 212.221 288.988 214.894 292.695 217.034C302.001 222.407 317.038 222.407 326.277 217.038C330.906 214.347 333.204 210.82 333.178 207.294Z" fill="url(#paint8_linear_32_2869)"/>
<path d="M406.23 244.28C406.259 254.485 399.081 266.918 390.2 272.046C381.319 277.173 374.1 273.052 374.071 262.847C374.042 252.642 381.214 240.22 390.095 235.092C398.976 229.965 406.201 234.075 406.23 244.28Z" fill="url(#paint9_linear_32_2869)"/>
<path d="M400.535 247.57C400.554 254.161 395.918 262.19 390.182 265.502C384.447 268.813 379.785 266.152 379.766 259.561C379.747 252.97 384.379 244.948 390.115 241.636C395.85 238.325 400.517 240.979 400.535 247.57Z" fill="url(#paint10_linear_32_2869)"/>
<path d="M176.078 376.771C176.107 386.976 168.929 399.409 160.048 404.537C151.166 409.664 143.947 405.543 143.918 395.338C143.889 385.133 151.062 372.71 159.943 367.583C168.824 362.456 176.049 366.566 176.078 376.771Z" fill="url(#paint11_linear_32_2869)"/>
<path d="M170.383 380.06C170.402 386.651 165.766 394.681 160.03 397.992C154.294 401.304 149.632 398.642 149.614 392.051C149.595 385.461 154.227 377.438 159.962 374.127C165.698 370.815 170.364 373.47 170.383 380.06Z" fill="url(#paint12_linear_32_2869)"/>
<path d="M406.23 537.058C406.259 547.263 399.081 559.696 390.2 564.824C381.319 569.951 374.1 565.83 374.071 555.625C374.042 545.42 381.214 532.998 390.095 527.87C398.976 522.743 406.201 526.853 406.23 537.058Z" fill="url(#paint13_linear_32_2869)"/>
<path d="M400.535 540.347C400.554 546.938 395.918 554.968 390.182 558.279C384.447 561.591 379.785 558.929 379.766 552.338C379.747 545.748 384.379 537.725 390.115 534.414C395.85 531.102 400.517 533.757 400.535 540.347Z" fill="url(#paint14_linear_32_2869)"/>
<path d="M176.078 669.548C176.107 679.753 168.929 692.187 160.048 697.314C151.166 702.442 143.947 698.32 143.918 688.115C143.889 677.91 151.062 665.488 159.943 660.36C168.824 655.233 176.049 659.343 176.078 669.548Z" fill="url(#paint15_linear_32_2869)"/>
<path d="M170.383 672.838C170.402 679.429 165.766 687.458 160.03 690.77C154.294 694.081 149.632 691.42 149.614 684.829C149.595 678.238 154.227 670.216 159.962 666.904C165.698 663.593 170.364 666.247 170.383 672.838Z" fill="url(#paint16_linear_32_2869)"/>
<path d="M371.449 510.233L371.448 509.782C371.415 498.101 363.069 493.355 352.904 499.224L191.049 592.671C180.884 598.54 172.592 612.892 172.625 624.573L172.626 625.023C172.659 636.703 181.005 641.46 191.17 635.591L353.026 542.144C363.19 536.275 371.483 521.913 371.449 510.233Z" fill="url(#paint17_linear_32_2869)"/>
<path d="M371.448 509.782C371.422 500.551 366.203 495.658 358.999 496.904C361.556 499.073 363.101 502.8 363.115 507.807L363.116 508.258C363.149 519.938 354.857 534.3 344.692 540.169L182.837 633.616C180.706 634.846 178.658 635.603 176.747 635.934C180.156 638.824 185.365 638.943 191.17 635.591L353.026 542.144C363.19 536.275 371.482 521.913 371.449 510.233L371.448 509.782Z" fill="url(#paint18_linear_32_2869)"/>
<path d="M222.551 586.176L215.915 592.902L216.116 583.619L212.693 585.595L212.92 594.495L206.159 595.457L205.144 600.011L211.904 598.469L207.425 608.315L210.224 609.09L214.232 599.391L218.416 604.544L221.176 600.482L216.732 595.915L223.588 589.575L222.551 586.176Z" fill="url(#paint19_linear_32_2869)"/>
<path d="M250.515 570.031L243.887 576.752L244.08 567.474L240.657 569.45L240.885 578.35L234.123 579.311L233.108 583.866L239.868 582.325L235.389 592.171L238.196 592.941L242.196 583.246L246.38 588.4L249.148 584.333L244.696 579.77L251.561 573.425L250.515 570.031Z" fill="url(#paint20_linear_32_2869)"/>
<path d="M278.487 553.881L271.851 560.607L272.044 551.329L268.63 553.3L268.857 562.2L262.095 563.161L261.072 567.721L267.832 566.18L263.362 576.021L266.161 576.796L270.168 567.096L274.344 572.254L277.112 568.188L272.669 563.62L279.525 557.28L278.487 553.881Z" fill="url(#paint21_linear_32_2869)"/>
<path d="M306.451 537.736L299.815 544.462L300.017 535.179L296.594 537.155L296.821 546.055L290.059 547.017L289.044 551.571L295.805 550.029L291.326 559.875L294.133 560.646L298.132 550.951L302.317 556.105L305.085 552.038L300.633 547.475L307.489 541.135L306.451 537.736Z" fill="url(#paint22_linear_32_2869)"/>
<path d="M334.415 521.591L327.788 528.312L327.981 519.034L324.558 521.01L324.785 529.91L318.023 530.871L317.009 535.425L323.769 533.884L319.298 543.725L322.097 544.5L326.105 534.801L330.281 539.959L333.049 535.893L328.597 531.33L335.461 524.984L334.415 521.591Z" fill="url(#paint23_linear_32_2869)"/>
<defs>
<linearGradient id="paint0_linear_32_2869" x1="1.04614e-05" y1="354.932" x2="389.837" y2="354.932" gradientUnits="userSpaceOnUse">
<stop stop-color="#727094"/>
<stop offset="0.2377" stop-color="#9D9ACB"/>
<stop offset="0.7902" stop-color="#9D9ACB"/>
<stop offset="1" stop-color="#727094"/>
</linearGradient>
<linearGradient id="paint1_linear_32_2869" x1="109.711" y1="211.691" x2="428.792" y2="711.871" gradientUnits="userSpaceOnUse">
<stop stop-color="#6E84C1"/>
<stop offset="1" stop-color="#BCC9E7"/>
</linearGradient>
<linearGradient id="paint2_linear_32_2869" x1="114.666" y1="219.458" x2="424.006" y2="704.369" gradientUnits="userSpaceOnUse">
<stop stop-color="#5F75B8"/>
<stop offset="1" stop-color="#A8B7DE"/>
</linearGradient>
<linearGradient id="paint3_linear_32_2869" x1="35.2507" y1="440.052" x2="412.546" y2="440.052" gradientUnits="userSpaceOnUse">
<stop stop-color="#566AA6"/>
<stop offset="1" stop-color="#9AA8CB"/>
</linearGradient>
<linearGradient id="paint4_linear_32_2869" x1="188.572" y1="401.896" x2="327.114" y2="459.478" gradientUnits="userSpaceOnUse">
<stop stop-color="#4C5E92"/>
<stop offset="1" stop-color="#8A97B6"/>
</linearGradient>
<linearGradient id="paint5_linear_32_2869" x1="217.373" y1="413.871" x2="325.852" y2="458.957" gradientUnits="userSpaceOnUse">
<stop stop-color="#4C5E92"/>
<stop offset="1" stop-color="#8A97B6"/>
</linearGradient>
<linearGradient id="paint6_linear_32_2869" x1="109.138" y1="304.396" x2="167.587" y2="304.396" gradientUnits="userSpaceOnUse">
<stop stop-color="#566AA6"/>
<stop offset="1" stop-color="#9AA8CB"/>
</linearGradient>
<linearGradient id="paint7_linear_32_2869" x1="280.209" y1="207.31" x2="338.658" y2="207.31" gradientUnits="userSpaceOnUse">
<stop stop-color="#566AA6"/>
<stop offset="1" stop-color="#9AA8CB"/>
</linearGradient>
<linearGradient id="paint8_linear_32_2869" x1="223.908" y1="-8.63308" x2="223.908" y2="290.521" gradientUnits="userSpaceOnUse">
<stop stop-color="white"/>
<stop offset="0.3609" stop-color="#DDDDDE"/>
<stop offset="0.8356" stop-color="#ABABAF"/>
<stop offset="1" stop-color="#B6BAC7"/>
</linearGradient>
<linearGradient id="paint9_linear_32_2869" x1="374.071" y1="253.568" x2="406.23" y2="253.568" gradientUnits="userSpaceOnUse">
<stop stop-color="#566AA6"/>
<stop offset="1" stop-color="#9AA8CB"/>
</linearGradient>
<linearGradient id="paint10_linear_32_2869" x1="379.766" y1="253.568" x2="400.535" y2="253.568" gradientUnits="userSpaceOnUse">
<stop stop-color="#566AA6"/>
<stop offset="1" stop-color="#9AA8CB"/>
</linearGradient>
<linearGradient id="paint11_linear_32_2869" x1="143.918" y1="386.059" x2="176.078" y2="386.059" gradientUnits="userSpaceOnUse">
<stop stop-color="#566AA6"/>
<stop offset="1" stop-color="#9AA8CB"/>
</linearGradient>
<linearGradient id="paint12_linear_32_2869" x1="149.613" y1="386.059" x2="170.383" y2="386.059" gradientUnits="userSpaceOnUse">
<stop stop-color="#566AA6"/>
<stop offset="1" stop-color="#9AA8CB"/>
</linearGradient>
<linearGradient id="paint13_linear_32_2869" x1="374.071" y1="546.346" x2="406.23" y2="546.346" gradientUnits="userSpaceOnUse">
<stop stop-color="#566AA6"/>
<stop offset="1" stop-color="#9AA8CB"/>
</linearGradient>
<linearGradient id="paint14_linear_32_2869" x1="379.766" y1="546.346" x2="400.535" y2="546.346" gradientUnits="userSpaceOnUse">
<stop stop-color="#566AA6"/>
<stop offset="1" stop-color="#9AA8CB"/>
</linearGradient>
<linearGradient id="paint15_linear_32_2869" x1="143.918" y1="678.836" x2="176.078" y2="678.836" gradientUnits="userSpaceOnUse">
<stop stop-color="#566AA6"/>
<stop offset="1" stop-color="#9AA8CB"/>
</linearGradient>
<linearGradient id="paint16_linear_32_2869" x1="149.613" y1="678.836" x2="170.383" y2="678.836" gradientUnits="userSpaceOnUse">
<stop stop-color="#566AA6"/>
<stop offset="1" stop-color="#9AA8CB"/>
</linearGradient>
<linearGradient id="paint17_linear_32_2869" x1="172.625" y1="567.406" x2="371.449" y2="567.406" gradientUnits="userSpaceOnUse">
<stop stop-color="white"/>
<stop offset="0.8356" stop-color="#E0E1E6"/>
<stop offset="1" stop-color="#D2D7E5"/>
</linearGradient>
<linearGradient id="paint18_linear_32_2869" x1="266.543" y1="504.972" x2="287.877" y2="694.972" gradientUnits="userSpaceOnUse">
<stop stop-color="white"/>
<stop offset="0.5138" stop-color="#DDDDE0"/>
<stop offset="0.8356" stop-color="#C6C7CB"/>
<stop offset="1" stop-color="#B9BECA"/>
</linearGradient>
<linearGradient id="paint19_linear_32_2869" x1="205.144" y1="596.354" x2="223.588" y2="596.354" gradientUnits="userSpaceOnUse">
<stop stop-color="#EF3F6C"/>
<stop offset="1" stop-color="#9C2947"/>
</linearGradient>
<linearGradient id="paint20_linear_32_2869" x1="233.108" y1="580.207" x2="251.561" y2="580.207" gradientUnits="userSpaceOnUse">
<stop stop-color="#EF3F6C"/>
<stop offset="1" stop-color="#9C2947"/>
</linearGradient>
<linearGradient id="paint21_linear_32_2869" x1="261.072" y1="564.062" x2="279.525" y2="564.062" gradientUnits="userSpaceOnUse">
<stop stop-color="#EF3F6C"/>
<stop offset="1" stop-color="#9C2947"/>
</linearGradient>
<linearGradient id="paint22_linear_32_2869" x1="289.044" y1="547.912" x2="307.489" y2="547.912" gradientUnits="userSpaceOnUse">
<stop stop-color="#EF3F6C"/>
<stop offset="1" stop-color="#9C2947"/>
</linearGradient>
<linearGradient id="paint23_linear_32_2869" x1="317.009" y1="531.767" x2="335.461" y2="531.767" gradientUnits="userSpaceOnUse">
<stop stop-color="#EF3F6C"/>
<stop offset="1" stop-color="#9C2947"/>
</linearGradient>
</defs>
</svg>
