<svg width="503" height="610" viewBox="0 0 503 610" fill="none" xmlns="http://www.w3.org/2000/svg">
<path style="mix-blend-mode:multiply" opacity="0.22" d="M425.67 0.128906L0.44873 245.631L1.3667 569.247L43.8715 593.948L469.094 348.447L468.176 24.8311L425.67 0.128906Z" fill="url(#paint0_linear_32_2867)"/>
<path d="M501.428 41.7266L77.2095 286.649L78.1238 609.113L502.342 364.19L501.428 41.7266Z" fill="url(#paint1_linear_32_2867)"/>
<path d="M35.7007 262.527L36.6149 584.991L78.1239 609.113L77.2096 286.65L35.7007 262.527Z" fill="url(#paint2_linear_32_2867)"/>
<path d="M41.6069 582.109L40.7251 271.23L72.2172 289.531L73.0991 600.41L41.6069 582.109Z" fill="url(#paint3_linear_32_2867)"/>
<path d="M501.428 41.7269L459.919 17.6045L35.7007 262.527L77.2096 286.65L501.428 41.7269Z" fill="url(#paint4_linear_32_2867)"/>
<path d="M45.6763 262.541L459.912 23.3823L491.453 41.7123L77.2173 280.871L45.6763 262.541Z" fill="url(#paint5_linear_32_2867)"/>
<path d="M458.858 283.513L497.589 261.152L497.571 254.803L409.635 305.573L409.483 252.033L497.419 201.263L497.402 195.355L458.671 217.716L458.519 164.176L497.25 141.815L497.232 135.475L409.297 186.244L409.145 132.703L497.08 81.9341L497.063 76.0263L458.333 98.3874L458.258 71.8037L453.116 74.772L453.192 101.356L403.987 129.764L359.924 155.204L359.848 128.62L354.707 131.588L354.782 158.173L305.578 186.581L261.514 212.021L261.439 185.437L256.304 188.401L256.38 214.985L207.175 243.393L163.111 268.834L163.036 242.249L157.895 245.218L157.97 271.802L108.766 300.21L81.7534 315.806L81.7704 321.713L108.783 306.118L108.808 315.19L108.934 359.658L81.9221 375.254L81.9399 381.594L158.156 337.59L158.309 391.131L109.104 419.539L82.0918 435.135L82.1086 441.042L109.121 425.447L109.272 478.987L82.2605 494.583L82.2787 500.931L158.495 456.927L158.647 510.468L109.442 538.876L82.4303 554.471L82.447 560.379L109.459 544.783L109.534 571.23L109.575 585.802L114.717 582.833L114.6 541.815L207.868 487.967L207.943 514.413L207.985 528.985L213.126 526.017L213.01 484.999L306.271 431.154L306.346 457.6L306.387 472.173L311.529 469.205L311.412 428.186L404.68 374.337L404.755 400.784L404.797 415.357L409.938 412.388L409.822 371.369L497.757 320.599L497.74 314.692L459.01 337.053L458.858 283.513ZM453.378 167.144L453.53 220.685L404.325 249.093L360.262 274.533L360.11 220.992L453.378 167.144ZM305.933 311.817L306.084 365.358L212.823 419.203L212.671 365.662L305.933 311.817ZM207.513 362.722L163.45 388.163L163.298 334.622L256.567 280.773L256.718 334.314L207.513 362.722ZM305.916 305.91L261.852 331.35L261.701 277.809L354.969 223.961L355.121 277.501L305.916 305.91ZM404.342 255L404.352 258.557L404.493 308.542L311.226 362.39L311.074 308.849L404.342 255ZM404.004 135.672L404.155 189.212L310.887 243.06L310.736 189.52L404.004 135.672ZM305.594 192.488L305.746 246.029L212.485 299.874L212.333 246.333L305.594 192.488ZM114.075 356.69L113.924 303.149L207.192 249.301L207.343 302.842L114.075 356.69ZM114.414 476.019L114.262 422.479L207.53 368.63L207.682 422.171L114.414 476.019ZM207.852 482.059L163.788 507.5L163.636 453.959L256.905 400.11L257.056 453.651L207.852 482.059ZM306.254 425.246L262.191 450.687L262.039 397.146L355.307 343.298L355.459 396.838L306.254 425.246ZM404.663 368.43L360.6 393.87L360.448 340.329L453.717 286.481L453.868 340.022L404.663 368.43Z" fill="url(#paint6_linear_32_2867)"/>
<path d="M157.97 271.802L157.895 245.218L81.6782 289.221L81.7535 315.806L108.766 300.21L157.97 271.802Z" fill="url(#paint7_linear_32_2867)"/>
<path d="M207.175 243.393L256.38 214.985L256.304 188.401L163.036 242.249L163.111 268.834L207.175 243.393Z" fill="url(#paint8_linear_32_2867)"/>
<path d="M305.577 186.581L354.782 158.173L354.707 131.588L261.439 185.437L261.514 212.021L305.577 186.581Z" fill="url(#paint9_linear_32_2867)"/>
<path d="M403.987 129.764L453.192 101.356L453.116 74.772L359.848 128.62L359.924 155.204L403.987 129.764Z" fill="url(#paint10_linear_32_2867)"/>
<path d="M497.063 76.0266L496.988 49.4429L458.258 71.804L458.333 98.3876L497.063 76.0266Z" fill="url(#paint11_linear_32_2867)"/>
<path d="M108.808 315.19L108.783 306.118L81.7705 321.713L81.9222 375.254L108.934 359.658L108.808 315.19Z" fill="url(#paint12_linear_32_2867)"/>
<path d="M207.192 249.301L113.924 303.149L114.075 356.69L207.343 302.842L207.192 249.301Z" fill="url(#paint13_linear_32_2867)"/>
<path d="M305.746 246.029L305.594 192.488L212.333 246.333L212.485 299.874L305.746 246.029Z" fill="url(#paint14_linear_32_2867)"/>
<path d="M404.155 189.212L404.004 135.672L310.736 189.52L310.887 243.061L404.155 189.212Z" fill="url(#paint15_linear_32_2867)"/>
<path d="M409.297 186.244L497.232 135.475L497.08 81.9341L409.145 132.703L409.297 186.244Z" fill="url(#paint16_linear_32_2867)"/>
<path d="M158.309 391.131L158.156 337.59L81.9399 381.594L82.0918 435.135L109.104 419.539L158.309 391.131Z" fill="url(#paint17_linear_32_2867)"/>
<path d="M163.298 334.622L163.45 388.163L207.514 362.722L256.718 334.314L256.567 280.773L163.298 334.622Z" fill="url(#paint18_linear_32_2867)"/>
<path d="M354.968 223.961L261.701 277.809L261.852 331.35L305.916 305.91L355.12 277.501L354.968 223.961Z" fill="url(#paint19_linear_32_2867)"/>
<path d="M360.262 274.533L404.325 249.093L453.53 220.685L453.378 167.145L360.11 220.993L360.262 274.533Z" fill="url(#paint20_linear_32_2867)"/>
<path d="M458.671 217.716L497.402 195.355L497.25 141.815L458.52 164.176L458.671 217.716Z" fill="url(#paint21_linear_32_2867)"/>
<path d="M109.121 425.447L82.1089 441.042L82.2607 494.583L109.272 478.988L109.121 425.447Z" fill="url(#paint22_linear_32_2867)"/>
<path d="M207.53 368.63L114.262 422.479L114.414 476.019L207.682 422.171L207.53 368.63Z" fill="url(#paint23_linear_32_2867)"/>
<path d="M306.084 365.358L305.933 311.817L212.671 365.662L212.823 419.203L306.084 365.358Z" fill="url(#paint24_linear_32_2867)"/>
<path d="M404.494 308.542L404.352 258.557L404.342 255L311.074 308.849L311.226 362.39L404.494 308.542Z" fill="url(#paint25_linear_32_2867)"/>
<path d="M409.635 305.573L497.571 254.803L497.419 201.263L409.483 252.033L409.635 305.573Z" fill="url(#paint26_linear_32_2867)"/>
<path d="M158.647 510.468L158.495 456.927L82.2788 500.931L82.4304 554.471L109.442 538.876L158.647 510.468Z" fill="url(#paint27_linear_32_2867)"/>
<path d="M163.636 453.959L163.788 507.5L207.852 482.059L257.056 453.651L256.905 400.11L163.636 453.959Z" fill="url(#paint28_linear_32_2867)"/>
<path d="M262.039 397.146L262.191 450.687L306.254 425.246L355.459 396.838L355.307 343.298L262.039 397.146Z" fill="url(#paint29_linear_32_2867)"/>
<path d="M360.448 340.329L360.6 393.87L404.663 368.43L453.868 340.022L453.717 286.481L360.448 340.329Z" fill="url(#paint30_linear_32_2867)"/>
<path d="M458.858 283.513L459.01 337.053L497.74 314.692L497.589 261.152L458.858 283.513Z" fill="url(#paint31_linear_32_2867)"/>
<path d="M109.459 544.784L82.4473 560.379L82.5635 601.397L109.576 585.802L109.535 571.23L109.459 544.784Z" fill="url(#paint32_linear_32_2867)"/>
<path d="M207.868 487.967L114.6 541.815L114.717 582.833L207.985 528.985L207.943 514.413L207.868 487.967Z" fill="url(#paint33_linear_32_2867)"/>
<path d="M306.271 431.154L213.01 484.999L213.126 526.017L306.388 472.173L306.347 457.601L306.271 431.154Z" fill="url(#paint34_linear_32_2867)"/>
<path d="M404.68 374.337L311.412 428.186L311.529 469.205L404.797 415.357L404.755 400.784L404.68 374.337Z" fill="url(#paint35_linear_32_2867)"/>
<path d="M409.938 412.389L497.874 361.62L497.757 320.6L409.822 371.37L409.938 412.389Z" fill="url(#paint36_linear_32_2867)"/>
<path d="M385.373 234.959L378.496 222.546L376.072 236.528C375.876 237.663 375.635 238.9 375.337 240.324L375.211 240.928C375.009 241.863 374.798 242.799 374.548 243.826L374.338 244.662C374.118 245.537 373.887 246.412 373.65 247.285L373.423 248.105C373.159 249.045 372.886 249.988 372.606 250.907L372.562 251.051C372.355 251.73 372.139 252.409 371.917 253.093C371.796 251.907 371.658 250.737 371.505 249.587C371.073 246.354 370.502 243.19 369.807 240.184C368.921 236.347 367.811 232.681 366.509 229.289C365.556 226.805 364.481 224.421 363.312 222.203C359.628 215.21 354.943 209.668 349.387 205.729L341.927 200.44L341.502 209.576C341.469 210.264 341.419 210.962 341.358 211.662L341.285 212.37C341.236 212.851 341.186 213.333 341.115 213.889L341.028 214.528C340.936 215.203 340.833 215.883 340.718 216.564L340.598 217.271C340.45 218.112 340.288 218.959 340.092 219.895L339.982 220.375C339.825 221.097 339.659 221.822 339.479 222.557L339.271 223.392C339.108 224.034 338.938 224.678 338.757 225.342L338.547 226.116C338.29 227.03 338.023 227.948 337.715 228.948L337.653 229.147C337.392 229.991 337.12 230.838 336.838 231.689C336.838 231.689 336.486 232.734 336.444 232.857C334.8 229.142 332.944 225.622 330.908 222.362C326.674 215.587 321.679 209.925 316.079 205.547L315.917 205.418C313.775 203.755 311.51 202.26 309.196 200.979C309.196 200.979 308.605 200.65 308.44 200.562C308.149 200.408 307.855 200.261 307.561 200.114L306.579 199.622C306.307 199.493 306.033 199.37 305.757 199.247L305.355 199.065C305.133 198.964 304.912 198.863 304.704 198.775C304.406 198.648 304.106 198.529 303.805 198.411L303.441 198.264C303.22 198.174 303 198.085 302.78 198.003C302.406 197.862 302.028 197.732 301.649 197.602L301.447 197.523L301.34 197.495C301.34 197.495 300.996 197.372 300.817 197.313C300.261 197.133 299.703 196.965 299.214 196.827L298.834 196.715C298.224 196.545 297.609 196.39 296.992 196.247L296.813 196.203C296.136 196.047 295.456 195.906 294.769 195.781L287.532 194.455L288.964 201.672C289.896 206.363 290.377 211.524 290.392 217.013C290.396 218.183 290.374 219.366 290.337 220.554C290.329 220.789 290.285 221.723 290.285 221.723C290.25 222.537 290.212 223.352 290.159 224.178C290.136 224.543 290.108 224.911 290.081 225.279L290.059 225.565C290.001 226.335 289.937 227.108 289.863 227.886C289.818 228.368 289.77 228.85 289.719 229.333C289.636 230.12 289.545 230.91 289.446 231.71L289.26 233.192C289.192 233.695 289.12 234.202 289.046 234.712C288.956 235.334 288.865 235.956 288.766 236.583C288.685 237.096 288.6 237.61 288.514 238.127C288.41 238.751 288.303 239.375 288.189 240.008C288.096 240.529 288.001 241.05 287.902 241.572C287.783 242.2 287.662 242.83 287.535 243.461C287.429 243.99 287.322 244.519 287.212 245.047L286.781 247.055L286.484 248.392C286.318 249.121 286.146 249.849 285.968 250.586L285.676 251.808C285.464 252.679 285.241 253.551 285.012 254.433L284.808 255.24C284.519 256.34 284.219 257.443 283.913 258.547L288.73 259.886L283.875 258.685C283.875 258.685 283.294 260.727 283.141 261.254C280.927 257.747 278.361 254.865 275.462 252.635L269.795 248.277L267.645 255.096C266.838 257.656 265.962 260.235 264.968 262.972C264.75 263.572 264.527 264.168 264.304 264.767C264.033 265.496 263.758 266.222 263.485 266.937L263.205 267.669C262.772 268.79 262.334 269.907 261.891 271.01L261.67 271.555C261.274 272.538 260.874 273.516 260.471 274.489L260.119 275.341C259.654 276.456 259.186 277.568 258.711 278.682L258.564 279.026C258.123 280.06 257.677 281.092 257.221 282.146L256.931 282.816C255.81 285.393 254.68 287.958 253.516 290.595C252.387 293.158 251.26 295.715 250.151 298.269L249.931 298.772C249.453 299.875 248.978 300.979 248.51 302.075L248.219 302.762C247.826 303.686 247.437 304.611 247.057 305.522L246.693 306.396C246.227 307.518 245.767 308.641 245.317 309.761L245.128 310.236C244.735 311.218 244.348 312.205 243.961 313.205L243.641 314.033C243.13 315.369 242.629 316.706 242.141 318.051L241.905 318.71C241.568 319.65 241.236 320.59 240.917 321.517C240.873 320.727 240.849 319.936 240.846 319.147L240.845 319.018C240.841 316.512 241.032 313.9 241.41 311.251L232.047 308.195L231.76 308.74C230.904 310.352 230.065 311.962 229.249 313.57L229.075 313.913C228.318 315.408 227.581 316.902 226.852 318.409L226.679 318.763C226.043 320.087 225.422 321.41 224.811 322.733L224.443 323.536C223.843 324.847 223.256 326.16 222.691 327.462L222.394 328.153C221.91 329.276 221.435 330.4 220.975 331.515L220.721 332.128C220.214 333.37 219.721 334.612 219.246 335.842L218.918 336.697C218.47 337.871 218.031 339.045 217.606 340.222L217.507 340.492C217.061 341.734 216.632 342.98 216.214 344.224L215.926 345.085C215.499 346.378 215.083 347.673 214.69 348.955L214.551 349.412C214.184 350.623 213.832 351.836 213.486 353.064L213.289 353.765C212.889 355.21 212.511 356.659 212.153 358.102L211.961 358.879C211.608 360.328 211.274 361.782 210.959 363.246L210.739 364.291C210.608 364.913 210.481 365.537 210.358 366.165L210.125 367.381C210.008 368 209.896 368.619 209.786 369.239L209.575 370.454C209.467 371.101 209.363 371.75 209.263 372.389L209.086 373.533C208.976 374.274 208.875 375.017 208.776 375.751L208.662 376.584C208.466 378.1 208.298 379.623 208.146 381.157L208.074 381.891C207.933 383.377 207.814 384.871 207.717 386.363L207.665 387.189C207.574 388.701 207.501 390.22 207.452 391.763L207.436 392.394C207.387 394.194 207.366 395.781 207.371 397.245C207.394 405.543 208.862 413.532 211.729 420.982C212.045 421.805 212.379 422.604 212.717 423.385C212.812 423.604 212.91 423.82 213.022 424.068C213.287 424.66 213.56 425.241 213.843 425.818L214.151 426.445C214.528 427.187 214.915 427.917 215.31 428.616L215.476 428.901C215.835 429.524 216.204 430.133 216.575 430.721C216.706 430.929 216.838 431.132 216.97 431.333C217.31 431.855 217.657 432.365 218.011 432.864C218.011 432.864 218.275 433.241 218.355 433.35C218.819 433.987 219.294 434.607 219.785 435.214L220.084 435.57C220.485 436.054 220.894 436.528 221.326 437.006L221.787 437.507C222.207 437.957 222.633 438.393 223.051 438.804C223.051 438.804 223.324 439.078 223.408 439.157C223.955 439.683 224.513 440.188 225.096 440.688L225.506 441.027C225.954 441.4 226.409 441.763 226.861 442.108L227.413 442.523C227.925 442.898 228.444 443.261 228.994 443.626L229.25 443.799C235.709 447.995 243.134 450.123 251.321 450.123C261.361 450.123 271.955 446.946 282.799 440.685C283.345 440.371 283.89 440.047 284.439 439.715L326.168 414.455C359.085 394.53 386.884 350.113 393.773 306.44C395.128 297.842 395.803 289.398 395.78 281.341C395.729 263.197 392.13 247.158 385.373 234.959Z" fill="url(#paint37_linear_32_2867)"/>
<path d="M326.437 217.671C326.993 217.802 327.547 217.941 328.097 218.094C327.75 217.997 327.399 217.914 327.048 217.827C326.844 217.776 326.642 217.719 326.437 217.671Z" fill="url(#paint38_linear_32_2867)"/>
<path d="M333.076 219.819C332.973 219.776 332.867 219.742 332.764 219.699C332.637 219.647 332.508 219.597 332.379 219.546C332.7 219.673 333.022 219.798 333.339 219.933C333.275 219.906 333.211 219.879 333.147 219.852C333.123 219.842 333.1 219.829 333.076 219.819Z" fill="url(#paint39_linear_32_2867)"/>
<path d="M328.583 218.231C328.515 218.211 328.444 218.196 328.376 218.176C328.878 218.319 329.377 218.468 329.873 218.63C329.581 218.535 329.285 218.451 328.992 218.362C328.855 218.321 328.721 218.271 328.583 218.231Z" fill="url(#paint40_linear_32_2867)"/>
<path d="M330.491 218.845C330.869 218.975 331.247 219.103 331.621 219.244C331.458 219.182 331.292 219.127 331.128 219.068C330.916 218.991 330.704 218.918 330.491 218.845Z" fill="url(#paint41_linear_32_2867)"/>
<path d="M389.489 241.094C390.576 243.155 391.56 245.341 392.442 247.64C393.67 250.843 394.703 254.263 395.536 257.87C396.199 260.739 396.738 263.724 397.15 266.81C397.51 269.503 397.773 272.272 397.942 275.106C398.085 277.492 398.162 279.921 398.169 282.391C398.17 282.607 398.164 282.826 398.164 283.042C398.159 285.58 398.084 288.156 397.938 290.767C397.873 291.94 397.797 293.118 397.703 294.306C398.152 293.416 398.592 292.522 399.026 291.625C399.054 291.566 399.082 291.507 399.11 291.448C399.204 291.252 399.296 291.055 399.39 290.859C399.721 290.165 400.049 289.47 400.371 288.772C400.524 288.442 400.674 288.11 400.824 287.779C401.115 287.136 401.403 286.491 401.686 285.844C401.774 285.644 401.862 285.443 401.949 285.242C402.004 285.116 402.06 284.99 402.114 284.864C402.432 284.126 402.743 283.386 403.049 282.644C403.143 282.419 403.239 282.194 403.331 281.968C403.723 281.009 404.105 280.047 404.476 279.085C404.495 279.035 404.514 278.985 404.532 278.936C404.601 278.757 404.667 278.577 404.735 278.398C405.024 277.639 405.307 276.879 405.583 276.119C405.701 275.792 405.818 275.465 405.934 275.138C406.179 274.446 406.419 273.754 406.653 273.061C406.722 272.858 406.791 272.655 406.859 272.452C406.894 272.345 406.932 272.239 406.967 272.132C407.304 271.112 407.633 270.092 407.945 269.073C407.958 269.031 407.97 268.99 407.982 268.948C408.28 267.971 408.564 266.994 408.838 266.019C408.872 265.898 408.904 265.778 408.937 265.658C408.983 265.493 409.028 265.329 409.073 265.164C409.322 264.254 409.56 263.345 409.788 262.438C409.843 262.218 409.901 261.996 409.956 261.776C410.22 260.696 410.467 259.619 410.699 258.545C410.718 258.457 410.735 258.37 410.754 258.282C410.781 258.155 410.807 258.028 410.833 257.9C411.111 256.576 411.372 255.256 411.599 253.943L389.489 241.094Z" fill="url(#paint42_linear_32_2867)"/>
<path d="M346.496 208.585C346.461 209.34 346.406 210.106 346.338 210.879C346.316 211.133 346.285 211.391 346.26 211.647C346.207 212.171 346.152 212.696 346.085 213.227C346.074 213.32 346.067 213.409 346.055 213.502C346.035 213.659 346.004 213.821 345.983 213.978C345.883 214.705 345.772 215.437 345.648 216.177C345.607 216.424 345.567 216.67 345.523 216.919C345.356 217.858 345.175 218.803 344.971 219.759C344.966 219.784 344.962 219.809 344.957 219.835C344.93 219.961 344.896 220.089 344.869 220.215C344.702 220.978 344.526 221.745 344.338 222.516C344.267 222.809 344.192 223.102 344.118 223.396C343.948 224.068 343.771 224.743 343.586 225.42C343.539 225.591 343.499 225.758 343.452 225.929C343.496 225.963 343.539 225.999 343.582 226.033C348.774 230.092 353.379 235.346 357.268 241.572C359.604 245.31 361.681 249.398 363.471 253.789C364.764 256.959 365.912 260.281 366.895 263.749C367.304 262.786 367.703 261.821 368.096 260.854C368.211 260.573 368.324 260.29 368.437 260.008C368.728 259.286 369.013 258.564 369.293 257.841C369.364 257.659 369.435 257.477 369.505 257.295C369.541 257.2 369.579 257.105 369.615 257.01C370.017 255.962 370.408 254.914 370.787 253.867C370.849 253.696 370.907 253.524 370.968 253.353C371.292 252.449 371.605 251.547 371.909 250.646C371.962 250.488 372.015 250.33 372.068 250.172C372.107 250.054 372.147 249.936 372.186 249.818C372.477 248.938 372.759 248.06 373.03 247.186C373.06 247.09 373.092 246.993 373.121 246.897C373.415 245.937 373.693 244.981 373.961 244.029C373.989 243.93 374.014 243.832 374.042 243.734C374.091 243.556 374.139 243.379 374.187 243.202C374.372 242.525 374.549 241.851 374.719 241.18C374.793 240.886 374.868 240.592 374.939 240.299C375.127 239.528 375.303 238.762 375.469 238C375.497 237.872 375.528 237.744 375.555 237.617C375.561 237.592 375.567 237.567 375.572 237.542C375.775 236.587 375.957 235.641 376.124 234.703C376.168 234.454 376.208 234.207 376.249 233.959C376.373 233.22 376.484 232.488 376.584 231.762C376.606 231.602 376.628 231.441 376.649 231.282C376.661 231.192 376.675 231.1 376.686 231.011C376.753 230.479 376.808 229.954 376.86 229.431C376.886 229.175 376.917 228.916 376.939 228.663C377.007 227.889 377.062 227.123 377.097 226.368L346.496 208.585Z" fill="url(#paint43_linear_32_2867)"/>
<path d="M307.59 204.584C307.536 204.553 307.481 204.525 307.428 204.494C307.199 204.362 306.968 204.238 306.738 204.111C306.213 203.822 305.685 203.543 305.151 203.276C304.973 203.187 304.796 203.095 304.616 203.008C303.933 202.677 303.243 202.362 302.545 202.068C302.529 202.061 302.512 202.056 302.496 202.049C302.386 202.003 302.274 201.962 302.165 201.917C301.623 201.695 301.077 201.484 300.527 201.285C300.31 201.206 300.092 201.132 299.874 201.057C299.383 200.888 298.888 200.729 298.391 200.579C298.265 200.541 298.14 200.503 298.013 200.466C297.924 200.44 297.835 200.411 297.745 200.385C297.315 200.263 296.882 200.152 296.448 200.044C296.238 199.991 296.03 199.934 295.819 199.885C295.174 199.734 294.524 199.596 293.869 199.476C294.894 204.64 295.376 210.098 295.392 215.775C295.395 217.002 295.373 218.241 295.334 219.488C295.321 219.894 295.297 220.305 295.28 220.713C295.244 221.562 295.204 222.412 295.149 223.269C295.119 223.75 295.081 224.235 295.044 224.719C294.984 225.52 294.917 226.324 294.841 227.131C294.794 227.631 294.745 228.131 294.692 228.633C294.605 229.449 294.51 230.27 294.409 231.092C294.37 231.408 294.341 231.72 294.3 232.037C294.274 232.236 294.242 232.438 294.215 232.638C294.145 233.159 294.07 233.682 293.994 234.205C293.901 234.848 293.807 235.49 293.705 236.135C293.622 236.665 293.534 237.196 293.446 237.727C293.338 238.371 293.228 239.016 293.112 239.663C293.016 240.2 292.917 240.738 292.815 241.277C292.693 241.923 292.568 242.571 292.438 243.219C292.329 243.762 292.219 244.304 292.106 244.848C292.045 245.135 291.991 245.421 291.93 245.708C291.845 246.105 291.752 246.505 291.665 246.902C291.563 247.362 291.462 247.822 291.357 248.284C291.189 249.025 291.013 249.768 290.835 250.512C290.734 250.935 290.636 251.357 290.532 251.781C290.315 252.663 290.09 253.547 289.861 254.432C289.787 254.718 289.718 255.003 289.642 255.289C289.348 256.412 289.045 257.537 288.731 258.665C288.719 258.71 288.705 258.756 288.692 258.802C288.597 259.142 288.497 259.482 288.401 259.822C288.16 260.672 287.918 261.522 287.667 262.375C287.534 262.828 287.395 263.282 287.259 263.735C287.236 263.811 287.213 263.887 287.19 263.963L272.414 255.376C272.113 256.329 271.805 257.277 271.49 258.223C271.478 258.258 271.467 258.294 271.455 258.329C271.43 258.405 271.402 258.48 271.376 258.556C270.893 259.997 270.394 261.43 269.881 262.856C269.832 262.992 269.785 263.129 269.735 263.265C269.221 264.687 268.691 266.1 268.151 267.508C268.103 267.636 268.057 267.766 268.008 267.893C267.962 268.012 267.914 268.129 267.868 268.248C267.428 269.388 266.981 270.525 266.527 271.658C266.454 271.84 266.379 272.021 266.306 272.204C265.906 273.196 265.501 274.186 265.092 275.174C264.971 275.467 264.851 275.759 264.729 276.051C264.262 277.173 263.791 278.292 263.316 279.408C263.261 279.538 263.204 279.668 263.149 279.799C262.71 280.826 262.269 281.85 261.825 282.873C261.765 283.013 261.706 283.153 261.645 283.292C261.601 283.394 261.555 283.496 261.511 283.598C260.389 286.179 259.257 288.75 258.125 291.315C256.986 293.897 255.851 296.474 254.731 299.051C254.691 299.143 254.651 299.235 254.611 299.327C254.581 299.395 254.552 299.463 254.522 299.531C254.046 300.628 253.574 301.725 253.105 302.822C253.009 303.048 252.914 303.273 252.818 303.499C252.43 304.411 252.046 305.325 251.665 306.238C251.547 306.521 251.428 306.805 251.311 307.088C250.853 308.193 250.4 309.298 249.955 310.406C249.892 310.562 249.831 310.718 249.769 310.875C249.384 311.838 249.004 312.803 248.63 313.769C248.565 313.938 248.5 314.107 248.435 314.276C248.393 314.385 248.351 314.494 248.309 314.603C248.14 315.042 247.982 315.483 247.816 315.923L236.459 309.323C236.405 309.424 236.353 309.525 236.299 309.627C236.257 309.707 236.215 309.787 236.173 309.867C235.333 311.45 234.509 313.032 233.707 314.611C233.705 314.614 233.704 314.617 233.702 314.619C232.901 316.197 232.123 317.772 231.361 319.347C231.321 319.43 231.279 319.514 231.239 319.598C231.221 319.635 231.203 319.671 231.185 319.708C230.559 321.008 229.949 322.308 229.35 323.608C229.231 323.867 229.111 324.126 228.993 324.386C228.406 325.67 227.833 326.953 227.274 328.237C227.241 328.313 227.209 328.388 227.177 328.464C227.111 328.615 227.047 328.766 226.982 328.918C226.509 330.012 226.047 331.107 225.596 332.202C225.514 332.401 225.43 332.6 225.349 332.799C224.854 334.01 224.374 335.221 223.905 336.434C223.858 336.553 223.813 336.673 223.767 336.792C223.708 336.947 223.649 337.102 223.59 337.256C223.151 338.406 222.72 339.556 222.305 340.708C222.275 340.79 222.244 340.872 222.215 340.955C221.779 342.167 221.361 343.381 220.953 344.596C220.904 344.741 220.856 344.885 220.808 345.03C220.763 345.165 220.718 345.3 220.673 345.435C220.257 346.693 219.852 347.952 219.465 349.213C219.421 349.355 219.38 349.498 219.337 349.641C218.979 350.819 218.635 351.999 218.303 353.182C218.26 353.336 218.215 353.49 218.172 353.645C218.151 353.722 218.129 353.798 218.107 353.876C217.72 355.278 217.353 356.684 217.003 358.094C216.941 358.342 216.879 358.591 216.819 358.84C216.477 360.245 216.152 361.654 215.848 363.068C215.827 363.162 215.808 363.257 215.788 363.352C215.735 363.601 215.682 363.851 215.63 364.101C215.506 364.698 215.384 365.296 215.266 365.895C215.188 366.293 215.112 366.693 215.036 367.092C214.924 367.688 214.816 368.284 214.71 368.881C214.641 369.276 214.571 369.671 214.505 370.066C214.4 370.69 214.301 371.314 214.203 371.94C214.146 372.307 214.086 372.675 214.032 373.043C213.926 373.758 213.827 374.474 213.731 375.192C213.699 375.431 213.664 375.669 213.633 375.909C213.629 375.94 213.624 375.97 213.62 376.001C213.432 377.467 213.269 378.941 213.122 380.42C213.098 380.66 213.073 380.9 213.05 381.14C212.915 382.577 212.801 384.021 212.706 385.47C212.688 385.736 212.672 386.002 212.656 386.268C212.567 387.732 212.497 389.202 212.45 390.68C212.443 390.89 212.44 391.1 212.434 391.31C212.392 392.868 212.366 394.432 212.371 396.007C212.393 403.837 213.83 411.296 216.398 417.969C220.201 427.875 226.079 435.008 233.387 439.255L263.988 457.039C263.511 456.761 263.039 456.469 262.574 456.167C262.493 456.114 262.414 456.057 262.334 456.004C261.872 455.698 261.418 455.38 260.969 455.05C260.811 454.934 260.654 454.815 260.497 454.695C260.096 454.39 259.701 454.074 259.311 453.749C259.187 453.645 259.06 453.545 258.936 453.439C258.44 453.013 257.951 452.571 257.473 452.113C257.371 452.015 257.272 451.911 257.17 451.812C256.789 451.437 256.413 451.052 256.043 450.656C255.902 450.505 255.762 450.353 255.623 450.199C255.255 449.792 254.893 449.372 254.537 448.943C254.447 448.835 254.355 448.731 254.267 448.621C253.833 448.087 253.411 447.534 252.998 446.967C252.894 446.824 252.793 446.676 252.69 446.531C252.374 446.085 252.063 445.629 251.759 445.164C251.641 444.983 251.523 444.802 251.407 444.618C251.068 444.081 250.737 443.533 250.414 442.972C250.366 442.888 250.315 442.807 250.267 442.722C249.903 442.079 249.552 441.416 249.21 440.741C249.115 440.553 249.024 440.361 248.931 440.171C248.675 439.651 248.427 439.122 248.185 438.583C248.092 438.376 247.998 438.17 247.907 437.96C247.594 437.239 247.288 436.506 246.999 435.752C244.431 429.08 242.994 421.62 242.972 413.791C242.967 412.214 242.993 410.649 243.035 409.089C243.041 408.882 243.044 408.673 243.051 408.466C243.098 406.986 243.168 405.514 243.257 404.048C243.273 403.785 243.289 403.52 243.306 403.257C243.402 401.805 243.516 400.36 243.652 398.921C243.674 398.683 243.699 398.445 243.723 398.207C243.87 396.726 244.033 395.25 244.222 393.782C244.256 393.516 244.295 393.252 244.33 392.986C244.427 392.265 244.526 391.544 244.633 390.826C244.687 390.459 244.746 390.094 244.803 389.728C244.901 389.1 245.001 388.472 245.106 387.846C245.172 387.454 245.241 387.062 245.31 386.671C245.416 386.07 245.525 385.47 245.638 384.87C245.713 384.474 245.788 384.078 245.866 383.683C245.985 383.08 246.107 382.478 246.233 381.877C246.304 381.536 246.375 381.194 246.448 380.854C246.753 379.44 247.077 378.03 247.419 376.625C247.48 376.375 247.542 376.125 247.604 375.876C247.954 374.466 248.321 373.061 248.708 371.658C248.772 371.428 248.839 371.197 248.903 370.967C249.236 369.784 249.579 368.602 249.938 367.424C249.981 367.281 250.022 367.139 250.066 366.997C250.453 365.734 250.858 364.475 251.274 363.217C251.367 362.938 251.46 362.659 251.553 362.381C251.962 361.166 252.38 359.952 252.815 358.741C252.846 358.654 252.878 358.568 252.909 358.482C253.324 357.334 253.753 356.186 254.19 355.04C254.295 354.766 254.399 354.491 254.505 354.217C254.975 353.005 255.455 351.793 255.95 350.582C256.031 350.384 256.114 350.186 256.196 349.988C256.648 348.89 257.112 347.792 257.585 346.694C257.682 346.471 257.776 346.247 257.873 346.024C258.432 344.74 259.006 343.457 259.592 342.173C259.711 341.911 259.832 341.649 259.953 341.387C260.551 340.089 261.161 338.79 261.786 337.491C261.844 337.371 261.904 337.251 261.962 337.131C262.724 335.556 263.502 333.981 264.303 332.403C264.305 332.4 264.306 332.397 264.308 332.394C265.111 330.813 265.935 329.23 266.777 327.644C266.872 327.465 266.965 327.286 267.06 327.106C266.635 330.082 266.438 332.934 266.446 335.667C266.446 335.681 266.447 335.694 266.447 335.708C266.46 339.227 266.829 342.532 267.467 345.652C268.307 349.766 269.625 353.547 271.326 356.984C271.338 357.009 271.348 357.035 271.36 357.059C271.37 357.013 271.381 356.967 271.391 356.922C271.64 355.76 271.91 354.606 272.19 353.455C272.263 353.154 272.338 352.852 272.413 352.551C272.695 351.426 272.987 350.304 273.297 349.188C273.311 349.135 273.325 349.082 273.339 349.03C273.669 347.843 274.018 346.663 274.377 345.485C274.466 345.192 274.557 344.899 274.647 344.606C274.995 343.486 275.351 342.369 275.722 341.256C275.74 341.201 275.757 341.146 275.775 341.092C276.236 339.71 276.719 338.334 277.211 336.962C277.289 336.746 277.365 336.53 277.443 336.314C277.92 335 278.41 333.69 278.911 332.382C279.016 332.108 279.122 331.833 279.229 331.559C279.604 330.589 279.984 329.621 280.371 328.655C280.433 328.5 280.494 328.344 280.556 328.189C281.001 327.082 281.454 325.976 281.912 324.871C282.029 324.588 282.148 324.305 282.266 324.022C282.647 323.108 283.031 322.195 283.419 321.283C283.515 321.057 283.61 320.831 283.706 320.605C284.174 319.511 284.645 318.417 285.119 317.323C285.191 317.157 285.263 316.992 285.335 316.826C286.454 314.251 287.589 311.677 288.726 309.098C289.859 306.53 290.993 303.955 292.117 301.371C292.159 301.272 292.202 301.173 292.245 301.075C292.303 300.94 292.362 300.806 292.42 300.672C292.87 299.633 293.319 298.592 293.764 297.549C293.814 297.432 293.864 297.315 293.914 297.198C294.392 296.077 294.864 294.953 295.334 293.827C295.453 293.54 295.571 293.253 295.69 292.966C296.1 291.975 296.506 290.981 296.908 289.985C296.981 289.804 297.055 289.623 297.128 289.441C297.582 288.308 298.029 287.171 298.469 286.031C298.515 285.912 298.56 285.794 298.606 285.675C298.655 285.547 298.703 285.42 298.752 285.292C299.035 284.554 299.314 283.815 299.591 283.073C299.817 282.465 300.044 281.858 300.266 281.247C301.235 278.577 302.156 275.883 303.015 273.159C307.688 276.754 311.155 282.276 313.631 289.014C313.963 289.916 314.278 290.837 314.574 291.781C314.785 291.161 314.987 290.542 315.194 289.922C315.312 289.568 315.431 289.214 315.548 288.86C315.714 288.357 315.879 287.854 316.042 287.351C316.272 286.638 316.499 285.925 316.723 285.213C316.877 284.726 317.031 284.239 317.182 283.753C317.413 283.004 317.639 282.256 317.863 281.508C317.997 281.059 318.135 280.61 318.267 280.162C318.519 279.307 318.762 278.452 319.004 277.599C319.099 277.261 319.199 276.923 319.293 276.586C319.306 276.539 319.318 276.493 319.331 276.447C319.644 275.319 319.95 274.193 320.245 273.069C320.317 272.792 320.385 272.516 320.456 272.239C320.687 271.345 320.915 270.452 321.134 269.56C321.237 269.142 321.334 268.724 321.434 268.306C321.613 267.557 321.79 266.809 321.959 266.062C322.064 265.604 322.164 265.148 322.264 264.691C322.353 264.289 322.437 263.888 322.523 263.487C322.584 263.201 322.647 262.916 322.706 262.631C322.82 262.087 322.931 261.545 323.039 261.003C323.169 260.354 323.294 259.707 323.416 259.061C323.518 258.522 323.617 257.983 323.713 257.446C323.829 256.799 323.939 256.155 324.047 255.511C324.135 254.979 324.224 254.448 324.307 253.919C324.408 253.273 324.502 252.631 324.595 251.989C324.67 251.466 324.746 250.942 324.816 250.421C324.844 250.218 324.866 250.017 324.892 249.815C324.933 249.501 324.971 249.188 325.01 248.876C325.111 248.053 325.206 247.233 325.292 246.416C325.345 245.914 325.395 245.414 325.442 244.915C325.518 244.107 325.585 243.303 325.645 242.502C325.682 242.018 325.72 241.534 325.75 241.053C325.805 240.196 325.845 239.345 325.881 238.497C325.898 238.088 325.922 237.678 325.934 237.272C325.974 236.025 325.997 234.785 325.993 233.558C325.977 227.882 325.495 222.423 324.469 217.26C325.083 217.371 325.691 217.497 326.296 217.636C326.338 217.646 326.379 217.658 326.42 217.668C326.426 217.669 326.431 217.67 326.436 217.671C326.642 217.719 326.844 217.776 327.048 217.827C327.399 217.914 327.75 217.997 328.097 218.094C328.18 218.117 328.263 218.145 328.346 218.169C328.356 218.171 328.366 218.173 328.376 218.176C328.444 218.196 328.514 218.211 328.583 218.231C328.721 218.271 328.855 218.321 328.992 218.362C329.285 218.451 329.581 218.535 329.873 218.63C330.075 218.696 330.274 218.771 330.475 218.84C330.48 218.842 330.486 218.843 330.491 218.845C330.704 218.918 330.916 218.992 331.128 219.068C331.292 219.127 331.458 219.183 331.621 219.244C331.876 219.339 332.127 219.445 332.379 219.546C332.508 219.597 332.637 219.647 332.764 219.699C332.867 219.742 332.973 219.776 333.076 219.819C333.1 219.829 333.123 219.842 333.147 219.852C333.211 219.879 333.275 219.906 333.339 219.933C333.599 220.044 333.855 220.165 334.113 220.281C334.42 220.419 334.727 220.553 335.031 220.698C335.093 220.728 335.155 220.761 335.217 220.791C335.242 220.804 335.268 220.814 335.294 220.826C335.442 220.898 335.588 220.977 335.736 221.051C335.741 221.054 335.747 221.057 335.753 221.06C335.767 221.067 335.782 221.074 335.796 221.081C336.096 221.232 336.398 221.38 336.695 221.538C336.911 221.653 337.123 221.776 337.338 221.894C337.347 221.899 337.355 221.903 337.364 221.908C337.469 221.966 337.577 222.016 337.681 222.075C337.852 222.171 338.022 222.268 338.191 222.367L307.59 204.584Z" fill="url(#paint44_linear_32_2867)"/>
<path d="M411.6 253.943C411.372 255.256 411.111 256.577 410.833 257.901C410.807 258.028 410.781 258.155 410.754 258.283C410.735 258.37 410.718 258.457 410.699 258.545C410.488 259.521 410.268 260.499 410.031 261.48C410.006 261.578 409.98 261.677 409.956 261.776C409.901 261.997 409.843 262.218 409.788 262.439C409.56 263.346 409.322 264.255 409.073 265.164C409.028 265.329 408.983 265.493 408.937 265.658C408.904 265.779 408.872 265.899 408.838 266.019C408.564 266.995 408.28 267.971 407.982 268.949C407.97 268.99 407.958 269.032 407.945 269.073C407.633 270.093 407.304 271.112 406.967 272.132C406.932 272.239 406.894 272.346 406.859 272.452C406.791 272.656 406.722 272.859 406.653 273.062C406.419 273.754 406.179 274.446 405.934 275.138C405.818 275.465 405.701 275.792 405.583 276.12C405.307 276.88 405.024 277.639 404.735 278.398C404.667 278.578 404.601 278.757 404.532 278.936C404.514 278.986 404.495 279.036 404.476 279.085C404.105 280.048 403.723 281.009 403.331 281.969C403.239 282.194 403.143 282.419 403.049 282.645C402.743 283.386 402.432 284.126 402.114 284.864C402.06 284.99 402.004 285.116 401.949 285.242C401.862 285.443 401.774 285.644 401.686 285.845C401.403 286.491 401.115 287.136 400.824 287.78C400.674 288.111 400.524 288.442 400.371 288.773C400.049 289.47 399.721 290.166 399.39 290.86C399.296 291.056 399.204 291.252 399.11 291.448C399.082 291.507 399.054 291.566 399.026 291.625C398.592 292.522 398.152 293.416 397.703 294.306C397.797 293.119 397.873 291.941 397.938 290.767C398.084 288.157 398.159 285.581 398.164 283.042C398.164 282.826 398.17 282.607 398.169 282.391C398.162 279.921 398.085 277.492 397.942 275.106C397.773 272.273 397.51 269.504 397.15 266.81C396.738 263.725 396.199 260.74 395.536 257.87C394.703 254.263 393.67 250.844 392.442 247.641C391.56 245.341 390.576 243.155 389.489 241.094C386.258 234.963 382.131 229.939 377.096 226.369C377.062 227.124 377.007 227.89 376.939 228.663C376.917 228.917 376.886 229.175 376.86 229.431C376.808 229.955 376.753 230.48 376.686 231.011C376.675 231.101 376.66 231.192 376.649 231.282C376.628 231.441 376.605 231.602 376.583 231.762C376.484 232.488 376.373 233.221 376.249 233.959C376.207 234.207 376.168 234.454 376.123 234.703C375.957 235.642 375.775 236.587 375.572 237.542C375.567 237.567 375.561 237.593 375.555 237.618C375.528 237.744 375.497 237.873 375.469 238C375.303 238.762 375.127 239.529 374.939 240.299C374.867 240.592 374.793 240.886 374.719 241.18C374.549 241.851 374.371 242.525 374.187 243.202C374.139 243.38 374.091 243.556 374.041 243.734C374.014 243.833 373.988 243.93 373.961 244.029C373.693 244.981 373.416 245.937 373.121 246.898C373.092 246.994 373.059 247.09 373.03 247.186C372.759 248.061 372.477 248.938 372.186 249.818C372.147 249.936 372.107 250.054 372.067 250.173C372.015 250.33 371.962 250.488 371.908 250.646C371.604 251.547 371.292 252.449 370.968 253.353C370.907 253.525 370.849 253.696 370.787 253.867C370.408 254.914 370.016 255.962 369.615 257.011C369.579 257.106 369.541 257.201 369.505 257.296C369.435 257.478 369.364 257.659 369.293 257.841C369.012 258.564 368.727 259.286 368.437 260.008C368.324 260.291 368.211 260.573 368.096 260.855C367.703 261.821 367.304 262.787 366.895 263.749C365.912 260.282 364.763 256.959 363.47 253.789C361.68 249.398 359.604 245.31 357.268 241.572C353.378 235.346 348.774 230.092 343.582 226.033C343.538 225.999 343.496 225.963 343.451 225.929C341.503 224.416 339.471 223.074 337.365 221.908C337.356 221.903 337.347 221.899 337.338 221.894C337.123 221.776 336.911 221.653 336.695 221.538C336.398 221.38 336.096 221.232 335.796 221.082C335.782 221.074 335.767 221.067 335.753 221.06C335.747 221.057 335.741 221.054 335.736 221.051C335.588 220.977 335.442 220.899 335.294 220.826C335.269 220.814 335.242 220.804 335.217 220.791C335.155 220.761 335.093 220.728 335.031 220.698C334.728 220.553 334.42 220.419 334.114 220.281C333.855 220.165 333.599 220.044 333.339 219.933C333.022 219.798 332.7 219.674 332.38 219.546C332.127 219.445 331.876 219.339 331.621 219.244C331.247 219.103 330.869 218.975 330.491 218.846C330.486 218.844 330.48 218.842 330.475 218.84C330.274 218.771 330.075 218.696 329.873 218.63C329.377 218.468 328.878 218.32 328.376 218.176C328.366 218.174 328.356 218.172 328.346 218.169C328.263 218.145 328.18 218.117 328.097 218.094C327.547 217.941 326.993 217.802 326.437 217.671C326.431 217.67 326.426 217.67 326.421 217.668C326.379 217.659 326.338 217.646 326.296 217.637C325.692 217.498 325.083 217.372 324.47 217.26C325.495 222.423 325.977 227.882 325.993 233.558C325.997 234.785 325.974 236.025 325.935 237.272C325.922 237.678 325.899 238.089 325.881 238.497C325.845 239.345 325.805 240.196 325.75 241.053C325.72 241.534 325.682 242.018 325.645 242.502C325.585 243.303 325.518 244.107 325.442 244.915C325.395 245.414 325.346 245.914 325.293 246.417C325.207 247.233 325.111 248.053 325.01 248.876C324.971 249.188 324.933 249.501 324.892 249.815C324.866 250.018 324.844 250.219 324.817 250.421C324.747 250.943 324.671 251.466 324.595 251.989C324.502 252.631 324.408 253.274 324.307 253.919C324.224 254.448 324.135 254.979 324.047 255.511C323.939 256.155 323.829 256.8 323.713 257.446C323.617 257.984 323.518 258.522 323.416 259.061C323.294 259.707 323.169 260.354 323.039 261.003C322.931 261.545 322.82 262.087 322.707 262.631C322.647 262.916 322.584 263.202 322.523 263.487C322.437 263.888 322.353 264.289 322.264 264.691C322.164 265.148 322.064 265.605 321.959 266.063C321.79 266.809 321.613 267.557 321.434 268.306C321.334 268.724 321.237 269.142 321.134 269.561C320.915 270.452 320.688 271.345 320.456 272.239C320.385 272.516 320.317 272.792 320.245 273.07C319.95 274.193 319.644 275.319 319.331 276.447C319.318 276.493 319.306 276.539 319.293 276.586C319.199 276.923 319.099 277.261 319.004 277.599C318.762 278.452 318.519 279.307 318.267 280.162C318.135 280.611 317.998 281.059 317.863 281.508C317.639 282.256 317.413 283.004 317.182 283.753C317.031 284.24 316.877 284.726 316.724 285.213C316.499 285.926 316.272 286.638 316.042 287.351C315.879 287.854 315.714 288.357 315.548 288.86C315.432 289.214 315.312 289.568 315.194 289.922C314.987 290.542 314.785 291.161 314.574 291.781C314.278 290.837 313.963 289.916 313.632 289.014C311.155 282.276 307.688 276.754 303.015 273.16C302.156 275.883 301.235 278.577 300.266 281.247C300.044 281.858 299.817 282.465 299.591 283.073C299.315 283.815 299.035 284.555 298.752 285.293C298.704 285.42 298.655 285.548 298.606 285.675C298.56 285.794 298.515 285.913 298.47 286.031C298.029 287.171 297.583 288.308 297.128 289.441C297.055 289.623 296.981 289.804 296.908 289.985C296.506 290.981 296.1 291.975 295.69 292.966C295.572 293.253 295.453 293.54 295.334 293.827C294.864 294.953 294.392 296.077 293.914 297.198C293.864 297.315 293.814 297.432 293.764 297.549C293.319 298.592 292.87 299.633 292.42 300.672C292.362 300.806 292.303 300.941 292.245 301.075C292.202 301.173 292.16 301.272 292.117 301.371C290.994 303.955 289.859 306.53 288.726 309.099C287.589 311.677 286.454 314.252 285.336 316.826C285.263 316.992 285.191 317.157 285.119 317.323C284.645 318.417 284.174 319.511 283.706 320.605C283.61 320.831 283.515 321.057 283.419 321.283C283.031 322.195 282.647 323.108 282.266 324.022C282.148 324.305 282.03 324.588 281.912 324.871C281.454 325.976 281.001 327.082 280.556 328.189C280.494 328.344 280.433 328.5 280.371 328.655C279.985 329.621 279.604 330.59 279.229 331.559C279.123 331.833 279.017 332.108 278.912 332.382C278.41 333.69 277.92 335 277.444 336.314C277.365 336.53 277.289 336.746 277.212 336.962C276.719 338.335 276.237 339.711 275.775 341.092C275.757 341.147 275.74 341.202 275.722 341.256C275.351 342.369 274.995 343.487 274.647 344.606C274.556 344.899 274.466 345.192 274.377 345.485C274.019 346.663 273.67 347.843 273.339 349.03C273.325 349.082 273.311 349.135 273.297 349.188C272.987 350.304 272.695 351.426 272.413 352.551C272.338 352.852 272.263 353.154 272.19 353.455C271.91 354.606 271.64 355.761 271.391 356.922C271.381 356.968 271.37 357.013 271.36 357.059C271.348 357.035 271.338 357.009 271.326 356.985C269.625 353.547 268.307 349.766 267.467 345.652C266.83 342.532 266.46 339.227 266.447 335.708C266.447 335.694 266.446 335.681 266.446 335.667C266.438 332.934 266.636 330.083 267.06 327.106C266.965 327.286 266.872 327.465 266.777 327.644C265.936 329.23 265.111 330.813 264.308 332.394C264.306 332.397 264.305 332.4 264.303 332.403C263.502 333.981 262.724 335.556 261.962 337.131C261.904 337.251 261.844 337.371 261.787 337.491C261.161 338.79 260.552 340.089 259.953 341.387C259.832 341.649 259.712 341.911 259.592 342.173C259.006 343.457 258.432 344.74 257.874 346.024C257.776 346.247 257.682 346.471 257.585 346.694C257.112 347.792 256.649 348.89 256.196 349.989C256.114 350.186 256.031 350.384 255.95 350.582C255.455 351.793 254.975 353.005 254.506 354.217C254.4 354.491 254.295 354.766 254.191 355.04C253.753 356.187 253.324 357.334 252.909 358.482C252.879 358.569 252.846 358.655 252.815 358.741C252.38 359.952 251.962 361.166 251.553 362.381C251.46 362.659 251.367 362.938 251.275 363.217C250.858 364.475 250.453 365.734 250.066 366.997C250.022 367.139 249.981 367.282 249.938 367.424C249.58 368.603 249.236 369.784 248.903 370.967C248.839 371.198 248.772 371.428 248.709 371.659C248.321 373.061 247.954 374.467 247.604 375.876C247.542 376.125 247.48 376.375 247.419 376.625C247.077 378.031 246.753 379.44 246.448 380.854C246.375 381.195 246.304 381.536 246.233 381.878C246.108 382.479 245.985 383.081 245.866 383.683C245.789 384.079 245.713 384.474 245.638 384.87C245.525 385.47 245.416 386.07 245.31 386.671C245.241 387.062 245.173 387.454 245.106 387.846C245.001 388.472 244.901 389.1 244.803 389.728C244.746 390.094 244.687 390.459 244.633 390.826C244.526 391.544 244.427 392.265 244.331 392.986C244.295 393.252 244.256 393.516 244.222 393.782C244.033 395.25 243.87 396.726 243.723 398.207C243.7 398.445 243.674 398.683 243.652 398.921C243.516 400.36 243.402 401.805 243.306 403.257C243.289 403.52 243.273 403.785 243.257 404.049C243.169 405.514 243.098 406.986 243.051 408.466C243.045 408.673 243.041 408.882 243.036 409.09C242.993 410.649 242.967 412.214 242.972 413.791C242.994 421.621 244.431 429.08 246.999 435.752C247.288 436.506 247.594 437.239 247.907 437.96C247.998 438.17 248.092 438.376 248.185 438.583C248.427 439.122 248.676 439.651 248.931 440.171C249.024 440.361 249.116 440.553 249.21 440.741C249.552 441.416 249.903 442.079 250.267 442.723C250.315 442.807 250.366 442.888 250.414 442.972C250.737 443.534 251.068 444.082 251.407 444.618C251.524 444.802 251.642 444.983 251.759 445.164C252.063 445.63 252.374 446.085 252.69 446.532C252.793 446.676 252.894 446.825 252.998 446.968C253.411 447.535 253.833 448.087 254.267 448.622C254.356 448.731 254.448 448.835 254.537 448.943C254.893 449.372 255.255 449.792 255.623 450.2C255.762 450.353 255.902 450.506 256.043 450.656C256.413 451.052 256.789 451.437 257.171 451.812C257.272 451.911 257.371 452.015 257.473 452.113C257.952 452.572 258.44 453.013 258.937 453.439C259.06 453.545 259.187 453.645 259.312 453.749C259.701 454.074 260.097 454.39 260.497 454.695C260.654 454.815 260.811 454.934 260.969 455.05C261.418 455.38 261.873 455.698 262.334 456.004C262.414 456.057 262.493 456.114 262.574 456.167C275.23 464.388 292.543 463.514 310.905 452.913C311.421 452.616 311.935 452.312 312.452 451.999L354.18 426.74C385.618 407.708 412.752 364.591 419.434 322.222C420.749 313.882 421.403 305.72 421.381 297.916C421.333 280.957 418.102 265.682 411.6 253.943Z" fill="url(#paint45_linear_32_2867)"/>
<path d="M285.407 348.077C298.793 333.855 304.169 313.29 304.169 293.884C304.169 293.378 304.165 292.874 304.158 292.371C300.493 313.248 287.721 328.606 285.407 348.077Z" fill="url(#paint46_linear_32_2867)"/>
<path d="M331.211 231.887C337.259 236.923 340.952 244.509 340.952 252.23C340.952 265.341 330.307 272.614 323.178 282.969C326.532 269.848 332.749 256.323 332.749 242.816C332.749 239.169 332.296 235.523 331.211 231.887Z" fill="url(#paint47_linear_32_2867)"/>
<path d="M379.143 243.86C381.745 246.236 382.798 248.703 382.798 251.182C382.798 255.436 379.697 259.723 376.003 263.639C378.12 257.715 379.161 251.522 379.161 245.289C379.161 244.813 379.155 244.337 379.143 243.86Z" fill="url(#paint48_linear_32_2867)"/>
<path d="M256.49 373.718C251.078 381.592 248.553 391.699 248.553 401.879C248.553 436.734 266.76 440.65 281.494 443.769C264.841 431.362 254.212 410.643 254.212 389.899C254.212 384.457 254.943 379.013 256.49 373.718Z" fill="url(#paint49_linear_32_2867)"/>
<path d="M409.305 294.825C413.718 299.788 415.43 306.032 415.43 312.576C415.43 331.25 405.198 344.531 395.543 357.28C403.852 337.763 409.307 316.758 409.307 295.608C409.307 295.347 409.306 295.086 409.305 294.825Z" fill="url(#paint50_linear_32_2867)"/>
<defs>
<linearGradient id="paint0_linear_32_2867" x1="0.44873" y1="297.039" x2="469.094" y2="297.039" gradientUnits="userSpaceOnUse">
<stop stop-color="#727094"/>
<stop offset="0.2377" stop-color="#9D9ACB"/>
<stop offset="0.7902" stop-color="#9D9ACB"/>
<stop offset="1" stop-color="#727094"/>
</linearGradient>
<linearGradient id="paint1_linear_32_2867" x1="77.2095" y1="325.42" x2="502.342" y2="325.42" gradientUnits="userSpaceOnUse">
<stop stop-color="#6E84C1"/>
<stop offset="1" stop-color="#BCC9E7"/>
</linearGradient>
<linearGradient id="paint2_linear_32_2867" x1="35.7007" y1="435.82" x2="78.1239" y2="435.82" gradientUnits="userSpaceOnUse">
<stop stop-color="#6E84C1"/>
<stop offset="1" stop-color="#BCC9E7"/>
</linearGradient>
<linearGradient id="paint3_linear_32_2867" x1="55.8386" y1="269.413" x2="57.8383" y2="579.413" gradientUnits="userSpaceOnUse">
<stop stop-color="#566AA6"/>
<stop offset="1" stop-color="#9AA8CB"/>
</linearGradient>
<linearGradient id="paint4_linear_32_2867" x1="35.7007" y1="152.127" x2="501.428" y2="152.127" gradientUnits="userSpaceOnUse">
<stop stop-color="#6E84C1"/>
<stop offset="1" stop-color="#BCC9E7"/>
</linearGradient>
<linearGradient id="paint5_linear_32_2867" x1="51.8611" y1="275.517" x2="474.528" y2="34.8508" gradientUnits="userSpaceOnUse">
<stop stop-color="#566AA6"/>
<stop offset="1" stop-color="#9AA8CB"/>
</linearGradient>
<linearGradient id="paint6_linear_32_2867" x1="10.3563" y1="328.803" x2="606.802" y2="328.803" gradientUnits="userSpaceOnUse">
<stop stop-color="#4C5E92"/>
<stop offset="1" stop-color="#8A97B6"/>
</linearGradient>
<linearGradient id="paint7_linear_32_2867" x1="64.5507" y1="280.512" x2="157.97" y2="280.512" gradientUnits="userSpaceOnUse">
<stop stop-color="#7C90C9"/>
<stop offset="1" stop-color="#C4D1EB"/>
</linearGradient>
<linearGradient id="paint8_linear_32_2867" x1="163.036" y1="228.617" x2="256.38" y2="228.617" gradientUnits="userSpaceOnUse">
<stop stop-color="#7C90C9"/>
<stop offset="1" stop-color="#C4D1EB"/>
</linearGradient>
<linearGradient id="paint9_linear_32_2867" x1="261.439" y1="171.804" x2="354.782" y2="171.804" gradientUnits="userSpaceOnUse">
<stop stop-color="#7C90C9"/>
<stop offset="1" stop-color="#C4D1EB"/>
</linearGradient>
<linearGradient id="paint10_linear_32_2867" x1="359.848" y1="114.988" x2="453.192" y2="114.988" gradientUnits="userSpaceOnUse">
<stop stop-color="#7C90C9"/>
<stop offset="1" stop-color="#C4D1EB"/>
</linearGradient>
<linearGradient id="paint11_linear_32_2867" x1="458.181" y1="73.9153" x2="551.601" y2="73.9153" gradientUnits="userSpaceOnUse">
<stop stop-color="#7C90C9"/>
<stop offset="1" stop-color="#C4D1EB"/>
</linearGradient>
<linearGradient id="paint12_linear_32_2867" x1="15.515" y1="340.686" x2="108.934" y2="340.686" gradientUnits="userSpaceOnUse">
<stop stop-color="#7C90C9"/>
<stop offset="1" stop-color="#C4D1EB"/>
</linearGradient>
<linearGradient id="paint13_linear_32_2867" x1="113.924" y1="302.996" x2="207.343" y2="302.996" gradientUnits="userSpaceOnUse">
<stop stop-color="#7C90C9"/>
<stop offset="1" stop-color="#C4D1EB"/>
</linearGradient>
<linearGradient id="paint14_linear_32_2867" x1="212.333" y1="246.181" x2="305.746" y2="246.181" gradientUnits="userSpaceOnUse">
<stop stop-color="#7C90C9"/>
<stop offset="1" stop-color="#C4D1EB"/>
</linearGradient>
<linearGradient id="paint15_linear_32_2867" x1="310.736" y1="189.366" x2="404.155" y2="189.366" gradientUnits="userSpaceOnUse">
<stop stop-color="#7C90C9"/>
<stop offset="1" stop-color="#C4D1EB"/>
</linearGradient>
<linearGradient id="paint16_linear_32_2867" x1="409.145" y1="134.089" x2="502.565" y2="134.089" gradientUnits="userSpaceOnUse">
<stop stop-color="#7C90C9"/>
<stop offset="1" stop-color="#C4D1EB"/>
</linearGradient>
<linearGradient id="paint17_linear_32_2867" x1="64.8887" y1="386.362" x2="158.309" y2="386.362" gradientUnits="userSpaceOnUse">
<stop stop-color="#7C90C9"/>
<stop offset="1" stop-color="#C4D1EB"/>
</linearGradient>
<linearGradient id="paint18_linear_32_2867" x1="163.298" y1="334.468" x2="256.718" y2="334.468" gradientUnits="userSpaceOnUse">
<stop stop-color="#7C90C9"/>
<stop offset="1" stop-color="#C4D1EB"/>
</linearGradient>
<linearGradient id="paint19_linear_32_2867" x1="261.701" y1="277.655" x2="355.12" y2="277.655" gradientUnits="userSpaceOnUse">
<stop stop-color="#7C90C9"/>
<stop offset="1" stop-color="#C4D1EB"/>
</linearGradient>
<linearGradient id="paint20_linear_32_2867" x1="360.11" y1="220.839" x2="453.53" y2="220.839" gradientUnits="userSpaceOnUse">
<stop stop-color="#7C90C9"/>
<stop offset="1" stop-color="#C4D1EB"/>
</linearGradient>
<linearGradient id="paint21_linear_32_2867" x1="458.52" y1="179.766" x2="551.94" y2="179.766" gradientUnits="userSpaceOnUse">
<stop stop-color="#7C90C9"/>
<stop offset="1" stop-color="#C4D1EB"/>
</linearGradient>
<linearGradient id="paint22_linear_32_2867" x1="15.8529" y1="460.015" x2="109.272" y2="460.015" gradientUnits="userSpaceOnUse">
<stop stop-color="#7C90C9"/>
<stop offset="1" stop-color="#C4D1EB"/>
</linearGradient>
<linearGradient id="paint23_linear_32_2867" x1="114.262" y1="422.325" x2="207.682" y2="422.325" gradientUnits="userSpaceOnUse">
<stop stop-color="#7C90C9"/>
<stop offset="1" stop-color="#C4D1EB"/>
</linearGradient>
<linearGradient id="paint24_linear_32_2867" x1="212.671" y1="365.51" x2="306.084" y2="365.51" gradientUnits="userSpaceOnUse">
<stop stop-color="#7C90C9"/>
<stop offset="1" stop-color="#C4D1EB"/>
</linearGradient>
<linearGradient id="paint25_linear_32_2867" x1="311.074" y1="308.695" x2="404.494" y2="308.695" gradientUnits="userSpaceOnUse">
<stop stop-color="#7C90C9"/>
<stop offset="1" stop-color="#C4D1EB"/>
</linearGradient>
<linearGradient id="paint26_linear_32_2867" x1="409.483" y1="253.418" x2="502.903" y2="253.418" gradientUnits="userSpaceOnUse">
<stop stop-color="#7C90C9"/>
<stop offset="1" stop-color="#C4D1EB"/>
</linearGradient>
<linearGradient id="paint27_linear_32_2867" x1="65.2269" y1="505.699" x2="158.646" y2="505.699" gradientUnits="userSpaceOnUse">
<stop stop-color="#7C90C9"/>
<stop offset="1" stop-color="#C4D1EB"/>
</linearGradient>
<linearGradient id="paint28_linear_32_2867" x1="163.636" y1="453.805" x2="257.056" y2="453.805" gradientUnits="userSpaceOnUse">
<stop stop-color="#7C90C9"/>
<stop offset="1" stop-color="#C4D1EB"/>
</linearGradient>
<linearGradient id="paint29_linear_32_2867" x1="262.039" y1="396.992" x2="355.459" y2="396.992" gradientUnits="userSpaceOnUse">
<stop stop-color="#7C90C9"/>
<stop offset="1" stop-color="#C4D1EB"/>
</linearGradient>
<linearGradient id="paint30_linear_32_2867" x1="360.448" y1="340.175" x2="453.868" y2="340.175" gradientUnits="userSpaceOnUse">
<stop stop-color="#7C90C9"/>
<stop offset="1" stop-color="#C4D1EB"/>
</linearGradient>
<linearGradient id="paint31_linear_32_2867" x1="458.858" y1="299.103" x2="552.277" y2="299.103" gradientUnits="userSpaceOnUse">
<stop stop-color="#7C90C9"/>
<stop offset="1" stop-color="#C4D1EB"/>
</linearGradient>
<linearGradient id="paint32_linear_32_2867" x1="16.1912" y1="573.09" x2="109.611" y2="573.09" gradientUnits="userSpaceOnUse">
<stop stop-color="#7C90C9"/>
<stop offset="1" stop-color="#C4D1EB"/>
</linearGradient>
<linearGradient id="paint33_linear_32_2867" x1="114.6" y1="535.4" x2="207.985" y2="535.4" gradientUnits="userSpaceOnUse">
<stop stop-color="#7C90C9"/>
<stop offset="1" stop-color="#C4D1EB"/>
</linearGradient>
<linearGradient id="paint34_linear_32_2867" x1="213.01" y1="478.586" x2="306.388" y2="478.586" gradientUnits="userSpaceOnUse">
<stop stop-color="#7C90C9"/>
<stop offset="1" stop-color="#C4D1EB"/>
</linearGradient>
<linearGradient id="paint35_linear_32_2867" x1="311.412" y1="421.771" x2="404.797" y2="421.771" gradientUnits="userSpaceOnUse">
<stop stop-color="#7C90C9"/>
<stop offset="1" stop-color="#C4D1EB"/>
</linearGradient>
<linearGradient id="paint36_linear_32_2867" x1="409.822" y1="366.494" x2="503.241" y2="366.494" gradientUnits="userSpaceOnUse">
<stop stop-color="#7C90C9"/>
<stop offset="1" stop-color="#C4D1EB"/>
</linearGradient>
<linearGradient id="paint37_linear_32_2867" x1="207.37" y1="322.289" x2="395.781" y2="322.289" gradientUnits="userSpaceOnUse">
<stop stop-color="#4C5E92"/>
<stop offset="1" stop-color="#8A97B6"/>
</linearGradient>
<linearGradient id="paint38_linear_32_2867" x1="326.437" y1="217.882" x2="328.097" y2="217.882" gradientUnits="userSpaceOnUse">
<stop stop-color="#DC3B64"/>
<stop offset="1" stop-color="#89233F"/>
</linearGradient>
<linearGradient id="paint39_linear_32_2867" x1="332.379" y1="219.739" x2="333.339" y2="219.739" gradientUnits="userSpaceOnUse">
<stop stop-color="#DC3B64"/>
<stop offset="1" stop-color="#89233F"/>
</linearGradient>
<linearGradient id="paint40_linear_32_2867" x1="328.376" y1="218.403" x2="329.873" y2="218.403" gradientUnits="userSpaceOnUse">
<stop stop-color="#DC3B64"/>
<stop offset="1" stop-color="#89233F"/>
</linearGradient>
<linearGradient id="paint41_linear_32_2867" x1="330.491" y1="219.044" x2="331.621" y2="219.044" gradientUnits="userSpaceOnUse">
<stop stop-color="#DC3B64"/>
<stop offset="1" stop-color="#89233F"/>
</linearGradient>
<linearGradient id="paint42_linear_32_2867" x1="389.489" y1="267.7" x2="411.599" y2="267.7" gradientUnits="userSpaceOnUse">
<stop stop-color="#DC3B64"/>
<stop offset="1" stop-color="#89233F"/>
</linearGradient>
<linearGradient id="paint43_linear_32_2867" x1="343.452" y1="236.167" x2="377.097" y2="236.167" gradientUnits="userSpaceOnUse">
<stop stop-color="#DC3B64"/>
<stop offset="1" stop-color="#89233F"/>
</linearGradient>
<linearGradient id="paint44_linear_32_2867" x1="212.37" y1="328.257" x2="338.191" y2="328.257" gradientUnits="userSpaceOnUse">
<stop stop-color="#DC3B64"/>
<stop offset="1" stop-color="#89233F"/>
</linearGradient>
<linearGradient id="paint45_linear_32_2867" x1="242.971" y1="339.472" x2="421.382" y2="339.472" gradientUnits="userSpaceOnUse">
<stop stop-color="#EF3F6C"/>
<stop offset="1" stop-color="#9C2947"/>
</linearGradient>
<linearGradient id="paint46_linear_32_2867" x1="285.407" y1="320.224" x2="304.169" y2="320.224" gradientUnits="userSpaceOnUse">
<stop stop-color="#EF3F6C"/>
<stop offset="1" stop-color="#9C2947"/>
</linearGradient>
<linearGradient id="paint47_linear_32_2867" x1="323.178" y1="257.428" x2="340.952" y2="257.428" gradientUnits="userSpaceOnUse">
<stop stop-color="#EF3F6C"/>
<stop offset="1" stop-color="#9C2947"/>
</linearGradient>
<linearGradient id="paint48_linear_32_2867" x1="376.003" y1="253.749" x2="382.798" y2="253.749" gradientUnits="userSpaceOnUse">
<stop stop-color="#EF3F6C"/>
<stop offset="1" stop-color="#9C2947"/>
</linearGradient>
<linearGradient id="paint49_linear_32_2867" x1="248.553" y1="408.744" x2="281.494" y2="408.744" gradientUnits="userSpaceOnUse">
<stop stop-color="#EF3F6C"/>
<stop offset="1" stop-color="#9C2947"/>
</linearGradient>
<linearGradient id="paint50_linear_32_2867" x1="395.543" y1="326.052" x2="415.43" y2="326.052" gradientUnits="userSpaceOnUse">
<stop stop-color="#EF3F6C"/>
<stop offset="1" stop-color="#9C2947"/>
</linearGradient>
</defs>
</svg>
