<svg width="565" height="745" viewBox="0 0 565 745" fill="none" xmlns="http://www.w3.org/2000/svg">
<path style="mix-blend-mode:multiply" opacity="0.22" d="M529.796 17.8232L499.617 0L0.378174 288.236L1.45537 667.982L31.6341 685.806L99.8225 646.438L243.682 729.839L444.393 613.198L444.586 589.427L321.781 518.289L530.873 397.57L529.796 17.8232Z" fill="url(#paint0_linear_32_2865)"/>
<path d="M477.832 606.319L278.114 722.382L126.944 634.848L326.722 518.785L477.832 606.319Z" fill="url(#paint1_linear_32_2865)"/>
<path d="M477.832 606.319L477.648 628.939L277.931 745.002L278.115 722.382L477.832 606.319Z" fill="url(#paint2_linear_32_2865)"/>
<path d="M278.114 722.382L277.931 745.002L126.944 657.468V634.848L278.114 722.382Z" fill="url(#paint3_radial_32_2865)"/>
<path d="M304.771 558.401L304.979 631.689L329.754 617.385L329.546 544.097L304.771 558.401Z" fill="url(#paint4_linear_32_2865)"/>
<path d="M304.771 558.606L264.158 535.004L264.366 608.293L304.979 631.894L304.771 558.606Z" fill="url(#paint5_radial_32_2865)"/>
<path d="M329.546 548.746L288.933 525.145L264.158 539.448L304.771 563.05L329.546 548.746Z" fill="black"/>
<path d="M64.8171 322.369L65.8904 700.967L304.771 563.05L329.546 548.746L564.122 413.313L563.049 34.7144L64.8171 322.369Z" fill="url(#paint6_linear_32_2865)"/>
<path d="M84.8604 333.902L543.136 69.3174L544.079 401.78L85.8033 666.364L84.8604 333.902Z" fill="url(#paint7_linear_32_2865)"/>
<path d="M94.8823 339.668L533.179 86.6196L534.057 396.013L95.7597 649.062L94.8823 339.668Z" fill="url(#paint8_linear_32_2865)"/>
<path d="M64.8172 322.369L35.6301 305.132L36.7035 683.731L65.8905 700.968L64.8172 322.369Z" fill="url(#paint9_radial_32_2865)"/>
<path d="M563.049 34.7144L533.862 17.478L35.6301 305.132L64.8172 322.369L563.049 34.7144Z" fill="url(#paint10_linear_32_2865)"/>
<path d="M437.226 300.64V300.635C437.016 226.878 384.627 197.023 320.438 234.083C256.256 271.139 204.208 361.288 204.415 435.047L204.415 435.055C204.626 508.803 257.014 538.656 321.195 501.602L321.197 501.6C385.386 464.54 437.434 374.39 437.226 300.64ZM328.08 317.22L363.203 296.941C365.359 307.628 366.674 319.643 367.103 332.612L328.187 355.081L328.08 317.22ZM328.235 372.074L367.152 349.606C366.798 363.018 365.554 376.511 363.466 389.649L328.343 409.927L328.235 372.074ZM328.538 478.699L328.391 426.92L359.75 408.815C357.716 417.708 355.297 426.322 352.506 434.504C345.733 454.295 337.282 469.77 328.538 478.699ZM356.864 456.524C364.513 440.193 370.79 420.841 375.168 399.913L406.327 381.924C394.637 409.533 377.328 435.815 356.864 456.524ZM414.213 360.349L378.543 380.943C380.461 367.947 381.631 354.549 381.955 341.059L422.195 317.826C421.39 331.67 418.617 346.037 414.213 360.349ZM422.147 300.833L381.907 324.066C381.507 310.994 380.266 298.979 378.28 288.236L413.951 267.642C418.42 276.832 421.266 287.954 422.147 300.833ZM405.968 255.23L374.808 273.22C370.327 257.416 363.96 245.356 356.244 237.904C376.759 234.945 394.16 241.196 405.968 255.23ZM352.025 264.876C354.853 269.805 357.314 275.61 359.391 282.121L328.032 300.226L327.885 248.456C336.651 247.267 345.162 252.949 352.025 264.876ZM313.554 418.465L278.438 438.739C276.282 428.052 274.967 416.037 274.538 403.076L313.447 380.612L313.554 418.465ZM313.399 363.619L274.489 386.083C274.844 372.661 276.087 359.17 278.175 346.032L313.291 325.758L313.399 363.619ZM313.096 256.994L313.243 308.765L281.891 326.866C283.925 317.981 286.345 309.358 289.136 301.185C295.908 281.386 304.36 265.911 313.096 256.994ZM284.778 279.165C277.121 295.492 270.851 314.848 266.474 335.767L235.314 353.757C247.004 326.157 264.313 299.865 284.778 279.165ZM227.428 375.331L263.098 354.737C261.18 367.734 260.011 381.141 259.678 394.634L219.446 417.862C220.251 404.011 223.025 389.643 227.428 375.331ZM219.494 434.856L259.727 411.628C260.134 424.695 261.375 436.701 263.361 447.444L227.691 468.038C223.221 458.849 220.375 447.726 219.494 434.856ZM235.673 480.451L266.833 462.461C271.314 478.273 277.674 490.329 285.397 497.785C264.882 500.735 247.482 494.492 235.673 480.451ZM289.616 470.813C286.788 465.875 284.328 460.079 282.25 453.56L313.602 435.458L313.749 487.237C304.99 488.413 296.479 482.731 289.616 470.813Z" fill="url(#paint11_linear_32_2865)"/>
<path d="M363.203 427.36L348.461 356.936C355.125 346.188 359.301 333.759 359.269 322.627C359.21 301.834 344.499 293.451 326.404 303.898L326.403 303.899C308.314 314.343 293.692 339.661 293.751 360.454C293.782 371.586 298.021 379.156 304.724 382.187L290.429 469.376L363.203 427.36Z" fill="url(#paint12_linear_32_2865)"/>
<path d="M348.461 356.936C355.125 346.188 359.301 333.759 359.269 322.628C359.221 305.858 349.641 297.168 336.443 299.911C340.662 303.814 343.184 310.272 343.208 318.849C343.24 329.98 339.064 342.409 332.4 353.157L347.142 423.581L292.792 454.96L290.429 469.376L363.203 427.36L348.461 356.936Z" fill="url(#paint13_linear_32_2865)"/>
<defs>
<linearGradient id="paint0_linear_32_2865" x1="0.378174" y1="364.919" x2="530.873" y2="364.919" gradientUnits="userSpaceOnUse">
<stop stop-color="#727094"/>
<stop offset="0.2377" stop-color="#9D9ACB"/>
<stop offset="0.7902" stop-color="#9D9ACB"/>
<stop offset="1" stop-color="#727094"/>
</linearGradient>
<linearGradient id="paint1_linear_32_2865" x1="126.944" y1="620.584" x2="477.832" y2="620.584" gradientUnits="userSpaceOnUse">
<stop stop-color="white"/>
<stop offset="0.3609" stop-color="#DDDDDE"/>
<stop offset="0.8356" stop-color="#ABABAF"/>
<stop offset="1" stop-color="#B6BAC7"/>
</linearGradient>
<linearGradient id="paint2_linear_32_2865" x1="277.931" y1="675.661" x2="477.832" y2="675.661" gradientUnits="userSpaceOnUse">
<stop stop-color="white"/>
<stop offset="0.5402" stop-color="#DDDDDF"/>
<stop offset="0.8356" stop-color="#C9C9CD"/>
<stop offset="1" stop-color="#CFD3E2"/>
</linearGradient>
<radialGradient id="paint3_radial_32_2865" cx="0" cy="0" r="1" gradientUnits="userSpaceOnUse" gradientTransform="translate(202.529 689.925) scale(66.1309)">
<stop stop-color="#B7BAC4"/>
<stop offset="1" stop-color="#9DA0A8"/>
</radialGradient>
<linearGradient id="paint4_linear_32_2865" x1="304.771" y1="587.893" x2="329.754" y2="587.893" gradientUnits="userSpaceOnUse">
<stop stop-color="white"/>
<stop offset="0.5402" stop-color="#DDDDDF"/>
<stop offset="0.8356" stop-color="#C9C9CD"/>
<stop offset="1" stop-color="#CFD3E2"/>
</linearGradient>
<radialGradient id="paint5_radial_32_2865" cx="0" cy="0" r="1" gradientUnits="userSpaceOnUse" gradientTransform="translate(284.569 583.449) scale(37.1718 37.1718)">
<stop stop-color="#B7BAC4"/>
<stop offset="1" stop-color="#9DA0A8"/>
</radialGradient>
<linearGradient id="paint6_linear_32_2865" x1="64.8171" y1="367.841" x2="564.122" y2="367.841" gradientUnits="userSpaceOnUse">
<stop stop-color="white"/>
<stop offset="0.5402" stop-color="#DDDDDF"/>
<stop offset="0.8356" stop-color="#C9C9CD"/>
<stop offset="1" stop-color="#CFD3E2"/>
</linearGradient>
<linearGradient id="paint7_linear_32_2865" x1="84.8604" y1="367.841" x2="544.079" y2="367.841" gradientUnits="userSpaceOnUse">
<stop stop-color="#6E84C1"/>
<stop offset="1" stop-color="#BCC9E7"/>
</linearGradient>
<linearGradient id="paint8_linear_32_2865" x1="130.347" y1="614.227" x2="489.933" y2="133.042" gradientUnits="userSpaceOnUse">
<stop stop-color="#5F75B8"/>
<stop offset="1" stop-color="#A8B7DE"/>
</linearGradient>
<radialGradient id="paint9_radial_32_2865" cx="0" cy="0" r="1" gradientUnits="userSpaceOnUse" gradientTransform="translate(50.7603 503.05) scale(140.357 140.357)">
<stop stop-color="#B7BAC4"/>
<stop offset="1" stop-color="#9DA0A8"/>
</radialGradient>
<linearGradient id="paint10_linear_32_2865" x1="35.6301" y1="169.923" x2="563.049" y2="169.923" gradientUnits="userSpaceOnUse">
<stop stop-color="white"/>
<stop offset="0.3609" stop-color="#DDDDDE"/>
<stop offset="0.8356" stop-color="#ABABAF"/>
<stop offset="1" stop-color="#B6BAC7"/>
</linearGradient>
<linearGradient id="paint11_linear_32_2865" x1="204.414" y1="367.841" x2="437.227" y2="367.841" gradientUnits="userSpaceOnUse">
<stop stop-color="#EF3F6C"/>
<stop offset="1" stop-color="#9C2947"/>
</linearGradient>
<linearGradient id="paint12_linear_32_2865" x1="257.292" y1="359.328" x2="376.723" y2="408.966" gradientUnits="userSpaceOnUse">
<stop stop-color="#4C5E92"/>
<stop offset="1" stop-color="#8A97B6"/>
</linearGradient>
<linearGradient id="paint13_linear_32_2865" x1="282.12" y1="369.65" x2="375.634" y2="408.517" gradientUnits="userSpaceOnUse">
<stop stop-color="#42517E"/>
<stop offset="1" stop-color="#7B86A1"/>
</linearGradient>
</defs>
</svg>
