<svg width="505" height="609" viewBox="0 0 505 609" fill="none" xmlns="http://www.w3.org/2000/svg">
<path style="mix-blend-mode:multiply" opacity="0.22" d="M431.064 0.372559L430.56 0.684082C428.248 2.11478 424.723 4.16156 422.194 5.59906C384.801 26.8628 328.936 55.1314 275.747 55.1343C258.334 55.1353 242.097 52.0454 227.484 45.9507L215.396 39.1021L214.917 40.0161C194.759 78.3716 162.394 119.469 121.319 158.867C82.6592 195.948 39.7617 227.944 0.529297 248.961L0 249.246L0.00201416 249.846C0.254914 339.084 10.8389 411.064 31.46 463.786C48.2442 506.698 71.7451 537.167 101.319 554.354L140.429 576.513L140.432 576.508C159.027 587.312 179.861 592.79 202.368 592.79C202.366 592.79 202.369 592.79 202.368 592.79C228.48 592.79 249.107 585.423 256.763 582.256L256.877 582.209L256.977 582.136C279.019 565.8 472.293 411.345 471.193 23.6909L471.191 23.1099L431.064 0.372559Z" fill="url(#paint0_linear_32_2866)"/>
<path d="M446.795 69.3894C447.931 68.9022 449.057 68.4147 450.171 67.9265C450.516 67.7751 450.863 67.6242 451.206 67.4732C452.552 66.8799 453.883 66.2866 455.194 65.6944C455.42 65.5925 455.64 65.4909 455.865 65.3886C456.994 64.877 458.108 64.3661 459.209 63.8568C459.545 63.7012 459.881 63.546 460.215 63.3904C461.492 62.7966 462.755 62.2045 463.991 61.6166C464.047 61.5902 464.1 61.5641 464.156 61.5376C465.341 60.9735 466.502 60.4136 467.649 59.8569C467.974 59.6993 468.296 59.5425 468.618 59.3853C469.697 58.8589 470.761 58.336 471.802 57.8189C471.903 57.7688 472.008 57.7178 472.109 57.6676C473.252 57.0992 474.365 56.5389 475.459 55.9845C475.736 55.8444 476.008 55.7063 476.281 55.567C477.19 55.104 478.082 54.6473 478.956 54.1967C479.142 54.1003 479.334 54.0022 479.519 53.9065C480.537 53.3793 481.526 52.8626 482.492 52.3545C482.727 52.2308 482.955 52.1098 483.187 51.9872C483.976 51.5706 484.746 51.1617 485.497 50.7597C485.699 50.652 485.903 50.5434 486.102 50.4364C486.999 49.9552 487.869 49.4852 488.709 49.028C488.875 48.9374 489.032 48.851 489.197 48.7615C489.898 48.3787 490.577 48.0056 491.236 47.6418C491.424 47.5375 491.614 47.4332 491.799 47.3309C492.565 46.9064 493.306 46.4936 494.009 46.0987C494.09 46.0536 494.163 46.0116 494.243 45.9665C494.873 45.6128 495.471 45.2739 496.047 44.9463C496.215 44.8514 496.379 44.7576 496.542 44.6647C497.157 44.3141 497.75 43.9741 498.298 43.6578C502.257 41.3716 504.335 40.0807 504.444 40.013L465.336 17.854C462.959 19.3261 459.393 21.3918 456.939 22.7878C396.675 57.0553 319.267 90.6769 256.589 61.0901L256.592 61.092C256.591 61.0912 256.589 61.0901 256.589 61.0901L295.698 83.249C295.987 83.4171 296.277 83.5832 296.569 83.7474C296.798 83.8762 297.036 83.9863 297.266 84.1127C298.13 84.5866 299.001 85.0438 299.881 85.4826C300.258 85.6702 300.633 85.8585 301.012 86.0398C302.042 86.532 303.083 87.0016 304.135 87.4478C304.292 87.5147 304.444 87.5925 304.601 87.6583C304.635 87.6727 304.67 87.6836 304.704 87.698C306.002 88.2372 307.32 88.7356 308.65 89.2079C309.009 89.3359 309.372 89.4554 309.734 89.5783C310.779 89.9335 311.833 90.2693 312.896 90.586C313.126 90.6545 313.351 90.7377 313.582 90.8047C313.704 90.8397 313.829 90.865 313.951 90.8996C315.417 91.3159 316.898 91.6987 318.395 92.0442C318.693 92.1131 318.995 92.1734 319.294 92.2395C320.603 92.5282 321.923 92.7912 323.252 93.0286C323.462 93.0659 323.666 93.1165 323.877 93.1531C323.978 93.1702 324.082 93.1795 324.184 93.1966C325.918 93.4896 327.671 93.7359 329.438 93.9456C329.777 93.9861 330.117 94.0238 330.457 94.0611C332.238 94.2561 334.03 94.4175 335.839 94.5327C335.918 94.5381 335.995 94.5486 336.074 94.5537C336.537 94.5821 337.005 94.5957 337.47 94.6194C338.11 94.6521 338.748 94.6871 339.391 94.7101C339.973 94.7311 340.558 94.7412 341.142 94.7545C341.788 94.7692 342.432 94.786 343.08 94.7918C343.669 94.7965 344.261 94.7918 344.853 94.7895C345.5 94.7871 346.146 94.786 346.796 94.7747C347.394 94.7642 347.994 94.7447 348.594 94.7272C349.242 94.7082 349.889 94.6903 350.539 94.663C350.709 94.6556 350.877 94.6541 351.047 94.6463C351.349 94.6323 351.655 94.6066 351.958 94.5914C352.979 94.5393 354.001 94.4786 355.025 94.407C355.514 94.3728 356.002 94.3378 356.491 94.2992C357.577 94.214 358.664 94.1164 359.754 94.0098C360.129 93.9732 360.503 93.9421 360.879 93.9028C362.331 93.7522 363.786 93.5845 365.245 93.3982C365.556 93.3585 365.869 93.3122 366.181 93.2706C367.342 93.1169 368.504 92.9539 369.668 92.7788C369.864 92.7492 370.06 92.7259 370.256 92.6959C370.452 92.666 370.648 92.6267 370.844 92.5959C372.843 92.2839 374.843 91.947 376.844 91.5773C377.088 91.5322 377.333 91.4828 377.577 91.4369C379.647 91.0471 381.717 90.6335 383.785 90.1872C383.833 90.1767 383.88 90.1674 383.928 90.1573C386.014 89.7059 388.096 89.2208 390.175 88.7166C390.449 88.6504 390.722 88.5866 390.995 88.5197C392.977 88.0322 394.954 87.5198 396.926 86.9895C397.109 86.9405 397.293 86.8973 397.475 86.8479C397.667 86.7957 397.857 86.7385 398.049 86.686C399.725 86.2281 401.398 85.7593 403.063 85.2737C403.263 85.2154 403.461 85.1547 403.661 85.0959C405.181 84.6489 406.695 84.1902 408.204 83.7221C408.597 83.6007 408.989 83.4797 409.381 83.3568C411.026 82.8397 412.665 82.3137 414.295 81.7752C414.55 81.6908 414.803 81.6041 415.057 81.5196C416.504 81.0376 417.944 80.5466 419.376 80.0493C419.745 79.9217 420.113 79.7953 420.479 79.6665C422.078 79.1059 423.668 78.5374 425.246 77.9605C425.549 77.8496 425.85 77.7367 426.153 77.6251C427.527 77.1189 428.891 76.6077 430.246 76.0918C430.583 75.9634 430.921 75.8358 431.256 75.707C432.803 75.1133 434.336 74.5141 435.856 73.9103C436.176 73.7831 436.491 73.6555 436.809 73.5282C438.13 72.9999 439.439 72.4684 440.737 71.9342C440.934 71.8529 441.138 71.7728 441.336 71.6911C441.438 71.649 441.537 71.6062 441.639 71.5638C443.055 70.9775 444.456 70.3889 445.842 69.7983C446.162 69.6621 446.477 69.5255 446.795 69.3894Z" fill="url(#paint1_linear_32_2866)"/>
<path d="M343.142 86.8237C342.546 86.8174 341.941 86.8034 341.335 86.7894C341.335 86.7894 340.129 86.763 339.667 86.7474C339.206 86.7303 336.631 86.6042 336.631 86.6042C336.52 86.5933 336.413 86.5855 336.306 86.5793C334.735 86.4782 333.095 86.335 331.33 86.1405L330.381 86.0331C328.7 85.8339 327.063 85.602 325.508 85.339L325.18 85.2892C324.988 85.2487 324.819 85.2145 324.646 85.1834C323.434 84.9655 322.22 84.7258 321.015 84.4597L320.223 84.2869C318.854 83.971 317.487 83.6193 316.124 83.2334L315.774 83.1415C315.509 83.0544 315.34 82.9999 315.167 82.9486C314.205 82.6622 313.248 82.3572 312.297 82.0335L311.326 81.702C310.05 81.2491 308.922 80.818 307.877 80.387L307.603 80.2733C307.523 80.2344 307.39 80.1737 307.256 80.1162C306.304 79.7115 305.37 79.2898 304.446 78.8478C304.128 78.6984 303.828 78.5475 303.526 78.3965C302.647 77.9576 301.867 77.5483 301.095 77.1235C300.918 77.027 300.74 76.9352 300.563 76.8449L299.699 76.3578L306.016 80.5973H306.167C306.724 80.5957 307.281 80.5926 307.84 80.5817C308.313 80.574 309.714 80.5335 309.714 80.5335C310.408 80.5133 311.09 80.493 311.774 80.4635C312.138 80.4495 313.268 80.3888 313.268 80.3888C314.322 80.3359 315.399 80.272 316.477 80.1973L318.013 80.0837C319.142 79.995 320.287 79.8923 321.437 79.7803L322.601 79.6682C324.103 79.5126 325.623 79.3367 327.142 79.1438L328.064 79.0193C329.32 78.8512 330.532 78.6815 331.746 78.4995L332.986 78.3065C335.036 77.9875 337.11 77.6373 339.185 77.2529L339.966 77.1035C342.082 76.7051 344.219 76.2787 346.356 75.818L346.53 75.7807C348.656 75.32 350.802 74.8205 352.947 74.3007L353.796 74.0952C355.826 73.5972 357.863 73.0697 359.897 72.5219L361.039 72.2137C362.756 71.7453 364.477 71.2629 366.194 70.7633L366.797 70.5812C368.344 70.1268 369.907 69.6537 371.466 69.1712L372.635 68.8086C374.344 68.2702 376.025 67.7317 377.694 67.1792L378.432 66.9318C379.94 66.4291 381.426 65.9233 382.903 65.4098L383.977 65.0378C385.636 64.4558 387.265 63.8722 388.881 63.2823L389.769 62.9524C391.192 62.4295 392.599 61.9019 393.995 61.3697L394.995 60.99C396.572 60.3861 398.142 59.7699 399.701 59.1505L400.641 58.7739C401.999 58.2307 403.348 57.6829 404.683 57.1336L405.559 56.7756C407.021 56.1687 408.452 55.568 409.87 54.9641L410.807 54.5626C411.973 54.0631 413.135 53.5588 414.284 53.0562L415.294 52.6126C416.672 52.0057 418.04 51.3972 419.385 50.7887L419.983 50.5163C421.169 49.9779 422.322 49.4503 423.459 48.9227L424.477 48.4512C425.766 47.852 427.05 47.2498 428.307 46.6521L433.001 44.3893C434.093 43.8571 436.61 42.6121 436.61 42.6121C437.708 42.0658 438.841 41.4963 439.957 40.9298L444.069 38.8257C445.111 38.2857 447.782 36.8835 447.782 36.8835C448.593 36.4555 450.778 35.2899 450.778 35.2899C451.671 34.8106 453.89 33.606 453.89 33.606L456.531 32.154L459.238 30.6429L463.18 28.3957C463.997 27.9241 464.736 27.493 465.397 27.1055L488.573 40.0067L484.911 42.0236C484.071 42.4811 481.74 43.7324 481.74 43.7324C480.997 44.1308 478.817 45.2839 478.817 45.2839C477.829 45.8053 475.504 47.0114 475.504 47.0114L471.864 48.8742C470.784 49.4205 469.689 49.9714 468.564 50.5301C468.564 50.5301 466.186 51.7066 465.125 52.2233L464.184 52.6824C463.041 53.2364 461.9 53.7874 460.736 54.3398L460.593 54.4099C459.357 54.9966 458.113 55.5802 456.858 56.1638L455.89 56.612C454.781 57.1271 453.687 57.6282 452.58 58.1278L451.936 58.4235C450.624 59.0164 449.317 59.5984 447.994 60.1805L447.009 60.6116C445.876 61.1096 444.771 61.5873 443.655 62.0651L442.712 62.4697C441.355 63.0502 439.981 63.626 438.594 64.2003L437.718 64.5598C436.426 65.092 435.142 65.6134 433.847 66.1316L432.896 66.5113C431.423 67.098 429.916 67.6863 428.397 68.2699L427.418 68.6419C426.082 69.1523 424.746 69.6519 423.4 70.1468L422.519 70.4736C420.963 71.0432 419.407 71.5988 417.843 72.1466L416.771 72.5185C415.364 73.0072 413.954 73.4881 412.537 73.9612L411.803 74.207C410.202 74.7362 408.602 75.2497 406.994 75.754L405.849 76.1104C404.37 76.5694 402.892 77.0161 401.407 77.4534L400.795 77.6355C399.21 78.0977 397.577 78.5537 395.943 79.0019L394.902 79.282C392.936 79.8111 391.016 80.3076 389.088 80.7838L388.316 80.9674C386.311 81.4546 384.322 81.9183 382.33 82.351L382.03 82.4148C380.105 82.8303 378.105 83.2302 376.105 83.6053L375.453 83.7298C373.464 84.0986 371.539 84.4223 369.613 84.7243L368.542 84.8892C367.365 85.0666 366.254 85.2238 365.143 85.3701L364.261 85.4899C362.837 85.672 361.444 85.8339 360.054 85.977L358.965 86.0813C357.942 86.1809 356.903 86.2743 355.865 86.3568L354.467 86.4595C353.498 86.5264 352.528 86.584 351.559 86.6322L350.718 86.6836L350.173 86.7023C349.668 86.724 349.142 86.7396 348.616 86.7536C348.616 86.7536 347.215 86.7972 346.65 86.8081C346.052 86.8174 345.449 86.819 344.842 86.8205L343.618 86.8252L343.142 86.8237Z" fill="url(#paint2_linear_32_2866)"/>
<path d="M74.3611 288.322L35.2527 266.163C35.804 460.64 84.8029 540.014 136.063 569.804L175.172 591.963C123.911 562.173 74.9124 482.799 74.3611 288.322Z" fill="url(#paint3_linear_32_2866)"/>
<path d="M108.074 543.753C106.127 539.339 90.091 517.817 74.063 476.839C54.9241 427.908 44.6047 361.767 43.3472 280.082L66.4155 292.921C67.0163 380.918 77.7482 452.184 98.3298 504.803C105.35 522.754 113.536 538.616 122.844 552.337L108.074 543.753Z" fill="url(#paint4_linear_32_2866)"/>
<path d="M498.298 43.6576C502.258 41.3716 504.335 40.0807 504.444 40.0127C505.573 438.353 301.378 589.687 290.631 597.652C279.874 602.102 75.4904 686.661 74.3611 288.321C74.4702 288.263 76.544 287.157 80.5078 284.869C108.888 268.484 228.395 194.549 289.161 78.9592C350.387 124.124 469.929 60.0366 498.298 43.6576Z" fill="url(#paint5_linear_32_2866)"/>
<path d="M236.608 600.146C196.648 600.147 163.568 582.151 138.29 546.657C101.979 495.674 83.1657 410.346 82.3517 292.996C82.9945 292.63 83.7088 292.222 84.4932 291.769C118.015 272.416 230.217 201.657 292.061 90.3472C306.442 98.5954 323.961 102.769 344.284 102.771H344.294C359.783 102.771 415.679 99.1728 496.432 53.8872C493.012 422.707 311.489 571.983 286.679 590.659C278.889 593.787 260.151 600.146 236.608 600.146Z" fill="url(#paint6_linear_32_2866)"/>
<path d="M236.607 577.642C203.89 577.643 177.726 563.237 156.621 533.602C124.351 488.295 107.008 411.678 105.02 305.765C145.284 281.356 240.534 216.628 301.351 118.909C314.353 123.139 328.715 125.273 344.283 125.275C389.349 125.275 439.112 106.665 472.936 91.0444C469.891 159.887 460.182 224.932 443.981 284.854C428.477 342.19 406.96 395.206 380.028 442.428C360.06 477.441 337.463 508.773 312.865 535.552C295.822 554.106 282.318 565.515 275.568 570.815C268.294 573.454 254.005 577.642 236.608 577.642H236.607Z" fill="url(#paint7_linear_32_2866)"/>
<path d="M453.445 99.5569C449.366 159.377 440.139 216.132 425.869 268.91C410.366 326.246 388.849 379.262 361.917 426.484C341.948 461.497 319.352 492.829 294.754 519.608C277.711 538.162 264.207 549.571 257.457 554.871C250.183 557.51 235.894 561.698 218.497 561.698C199.04 561.698 181.9 556.602 166.764 546.24C185.962 567.339 208.941 577.643 236.607 577.642H236.608C254.005 577.642 268.294 573.454 275.568 570.815C282.318 565.515 295.822 554.106 312.865 535.552C337.463 508.773 360.06 477.441 380.028 442.428C406.96 395.206 428.477 342.19 443.981 284.854C460.182 224.932 469.891 159.887 472.936 91.0444C466.908 93.8279 460.367 96.7058 453.445 99.5569Z" fill="url(#paint8_linear_32_2866)"/>
<path d="M285.431 85.85C286.152 84.547 286.864 83.2374 287.57 81.924C287.827 81.445 288.094 80.9731 288.35 80.493C288.621 79.9825 288.891 79.4713 289.161 78.9593L250.052 56.8003C207.69 137.407 113.907 224.026 35.2527 266.162L74.3611 288.322C74.4701 288.264 76.5442 287.158 80.508 284.869C81.0153 284.576 81.56 284.26 82.1253 283.93C82.2907 283.833 82.4642 283.731 82.6342 283.632C83.0583 283.383 83.4948 283.127 83.9485 282.859C84.1578 282.735 84.3679 282.611 84.5834 282.483C85.0452 282.21 85.5226 281.925 86.0121 281.633C86.2171 281.51 86.4144 281.393 86.6241 281.268C87.3252 280.848 88.0469 280.413 88.8005 279.956C88.8838 279.905 88.9732 279.85 89.0573 279.799C89.7288 279.392 90.421 278.969 91.1318 278.533C91.3796 278.381 91.6345 278.224 91.887 278.068C92.4678 277.711 93.0596 277.345 93.665 276.969C93.9482 276.793 94.2315 276.617 94.5201 276.437C95.1637 276.036 95.822 275.623 96.4912 275.202C96.7351 275.048 96.972 274.9 97.2195 274.744C98.1353 274.166 99.071 273.572 100.032 272.958C100.197 272.853 100.37 272.741 100.536 272.634C101.335 272.123 102.147 271.6 102.976 271.064C103.3 270.854 103.629 270.64 103.957 270.426C104.667 269.965 105.385 269.496 106.114 269.018C106.462 268.79 106.809 268.563 107.161 268.33C107.972 267.797 108.796 267.251 109.629 266.696C109.894 266.52 110.152 266.35 110.419 266.172C111.515 265.441 112.628 264.692 113.761 263.926C114.008 263.759 114.261 263.586 114.51 263.417C115.404 262.811 116.306 262.196 117.221 261.568C117.61 261.301 118.004 261.029 118.398 260.758C119.211 260.198 120.031 259.63 120.859 259.054C121.265 258.772 121.67 258.49 122.08 258.204C123.048 257.527 124.027 256.838 125.015 256.14C125.272 255.958 125.523 255.782 125.781 255.599C127.021 254.721 128.276 253.824 129.545 252.911C129.876 252.673 130.213 252.428 130.546 252.187C131.5 251.498 132.461 250.801 133.43 250.093C133.871 249.771 134.315 249.446 134.758 249.12C135.676 248.447 136.599 247.765 137.528 247.076C137.952 246.762 138.374 246.449 138.8 246.131C139.966 245.263 141.14 244.381 142.324 243.487C142.503 243.351 142.68 243.219 142.859 243.083C144.218 242.055 145.59 241.007 146.97 239.945C147.358 239.646 147.751 239.34 148.142 239.038C149.15 238.259 150.163 237.472 151.182 236.675C151.658 236.303 152.134 235.928 152.612 235.553C153.607 234.77 154.608 233.978 155.612 233.178C156.051 232.829 156.489 232.482 156.929 232.13C158.311 231.024 159.699 229.906 161.096 228.77C161.144 228.731 161.192 228.693 161.24 228.654C162.68 227.483 164.128 226.291 165.581 225.088C166.024 224.721 166.469 224.348 166.913 223.978C167.947 223.117 168.983 222.249 170.024 221.372C170.525 220.949 171.027 220.524 171.53 220.098C172.588 219.199 173.65 218.291 174.715 217.375C175.147 217.003 175.578 216.635 176.012 216.26C177.498 214.975 178.989 213.677 180.483 212.36C180.606 212.251 180.729 212.141 180.851 212.033C182.219 210.825 183.591 209.603 184.965 208.368C185.434 207.946 185.904 207.519 186.375 207.094C187.429 206.141 188.483 205.181 189.54 204.213C190.048 203.746 190.556 203.28 191.065 202.81C192.166 201.793 193.268 200.766 194.371 199.733C194.791 199.339 195.211 198.949 195.631 198.553C197.137 197.133 198.643 195.7 200.15 194.249C200.384 194.024 200.617 193.795 200.851 193.569C202.125 192.337 203.4 191.095 204.674 189.842C204.854 189.665 205.033 189.493 205.212 189.316C205.401 189.13 205.59 188.935 205.779 188.748C207.898 186.651 210.014 184.53 212.126 182.373C212.329 182.166 212.531 181.955 212.734 181.747C214.892 179.536 217.046 177.296 219.191 175.021C219.275 174.932 219.36 174.845 219.443 174.756C221.585 172.482 223.717 170.169 225.841 167.833C226.12 167.526 226.399 167.223 226.677 166.916C228.713 164.666 230.735 162.385 232.748 160.079C232.94 159.859 233.134 159.648 233.325 159.429C233.449 159.287 233.568 159.139 233.691 158.997C236.375 155.904 239.037 152.763 241.67 149.571C241.805 149.407 241.941 149.247 242.075 149.083C244.815 145.754 247.522 142.37 250.193 138.934C250.251 138.86 250.31 138.79 250.368 138.716C250.516 138.525 250.659 138.327 250.807 138.136C252.711 135.676 254.598 133.191 256.462 130.677C256.574 130.527 256.686 130.38 256.797 130.229C258.676 127.688 260.527 125.113 262.36 122.518C262.538 122.265 262.724 122.02 262.902 121.767C263.025 121.591 263.144 121.411 263.267 121.235C264.764 119.099 266.245 116.947 267.707 114.775C267.986 114.361 268.26 113.941 268.538 113.525C269.785 111.658 271.018 109.777 272.239 107.884C272.451 107.555 272.67 107.233 272.881 106.903C273.019 106.688 273.151 106.468 273.289 106.253C275.866 102.21 278.378 98.1078 280.818 93.9471C280.952 93.7195 281.091 93.4971 281.224 93.2695C281.486 92.8201 281.738 92.363 281.998 91.9124C282.736 90.6367 283.468 89.3558 284.192 88.0688C284.607 87.3311 285.02 86.5916 285.431 85.85Z" fill="url(#paint9_linear_32_2866)"/>
<path d="M51.1782 266.202L54.0045 264.501L56.8835 262.739L60.0193 260.795L62.3849 259.311C63.2906 258.738 65.7028 257.2 65.7028 257.2L69.1874 254.95L72.8726 252.538L75.6459 250.698C76.8473 249.897 77.974 249.141 79.1179 248.366L83.8162 245.157L87.5388 242.573C88.5115 241.895 91.28 239.942 91.28 239.942C92.5359 239.051 93.8089 238.142 95.0928 237.218L100.362 233.387C101.293 232.703 104.451 230.364 104.451 230.364C105.635 229.479 108.593 227.252 108.593 227.252C109.93 226.242 111.32 225.179 112.719 224.103L118.415 219.668C119.439 218.864 122.321 216.573 122.321 216.573L122.783 216.205C124.196 215.074 125.602 213.943 127.015 212.794L127.251 212.6C128.616 211.492 130.084 210.284 131.556 209.065L132.817 208.015C133.948 207.073 135 206.191 136.055 205.301L137.576 204.014C138.645 203.108 139.719 202.19 140.794 201.265L142.123 200.121C143.626 198.822 145.133 197.51 146.646 196.175L146.918 195.935C148.401 194.625 149.788 193.389 151.177 192.143L152.609 190.846C153.681 189.877 154.749 188.906 155.818 187.925L157.354 186.514C158.478 185.476 159.592 184.436 160.709 183.39L161.995 182.186C163.515 180.752 165.041 179.302 166.567 177.831L167.305 177.114C168.57 175.894 169.863 174.635 171.154 173.363L172.283 172.244C174.425 170.125 176.569 167.975 178.708 165.792L179.329 165.154C181.523 162.905 183.706 160.633 185.88 158.328L186.117 158.079C188.308 155.752 190.473 153.406 192.628 151.032L193.494 150.085C195.545 147.819 197.601 145.5 199.646 143.156L200.615 142.042C203.353 138.887 206.079 135.667 208.703 132.49L209.125 131.982C211.942 128.555 214.718 125.085 217.376 121.667L217.992 120.863C219.939 118.349 221.86 115.819 223.758 113.26L224.077 112.832C226.007 110.223 227.89 107.602 229.756 104.961L230.696 103.632C232.21 101.472 233.717 99.2821 235.205 97.0706L236.062 95.7805C237.333 93.8772 238.588 91.9675 239.825 90.044L240.894 88.3867C242.189 86.3558 243.464 84.3279 244.718 82.2814L244.908 81.9966L244.983 81.8472C246.2 79.8536 247.396 77.8429 248.582 75.8198C248.985 75.135 249.385 74.4394 249.787 73.7437C250.543 72.4365 251.29 71.1292 252.028 69.8173C252.401 69.1543 252.775 68.4867 253.147 67.8159L278.475 81.9652C278.469 81.9745 277.244 84.1704 277.244 84.1704C276.54 85.4185 275.823 86.6744 275.099 87.9257L274.344 89.2485L273.952 89.9037C271.598 93.9204 269.115 97.976 266.571 101.969L266.163 102.618L265.541 103.566C264.344 105.426 263.133 107.272 261.911 109.102L261.096 110.327C259.663 112.454 258.211 114.566 256.743 116.661L256.373 117.201L255.862 117.906C254.051 120.47 252.235 122.998 250.39 125.494L250.056 125.939C248.23 128.403 246.374 130.844 244.503 133.264L244.077 133.826L243.884 134.067C241.324 137.362 238.639 140.719 235.922 144.023L235.534 144.486C233.01 147.546 230.369 150.666 227.672 153.777L226.745 154.84C224.764 157.109 222.772 159.357 220.769 161.571L219.93 162.491C217.855 164.774 215.754 167.051 213.644 169.29L213.454 169.491C211.28 171.796 209.159 174.003 207.033 176.178L206.448 176.782C204.35 178.927 202.265 181.017 200.176 183.083L199.088 184.159C197.829 185.397 196.572 186.624 195.314 187.838L194.631 188.501C193.136 189.942 191.648 191.358 190.162 192.76L188.912 193.93C187.837 194.937 186.749 195.95 185.662 196.953L184.153 198.341C183.112 199.295 180.354 201.796 180.354 201.796L179.634 202.446C178.283 203.662 176.93 204.866 175.581 206.057L175.243 206.357C173.737 207.686 172.266 208.965 170.8 210.234L169.519 211.333C168.467 212.24 167.418 213.136 166.374 214.022L164.882 215.285C163.859 216.148 160.499 218.95 160.499 218.95C159.063 220.139 157.633 221.316 156.21 222.474L156.066 222.591C154.688 223.711 153.317 224.814 151.954 225.905C151.954 225.905 148.666 228.518 147.684 229.292L146.277 230.395C145.267 231.186 142.117 233.624 142.117 233.624C140.744 234.681 139.39 235.714 138.049 236.731C138.049 236.731 135.187 238.886 134.035 239.747L128.725 243.661C127.771 244.358 124.897 246.44 124.897 246.44C123.641 247.343 122.399 248.231 121.173 249.1C121.173 249.1 118.468 251.006 117.514 251.674L112.705 255.004C111.813 255.616 109.283 257.336 109.283 257.336C108.176 258.084 105.218 260.061 105.218 260.061L101.729 262.365L98.6597 264.365L95.7573 266.234C94.7939 266.849 92.2526 268.455 92.2526 268.455L88.9175 270.537L86.952 271.75L84.7468 273.096C83.9267 273.594 81.9191 274.797 81.9191 274.797L78.1312 277.036L76.5267 277.967C75.7625 278.409 75.0699 278.804 74.449 279.157L51.1782 266.202Z" fill="url(#paint10_linear_32_2866)"/>
<path d="M409.463 300.44L409.471 300.427L398.316 293.945L398.106 293.829C397.932 293.736 397.753 293.651 397.567 293.573C397.335 293.476 397.104 293.394 396.78 293.301L396.53 293.236L396.469 293.225C396.361 293.2 396.249 293.178 396.124 293.156C395.901 293.118 395.672 293.092 395.356 293.071C395.242 293.065 395.124 293.061 395.041 293.061C395.041 293.061 393.372 293.049 393.372 293.049L382.623 270.322C382.03 269.069 381.112 268.067 379.953 267.397L379.956 267.393L368.656 260.828C368.461 260.722 368.265 260.627 368.06 260.541L367.965 260.499L367.715 260.411C367.612 260.373 367.509 260.339 367.404 260.307L367.211 260.246L366.776 260.149L366.62 260.123C366.465 260.097 366.305 260.076 366.143 260.06L365.935 260.032C365.935 260.032 365.202 260.032 365.168 260.035L364.948 260.046C364.948 260.046 364.746 260.068 364.696 260.073L364.223 260.134C364.223 260.134 363.924 260.2 363.866 260.213C363.755 260.236 363.656 260.259 363.598 260.276L363.288 260.36L363.151 260.413C363.056 260.444 362.96 260.477 362.864 260.512C362.781 260.54 362.528 260.638 362.528 260.638L362.233 260.773C361.967 260.894 361.726 261.02 361.507 261.148L347.791 269.066C346.974 268.032 346.112 267.063 345.215 266.146L363.584 238.913C364.404 237.695 365.024 236.327 365.375 234.955L377.117 188.963C378.091 185.159 376.857 181.612 374.041 179.978L374.044 179.972L363.01 173.561L362.873 173.47L362.675 173.371C362.496 173.276 362.325 173.193 362.2 173.143L361.96 173.041L361.603 172.917L361.429 172.867C361.268 172.821 361.105 172.78 360.938 172.745L360.657 172.677L360.319 172.649C360.212 172.637 360.104 172.626 359.996 172.62L359.776 172.608L359.25 172.612C359.003 172.624 358.749 172.648 358.522 172.682L358.271 172.723C358.051 172.763 357.83 172.812 357.62 172.871C357.443 172.919 357.263 172.979 357.098 173.039C357.042 173.057 356.821 173.132 356.821 173.132L356.653 173.202C356.299 173.347 355.943 173.523 355.604 173.719C355.237 173.929 354.88 174.17 354.517 174.449C354.398 174.54 354.281 174.637 354.177 174.729C354.004 174.874 353.833 175.021 353.686 175.158L353.463 175.367C353.3 175.529 353.139 175.698 352.981 175.873L351.657 177.194V177.629C351.608 177.707 351.444 177.974 351.444 177.974L351.412 178.034C351.334 178.17 351.257 178.308 351.167 178.476C351.094 178.617 350.845 179.117 350.845 179.117L350.822 179.179C350.791 179.247 350.757 179.322 350.718 179.412C350.652 179.565 350.589 179.72 350.529 179.875L350.341 180.399C350.274 180.6 350.213 180.801 350.16 180.992C350.131 181.098 338.889 225.131 338.889 225.131L323.984 247.225C323.034 243.301 321.152 240.108 318.43 237.878L319.343 235.38C319.841 234.017 320.324 232.61 320.779 231.194C321.484 228.993 322.143 226.62 322.798 223.911C323.926 219.122 324.671 214.366 325.015 209.773C325.358 205.137 325.297 200.677 324.828 196.449L324.806 196.271C324.506 194.187 323.373 192.463 321.676 191.479L321.682 191.47L310.528 184.987L310.344 184.885C310.171 184.793 309.997 184.71 309.818 184.634C309.591 184.54 309.354 184.455 309.117 184.389C309.039 184.367 308.641 184.26 308.641 184.26L308.41 184.232C308.209 184.198 308.005 184.175 307.784 184.16C307.647 184.151 307.508 184.146 307.368 184.146L307.19 184.148C307.19 184.148 306.924 184.162 306.843 184.169L306.501 184.203L306.359 184.225C306.102 184.264 305.838 184.318 305.549 184.398C305.424 184.433 305.295 184.474 305.163 184.522L304.862 184.622L304.68 184.697C304.366 184.827 304.05 184.982 303.72 185.172C303.409 185.351 303.103 185.555 302.826 185.765C302.48 186.024 302.144 186.314 301.799 186.653L301.657 186.796L301.62 186.839C301.496 186.967 301.373 187.099 301.244 187.247C301.197 187.302 301.15 187.358 301.104 187.414L300.938 187.579L300.771 187.831C300.771 187.831 300.611 188.05 300.54 188.153C300.449 188.285 300.358 188.418 300.293 188.522L300.03 188.949C300.03 188.949 299.873 189.228 299.835 189.302C299.759 189.44 299.687 189.582 299.618 189.723L299.425 190.146C299.363 190.287 299.306 190.429 299.258 190.551C299.239 190.599 299.221 190.649 299.203 190.697L299.095 190.917L299.013 191.244L298.962 191.399L298.952 191.452C298.939 191.495 298.927 191.539 298.914 191.582C298.861 191.777 298.813 191.971 298.772 192.165C298.772 192.165 298.715 192.465 298.714 192.475C298.684 192.63 298.657 192.789 298.635 192.957C298.611 193.142 298.598 193.323 298.59 193.499C298.581 193.614 298.573 193.728 298.569 193.876C298.557 194.37 298.582 194.823 298.645 195.256C299.095 198.351 299.24 201.703 299.077 205.228C299.037 206.11 298.977 207.004 298.898 207.9C298.886 208.035 298.766 209.121 298.766 209.121C298.714 209.628 298.663 210.135 298.595 210.655C298.525 211.189 298.439 211.729 298.353 212.27C298.353 212.27 298.194 213.34 298.168 213.491C298.004 214.449 297.819 215.412 297.604 216.431L297.573 216.57C297.43 217.227 297.278 217.888 297.118 218.552L297.018 218.97C296.852 219.648 296.676 220.328 296.485 221.02C296.377 221.416 296.265 221.812 296.151 222.2C295.856 223.188 295.545 224.182 295.211 225.179L294.129 228.406C293.987 228.434 293.85 228.457 293.702 228.488L293.271 228.591C293.05 228.642 292.829 228.694 292.592 228.759L292.466 228.795C292.047 228.913 291.623 229.044 291.199 229.189C291.099 229.223 290.997 229.261 290.908 229.296C290.576 229.414 290.24 229.539 289.903 229.677L289.811 229.711C289.811 229.711 289.61 229.794 289.551 229.82C289.537 229.616 289.525 229.411 289.514 229.206C289.332 225.847 289.464 222.293 289.9 218.667L289.931 218.397C290.2 215.474 288.99 212.93 286.751 211.638L286.756 211.629L275.67 205.187L275.315 204.974L275.152 204.91C275.071 204.871 274.995 204.837 274.926 204.809C274.691 204.708 274.448 204.621 274.194 204.55L274.097 204.521L273.751 204.438L273.572 204.406C273.349 204.366 273.117 204.338 272.835 204.319L272.596 204.311L272.17 204.314C271.927 204.325 271.676 204.348 271.423 204.389C271.283 204.411 271.14 204.439 270.994 204.473L270.82 204.507L270.637 204.557C270.349 204.637 270.05 204.739 269.74 204.867L269.558 204.946C269.293 205.065 269.03 205.198 268.807 205.328C268.445 205.537 268.096 205.774 267.739 206.054C267.617 206.15 267.496 206.254 267.375 206.363C267.225 206.49 267.076 206.621 266.931 206.762L266.814 206.875L266.656 207.049C266.543 207.164 266.435 207.281 266.344 207.386C266.26 207.484 266.177 207.583 266.095 207.685L266.059 207.722L265.963 207.851C265.85 207.996 265.739 208.146 265.645 208.28C265.548 208.418 265.453 208.559 265.409 208.629L265.318 208.768L265.122 209.093C265.039 209.235 264.958 209.381 264.92 209.453C264.895 209.501 264.869 209.549 264.844 209.599L264.777 209.706C264.777 209.706 264.554 210.196 264.514 210.288C264.448 210.439 264.385 210.59 264.327 210.744C264.304 210.802 264.156 211.217 264.156 211.217C264.096 211.398 264.041 211.575 264.003 211.719C263.972 211.83 263.944 211.94 263.915 212.067L263.846 212.36C263.794 212.608 263.751 212.855 263.719 213.103C263.703 213.22 263.691 213.336 263.681 213.447C263.25 218.088 263.217 222.584 263.585 226.818C263.969 231.158 264.777 235.202 265.999 238.871C266.698 240.923 267.427 242.673 268.238 244.24C268.728 245.177 269.265 246.105 269.835 247L270.467 247.994L270.542 248.038C270.268 248.514 270.002 248.994 269.751 249.463C269.751 249.463 269.578 249.786 269.526 249.891C269.298 250.328 269.076 250.765 268.853 251.219L268.732 251.459L268.649 251.637C268.39 252.178 268.141 252.721 267.902 253.267L267.773 253.574C267.553 254.084 267.345 254.595 267.149 255.097L267.043 255.359L266.969 255.563C266.75 256.14 266.54 256.718 266.342 257.307L266.253 257.577C266.045 258.207 265.855 258.836 265.687 259.428C265.659 259.517 265.633 259.606 265.608 259.695C265.589 259.763 265.571 259.832 265.554 259.901C265.363 260.603 265.192 261.302 265.04 262C265.016 262.094 264.994 262.187 264.976 262.274L264.924 262.544C264.862 262.841 264.806 263.136 264.747 263.455C264.71 263.658 264.674 263.86 264.645 264.036C264.592 264.347 264.548 264.655 264.495 265.017C264.474 265.149 264.453 265.281 264.434 265.441L264.418 265.592C264.339 266.221 264.28 266.849 264.231 267.512L264.209 267.894C264.169 268.572 264.144 269.247 264.145 269.913C264.146 270.263 264.156 270.607 264.171 270.947C264.185 271.265 264.205 271.577 264.227 271.886L264.405 274.443L265.032 274.807C264.65 275.229 264.275 275.652 263.908 276.073L263.743 276.256L263.641 276.377C263.002 277.113 262.37 277.864 261.736 278.633L261.236 279.247C260.747 279.85 260.26 280.459 259.786 281.067L259.45 281.489L259.243 281.763C258.802 282.335 258.366 282.913 257.935 283.492L257.541 284.019C256.987 284.773 256.439 285.534 255.901 286.298L255.438 286.967C255.072 287.494 254.709 288.023 254.351 288.553L253.781 289.412C253.461 289.895 253.141 290.382 252.836 290.855L252.76 290.972L247.991 289.43L238.388 263.496C237.822 261.969 236.817 260.756 235.475 259.978L224.444 253.565L224.379 253.521L224.18 253.413C224.003 253.317 223.823 253.228 223.636 253.148L223.44 253.059L223.246 252.997C223.236 252.993 223.098 252.942 223.098 252.942L222.868 252.87L222.215 252.71L222.012 252.684C221.805 252.653 221.594 252.631 221.382 252.619L221.246 252.611L220.694 252.614L220.468 252.626L220.253 252.65C220.12 252.661 219.988 252.677 219.885 252.694L219.662 252.732C219.662 252.732 219.189 252.836 219.106 252.858L218.716 252.977C218.606 253.012 218.495 253.05 218.383 253.092C218.286 253.124 218.191 253.16 218.094 253.2L217.857 253.294L217.738 253.36C217.502 253.467 217.265 253.589 217.027 253.726C216.318 254.136 215.638 254.652 215.006 255.261L214.883 255.38C214.667 255.595 214.457 255.818 214.293 256.008C214.189 256.126 214.088 256.248 213.967 256.399L213.783 256.615L213.707 256.73C213.623 256.841 213.537 256.96 213.441 257.094C213.333 257.248 213.228 257.406 213.174 257.494C213.122 257.572 212.906 257.924 212.863 257.999C212.773 258.153 212.686 258.308 212.604 258.463C212.527 258.61 212.451 258.758 212.379 258.906C212.379 258.906 212.184 259.328 212.153 259.4C212.083 259.565 212.014 259.73 211.948 259.902C211.93 259.949 211.913 259.996 211.895 260.043L211.787 260.261L211.738 260.461L211.7 260.555L211.666 260.726C211.638 260.82 211.609 260.917 211.58 261.022C211.518 261.248 211.462 261.473 211.415 261.697L211.363 261.978C211.325 262.177 211.29 262.379 211.262 262.595C211.241 262.769 211.227 262.939 211.216 263.112L211.195 263.404C211.175 263.86 211.19 264.33 211.248 264.874L211.285 265.134C211.371 265.708 211.499 266.222 211.68 266.714L223.641 299.022C224.204 300.54 225.209 301.754 226.549 302.534L237.703 309.017L237.705 309.013C238.114 309.252 238.545 309.444 238.974 309.581L242.195 310.623C242.109 310.816 241.706 311.723 241.706 311.723L241.5 312.214C241.255 312.783 241.016 313.353 240.776 313.93L240.384 314.882C240.119 315.535 239.86 316.189 239.608 316.839L239.365 317.452L237.8 321.54L238.916 322.188L237.31 323.115L236.738 324.889C236.464 325.738 236.201 326.589 235.944 327.438L235.703 328.256C235.53 328.841 235.359 329.428 235.183 330.053L235.076 330.422L234.982 330.781C234.664 331.939 234.357 333.099 234.071 334.257C234.071 334.257 233.842 335.211 233.756 335.576L233.176 335.239L211.627 347.68C211.271 347.886 210.921 348.121 210.533 348.418C210.432 348.496 210.331 348.581 210.237 348.661C210.066 348.803 209.897 348.948 209.734 349.1L209.639 349.18L209.498 349.318C209.391 349.424 209.286 349.537 209.148 349.688C209.109 349.728 208.898 349.949 208.898 349.949L208.797 350.073C208.672 350.221 208.551 350.369 208.439 350.512C208.439 350.512 208.099 350.968 208.064 351.02C207.955 351.174 207.848 351.334 207.792 351.423C207.74 351.501 207.69 351.579 207.664 351.625L211.761 354.196L207.597 351.734L207.475 351.936C207.388 352.085 207.304 352.234 207.222 352.384L207.156 352.518L207.127 352.566L206.998 352.824C206.998 352.824 206.834 353.173 206.776 353.307L206.561 353.829C206.491 354.01 206.426 354.192 206.348 354.429L191.701 402.893L179.595 416.992C179.46 417.149 179.33 417.309 179.17 417.512C179.051 417.669 178.933 417.83 178.871 417.92C178.803 418.011 178.74 418.104 178.707 418.156L178.511 418.449C178.416 418.599 178.323 418.753 178.246 418.884C178.152 419.043 178.063 419.203 177.982 419.356C177.96 419.398 177.745 419.823 177.745 419.823C177.666 419.989 177.589 420.156 177.55 420.251C177.471 420.428 177.398 420.604 177.33 420.782C177.33 420.782 177.193 421.158 177.13 421.34C177.07 421.524 177.015 421.707 176.944 421.96L176.811 422.492L176.786 422.611C176.726 422.897 176.679 423.178 176.653 423.377L176.611 423.691C176.611 423.691 176.594 423.995 176.593 424.052C176.567 424.399 176.56 424.74 176.572 425.066C176.578 425.248 176.591 425.424 176.608 425.604C176.642 425.955 176.699 426.302 176.774 426.626C176.817 426.835 176.869 427.041 176.913 427.176C177.097 427.783 177.332 428.322 177.625 428.808C178.206 429.778 179.019 430.584 179.967 431.134L191.121 437.617L191.124 437.613C192.122 438.193 193.273 438.5 194.459 438.5C195.785 438.5 197.155 438.114 198.419 437.384C199.427 436.801 200.368 436.008 201.226 435.014L212.038 422.422L202.172 455.081L190.061 469.186C189.927 469.342 189.797 469.5 189.65 469.689C189.526 469.852 189.404 470.015 189.286 470.186L188.986 470.635C188.892 470.781 188.801 470.929 188.717 471.071C188.624 471.23 188.535 471.392 188.426 471.597L188.218 472.011C188.145 472.161 188.076 472.312 187.998 472.489C187.929 472.65 187.863 472.811 187.787 473.01C187.787 473.01 187.652 473.383 187.598 473.541C187.538 473.724 187.483 473.905 187.42 474.132L187.262 474.774C187.2 475.067 187.151 475.356 187.124 475.569L187.082 475.881C187.082 475.881 187.066 476.185 187.061 476.266C187.038 476.603 187.032 476.935 187.043 477.255C187.05 477.435 187.062 477.611 187.076 477.763C187.11 478.135 187.171 478.502 187.246 478.815C187.289 479.023 187.341 479.229 187.384 479.363C187.568 479.974 187.805 480.511 188.1 481.002C188.381 481.469 188.715 481.899 189.078 482.266C189.482 482.677 189.94 483.032 190.44 483.323L201.594 489.805L201.597 489.801C202.596 490.382 203.746 490.687 204.93 490.687C206.256 490.687 207.626 490.301 208.89 489.571C209.897 488.989 210.839 488.194 211.697 487.2L225.591 471.019C226.75 469.664 227.631 468.059 228.142 466.375L242.045 420.352L257.215 411.594L262.283 414.54L262.288 414.531C267.226 417.397 272.751 418.85 278.714 418.85C283.215 418.85 287.867 418.019 292.611 416.373V416.744L297.404 414.446C298.091 414.132 298.779 413.802 299.47 413.455L300.142 413.111C301.134 412.598 302.012 412.119 302.822 411.651C303.705 411.142 304.627 410.58 305.565 409.981L307.799 408.551V408.495C322.907 398.08 336.519 380.889 346.029 360.317L348.038 359.158L352.883 361.971V356.36L354.21 355.595L361.834 371.706C362.117 372.313 362.48 372.869 362.902 373.342C363.363 373.866 363.9 374.308 364.507 374.662L375.661 381.144L375.664 381.14C376.648 381.71 377.773 382.017 378.942 382.031L392.92 382.141C394.276 382.141 395.613 381.766 396.894 381.026C399.183 379.704 401.127 377.27 402.097 374.51C403.579 370.275 402.435 366.303 399.322 364.526L399.328 364.517L388.016 357.945C387.818 357.838 387.62 357.743 387.451 357.673C387.241 357.584 387.021 357.505 386.797 357.436L386.438 357.336L386.315 357.311C386.212 357.287 386.117 357.268 386.041 357.256C385.791 357.21 385.534 357.178 385.269 357.163C385.171 357.157 385.062 357.153 384.897 357.149L383.23 357.137L372.481 334.41C371.889 333.157 370.972 332.155 369.815 331.485L369.818 331.48L358.779 325.066L358.727 325.032L358.553 324.936C358.37 324.835 358.181 324.741 357.984 324.656L357.757 324.553L357.547 324.488C357.542 324.486 357.37 324.424 357.37 324.424L357.227 324.383C358.227 318.266 358.723 312.301 358.707 306.57C358.696 302.626 358.439 298.831 357.942 295.207L364.348 291.508L371.986 307.654C372.577 308.896 373.498 309.906 374.649 310.576L385.802 317.058L385.806 317.052C386.789 317.624 387.914 317.932 389.079 317.945L403.057 318.056C404.394 318.056 405.768 317.671 407.029 316.943C409.318 315.621 411.264 313.186 412.231 310.43C413.698 306.26 412.529 302.213 409.463 300.44ZM222.115 399.858C222.066 399.886 222.02 399.925 221.972 399.954L230.943 370.254C231.718 378.295 233.63 385.467 236.538 391.53L222.115 399.858Z" fill="url(#paint11_linear_32_2866)"/>
<path d="M396.897 368.699L385.743 362.217C385.737 362.214 385.731 362.21 385.725 362.207C385.67 362.176 385.613 362.148 385.554 362.123C385.496 362.099 385.436 362.078 385.374 362.06C385.364 362.057 385.353 362.055 385.343 362.053C385.334 362.05 385.323 362.048 385.313 362.046C385.27 362.035 385.227 362.023 385.181 362.015C385.113 362.003 385.043 361.995 384.971 361.991C384.935 361.989 384.898 361.987 384.86 361.987L372.038 361.888L383.192 368.37L396.014 368.469C396.175 368.47 396.325 368.492 396.467 368.528C396.477 368.53 396.488 368.532 396.497 368.535C396.64 368.573 396.774 368.628 396.897 368.699Z" fill="url(#paint12_linear_32_2866)"/>
<path d="M377.372 376.144L362.687 345.114L355.861 341.147L364.943 335.904C365.088 335.82 365.232 335.751 365.374 335.69C365.418 335.67 365.462 335.653 365.506 335.636C365.588 335.605 365.668 335.577 365.748 335.553C365.798 335.538 365.848 335.523 365.897 335.511C365.945 335.499 365.993 335.489 366.041 335.48C366.101 335.469 366.161 335.459 366.22 335.452C366.255 335.448 366.289 335.444 366.324 335.442C366.394 335.436 366.464 335.435 366.532 335.436C366.554 335.437 366.575 335.436 366.596 335.437C366.683 335.441 366.768 335.452 366.851 335.467C366.87 335.471 366.888 335.476 366.906 335.48C366.973 335.495 367.038 335.513 367.102 335.535C367.121 335.542 367.14 335.548 367.159 335.556C367.238 335.586 367.315 335.621 367.387 335.663L356.233 329.181C356.227 329.178 356.221 329.174 356.215 329.171C356.16 329.14 356.102 329.112 356.043 329.087C356.031 329.082 356.018 329.079 356.006 329.074C355.987 329.066 355.967 329.06 355.947 329.053C355.919 329.043 355.892 329.032 355.863 329.024C355.827 329.013 355.789 329.006 355.752 328.998C355.734 328.994 355.716 328.989 355.697 328.985C355.688 328.984 355.68 328.981 355.671 328.979C355.603 328.967 355.534 328.959 355.464 328.955C355.457 328.954 355.449 328.955 355.442 328.955C355.421 328.954 355.4 328.955 355.378 328.954C355.331 328.953 355.284 328.951 355.236 328.953C355.214 328.954 355.192 328.958 355.17 328.959C355.135 328.962 355.101 328.966 355.065 328.97C355.037 328.973 355.009 328.974 354.981 328.978C354.95 328.983 354.919 328.992 354.888 328.998C354.84 329.007 354.791 329.017 354.742 329.029C354.719 329.035 354.697 329.037 354.674 329.044C354.648 329.051 354.621 329.063 354.595 329.071C354.514 329.095 354.434 329.123 354.352 329.154C354.324 329.165 354.298 329.171 354.271 329.182C354.254 329.189 354.237 329.2 354.22 329.208C354.078 329.269 353.935 329.338 353.789 329.422L340.672 336.995C340.347 337.964 340.01 338.931 339.665 339.896C339.557 340.197 339.446 340.496 339.336 340.796C339.09 341.47 338.841 342.143 338.585 342.814C338.468 343.122 338.349 343.43 338.23 343.738C337.795 344.858 337.352 345.976 336.891 347.085L348.045 353.567C348.506 352.457 348.95 351.339 349.384 350.218C349.439 350.078 349.498 349.939 349.552 349.799C349.616 349.632 349.676 349.464 349.739 349.297C349.994 348.627 350.243 347.955 350.488 347.283C350.599 346.98 350.711 346.679 350.819 346.376C351.162 345.417 351.497 344.457 351.82 343.494C351.822 343.488 351.824 343.483 351.826 343.477L353.397 342.57L366.218 369.662C366.303 369.845 366.407 370.005 366.528 370.142C366.648 370.278 366.786 370.391 366.938 370.48L378.092 376.962C377.788 376.785 377.542 376.51 377.372 376.144Z" fill="url(#paint13_linear_32_2866)"/>
<path d="M407.04 304.61L407.036 304.608C407.037 304.609 407.039 304.609 407.04 304.61L395.886 298.128C395.88 298.125 395.873 298.121 395.867 298.118C395.813 298.087 395.756 298.059 395.698 298.035C395.64 298.01 395.58 297.989 395.519 297.971C395.508 297.968 395.497 297.967 395.486 297.964C395.476 297.961 395.466 297.96 395.456 297.957C395.413 297.946 395.371 297.935 395.327 297.927C395.26 297.916 395.19 297.907 395.119 297.903C395.08 297.901 395.041 297.899 395.001 297.899L382.18 297.8L393.334 304.282L406.155 304.381C406.316 304.382 406.467 304.403 406.609 304.439C406.62 304.441 406.63 304.443 406.64 304.446C406.783 304.484 406.917 304.539 407.04 304.61Z" fill="url(#paint14_linear_32_2866)"/>
<path d="M224.519 404.056C224.331 404.164 224.147 404.291 223.966 404.43C223.907 404.475 223.851 404.527 223.792 404.575C223.672 404.675 223.552 404.777 223.436 404.889C223.414 404.91 223.389 404.927 223.367 404.95C223.294 405.022 223.225 405.1 223.154 405.177C223.112 405.222 223.069 405.265 223.028 405.312C223.015 405.325 223.002 405.337 222.99 405.351C222.896 405.46 222.803 405.572 222.714 405.688C222.693 405.715 222.673 405.743 222.653 405.771C222.632 405.798 222.612 405.825 222.592 405.853C222.556 405.902 222.519 405.95 222.484 406C222.416 406.097 222.349 406.196 222.285 406.296C222.273 406.316 222.261 406.336 222.249 406.355C222.237 406.375 222.225 406.395 222.212 406.416C222.177 406.472 222.142 406.529 222.108 406.586C222.052 406.681 221.999 406.777 221.947 406.874C221.932 406.902 221.919 406.931 221.904 406.959C221.893 406.981 221.882 407.003 221.871 407.026C221.847 407.072 221.823 407.118 221.8 407.165C221.753 407.263 221.707 407.362 221.664 407.462C221.646 407.504 221.63 407.547 221.612 407.589C221.602 407.613 221.592 407.638 221.582 407.662C221.568 407.698 221.552 407.734 221.538 407.77C221.496 407.878 221.457 407.987 221.421 408.096C221.4 408.159 221.38 408.221 221.361 408.284L206.508 457.457L193.733 472.334C193.648 472.433 193.566 472.534 193.486 472.637C193.407 472.739 193.331 472.843 193.257 472.948C193.227 472.991 193.199 473.035 193.169 473.079C193.157 473.097 193.145 473.114 193.133 473.132C193.109 473.169 193.083 473.205 193.06 473.242C192.999 473.337 192.94 473.433 192.884 473.53C192.829 473.625 192.775 473.72 192.724 473.817C192.709 473.846 192.694 473.876 192.679 473.905C192.671 473.921 192.664 473.936 192.656 473.952C192.629 474.004 192.602 474.055 192.577 474.107C192.53 474.206 192.484 474.305 192.441 474.404C192.397 474.507 192.355 474.609 192.315 474.712C192.309 474.727 192.305 474.742 192.299 474.757C192.294 474.77 192.29 474.784 192.285 474.797C192.255 474.878 192.225 474.958 192.198 475.038C192.159 475.157 192.123 475.275 192.09 475.392C192.074 475.451 192.062 475.509 192.047 475.568C192.039 475.599 192.031 475.63 192.024 475.661C192.014 475.705 192.001 475.749 191.992 475.792C191.958 475.954 191.93 476.115 191.909 476.273C191.905 476.305 191.907 476.335 191.903 476.367C191.894 476.444 191.893 476.518 191.887 476.594C191.876 476.762 191.872 476.926 191.878 477.085C191.881 477.166 191.886 477.244 191.894 477.322C191.909 477.477 191.935 477.624 191.968 477.767C191.983 477.832 191.994 477.899 192.013 477.961C192.073 478.158 192.147 478.344 192.247 478.51C192.33 478.649 192.425 478.771 192.53 478.876C192.634 478.981 192.748 479.069 192.871 479.14L204.025 485.622C203.78 485.48 203.568 485.27 203.401 484.992C203.301 484.826 203.227 484.64 203.167 484.443C203.148 484.381 203.137 484.314 203.122 484.249C203.089 484.106 203.062 483.959 203.048 483.804C203.04 483.726 203.035 483.647 203.032 483.567C203.026 483.408 203.03 483.244 203.041 483.076C203.046 483 203.048 482.926 203.057 482.848C203.083 482.618 203.122 482.383 203.178 482.144C203.185 482.112 203.193 482.081 203.201 482.05C203.265 481.795 203.343 481.537 203.439 481.279C203.444 481.266 203.448 481.252 203.453 481.239C203.555 480.969 203.674 480.7 203.81 480.434C203.817 480.418 203.825 480.403 203.833 480.387C203.969 480.125 204.121 479.866 204.287 479.615C204.299 479.597 204.311 479.578 204.324 479.56C204.497 479.303 204.684 479.053 204.887 478.816L217.662 463.939L232.515 414.766C232.579 414.556 232.654 414.349 232.736 414.143C232.746 414.119 232.756 414.095 232.766 414.072C232.845 413.88 232.931 413.692 233.025 413.507C233.036 413.485 233.047 413.463 233.058 413.442C233.154 413.256 233.257 413.074 233.367 412.897C233.379 412.877 233.39 412.857 233.403 412.838C233.511 412.665 233.626 412.498 233.745 412.336C233.766 412.308 233.786 412.28 233.807 412.252C233.927 412.093 234.052 411.94 234.181 411.793C234.223 411.747 234.266 411.703 234.308 411.658C234.4 411.559 234.494 411.463 234.59 411.371C234.706 411.259 234.826 411.157 234.947 411.057C235.004 411.009 235.061 410.957 235.12 410.912C235.301 410.773 235.485 410.646 235.673 410.538L248.79 402.964L237.636 396.482L224.519 404.056Z" fill="url(#paint15_linear_32_2866)"/>
<path d="M246.539 368.55C246.537 367.576 246.555 366.597 246.583 365.615C246.59 365.371 246.597 365.128 246.606 364.884C246.641 363.905 246.686 362.923 246.75 361.938C246.753 361.901 246.756 361.865 246.759 361.829C246.822 360.871 246.904 359.909 246.995 358.945C247.018 358.7 247.042 358.454 247.067 358.209C247.167 357.218 247.278 356.226 247.406 355.231C247.437 354.995 247.473 354.759 247.505 354.523C247.577 353.995 247.648 353.466 247.728 352.936C247.772 352.638 247.823 352.34 247.87 352.042C247.945 351.571 248.018 351.1 248.099 350.628C248.153 350.308 248.214 349.987 248.271 349.667C248.352 349.217 248.432 348.767 248.518 348.316C248.582 347.982 248.651 347.647 248.718 347.313C248.805 346.877 248.891 346.442 248.983 346.007C249.028 345.795 249.076 345.583 249.122 345.371C249.357 344.284 249.606 343.198 249.871 342.112C249.889 342.042 249.904 341.971 249.921 341.901C250.198 340.78 250.494 339.661 250.801 338.543C250.869 338.299 250.935 338.054 251.003 337.811C251.163 337.242 251.328 336.675 251.496 336.108C251.573 335.847 251.648 335.585 251.727 335.324C251.976 334.499 252.231 333.676 252.497 332.855L345.525 279.145C345.712 279.937 345.891 280.737 346.052 281.556C346.17 282.154 346.281 282.759 346.385 283.372L357.539 289.854C357.331 288.629 357.095 287.433 356.833 286.266C356.57 285.099 356.28 283.962 355.964 282.855L363.538 278.482L376.355 305.577C376.528 305.942 376.775 306.216 377.079 306.393L388.233 312.875C387.929 312.698 387.682 312.423 387.509 312.059L372.829 281.026L366.002 277.059L375.08 271.819C375.225 271.735 375.369 271.666 375.511 271.604C375.556 271.585 375.6 271.568 375.644 271.551C375.726 271.519 375.807 271.491 375.887 271.467C375.937 271.452 375.986 271.437 376.035 271.425C376.084 271.413 376.133 271.403 376.181 271.394C376.241 271.383 376.301 271.373 376.359 271.366C376.394 271.362 376.429 271.358 376.464 271.356C376.535 271.35 376.605 271.349 376.673 271.35C376.695 271.351 376.716 271.35 376.737 271.351C376.825 271.355 376.91 271.366 376.993 271.381C377.012 271.385 377.029 271.39 377.047 271.394C377.114 271.409 377.18 271.427 377.243 271.449C377.263 271.456 377.283 271.462 377.302 271.47C377.381 271.501 377.458 271.536 377.53 271.578L377.525 271.575C377.527 271.576 377.529 271.577 377.53 271.578L366.376 265.096C366.37 265.092 366.364 265.089 366.358 265.085C366.302 265.054 366.245 265.026 366.186 265.002C366.174 264.996 366.161 264.993 366.148 264.988C366.129 264.98 366.109 264.974 366.09 264.967C366.062 264.958 366.034 264.946 366.006 264.938C365.969 264.927 365.931 264.92 365.894 264.912C365.875 264.908 365.857 264.903 365.839 264.899C365.83 264.898 365.822 264.895 365.813 264.893C365.745 264.882 365.676 264.873 365.605 264.869C365.598 264.868 365.59 264.869 365.583 264.869C365.562 264.868 365.54 264.869 365.519 264.868C365.472 264.867 365.425 264.865 365.376 264.867C365.354 264.868 365.332 264.872 365.31 264.874C365.275 264.876 365.241 264.88 365.206 264.884C365.177 264.887 365.149 264.888 365.12 264.892C365.089 264.897 365.057 264.907 365.027 264.912C364.978 264.921 364.93 264.931 364.881 264.944C364.858 264.949 364.835 264.952 364.812 264.958C364.787 264.965 364.76 264.977 364.734 264.985C364.653 265.009 364.572 265.037 364.489 265.069C364.462 265.08 364.436 265.086 364.408 265.097C364.391 265.104 364.374 265.115 364.357 265.122C364.215 265.184 364.072 265.252 363.926 265.337L344.985 276.272L336.58 271.388L259.125 316.106C259.214 315.917 259.302 315.728 259.392 315.539C259.526 315.258 259.657 314.975 259.793 314.695C260.081 314.1 260.375 313.51 260.67 312.92C260.772 312.719 260.87 312.515 260.972 312.314C261.371 311.527 261.777 310.745 262.19 309.967C262.295 309.769 262.403 309.574 262.509 309.377C262.819 308.802 263.129 308.227 263.446 307.657C263.603 307.374 263.763 307.094 263.922 306.813C264.193 306.333 264.465 305.853 264.741 305.377C264.917 305.073 265.096 304.773 265.274 304.471C265.543 304.015 265.813 303.56 266.087 303.109C266.275 302.799 266.465 302.49 266.655 302.181C266.926 301.742 267.2 301.304 267.475 300.869C267.666 300.567 267.858 300.266 268.051 299.965C268.353 299.497 268.659 299.031 268.966 298.568C269.149 298.291 269.331 298.014 269.516 297.74C269.861 297.227 270.21 296.72 270.561 296.214C270.71 296 270.857 295.783 271.007 295.57C271.529 294.827 272.058 294.092 272.593 293.365C272.716 293.198 272.842 293.034 272.965 292.868C273.382 292.307 273.802 291.75 274.227 291.2C274.399 290.977 274.573 290.756 274.746 290.535C275.208 289.944 275.674 289.359 276.144 288.781C276.306 288.581 276.468 288.38 276.631 288.183C277.241 287.442 277.857 286.711 278.479 285.993C278.547 285.915 278.615 285.84 278.683 285.763C279.443 284.892 280.214 284.039 280.992 283.202C281.098 283.088 281.203 282.972 281.31 282.859C282.099 282.018 282.899 281.199 283.705 280.397C283.892 280.211 284.078 280.026 284.265 279.842C284.648 279.468 285.033 279.099 285.419 278.733C285.635 278.529 285.85 278.324 286.066 278.122C286.517 277.703 286.971 277.293 287.427 276.886C287.578 276.751 287.728 276.612 287.88 276.478C288.488 275.943 289.1 275.42 289.715 274.907C289.861 274.786 290.008 274.671 290.154 274.551C290.627 274.163 291.1 273.78 291.577 273.406C291.798 273.232 292.022 273.064 292.244 272.893C292.652 272.58 293.061 272.27 293.471 271.968C293.712 271.791 293.954 271.616 294.196 271.442C294.599 271.152 295.004 270.868 295.41 270.588C295.649 270.424 295.888 270.258 296.128 270.097C296.564 269.805 297.002 269.522 297.441 269.241C297.648 269.108 297.855 268.972 298.064 268.842C298.709 268.439 299.357 268.046 300.009 267.67C300.518 267.376 301.026 267.095 301.532 266.821C301.682 266.74 301.832 266.662 301.982 266.582C302.353 266.385 302.723 266.194 303.093 266.008C303.246 265.931 303.398 265.854 303.551 265.779C304.012 265.552 304.471 265.333 304.929 265.123C304.969 265.104 305.01 265.084 305.05 265.066C305.548 264.839 306.043 264.625 306.537 264.419C306.701 264.35 306.865 264.284 307.029 264.218C307.308 264.104 307.588 263.993 307.866 263.885C308.043 263.817 308.219 263.751 308.395 263.685C308.667 263.584 308.938 263.486 309.208 263.392C309.384 263.33 309.56 263.268 309.735 263.209C310.011 263.116 310.285 263.028 310.56 262.941C310.724 262.889 310.888 262.836 311.052 262.786C311.358 262.693 311.662 262.606 311.966 262.521C312.09 262.487 312.214 262.449 312.338 262.416C312.994 262.239 313.645 262.084 314.292 261.943C314.385 261.923 314.479 261.901 314.572 261.882C315.2 261.75 315.822 261.637 316.439 261.54C316.551 261.522 316.662 261.505 316.774 261.489C317.319 261.408 317.861 261.338 318.398 261.284C318.472 261.276 318.546 261.271 318.62 261.264C319.119 261.217 319.613 261.182 320.104 261.158C320.198 261.153 320.291 261.147 320.384 261.143C320.881 261.122 321.374 261.114 321.863 261.116C321.971 261.117 322.078 261.12 322.186 261.122C322.613 261.128 323.039 261.143 323.461 261.168C323.547 261.173 323.634 261.175 323.721 261.181C324.186 261.212 324.647 261.254 325.104 261.306C325.212 261.318 325.319 261.333 325.426 261.346C325.808 261.394 326.188 261.449 326.564 261.512C326.663 261.529 326.762 261.543 326.861 261.561C327.305 261.639 327.745 261.728 328.181 261.827C328.275 261.849 328.367 261.873 328.46 261.895C328.823 261.982 329.183 262.075 329.54 262.176C329.646 262.206 329.752 262.235 329.857 262.266C330.286 262.393 330.712 262.529 331.133 262.676C331.205 262.702 331.276 262.73 331.348 262.756C331.71 262.886 332.068 263.024 332.422 263.169C332.526 263.212 332.63 263.254 332.733 263.298C333.153 263.476 333.568 263.663 333.978 263.862C334.043 263.894 334.106 263.928 334.171 263.96C334.533 264.14 334.89 264.328 335.243 264.524C335.402 264.612 335.562 264.697 335.719 264.788L324.565 258.306C324.464 258.248 324.362 258.189 324.26 258.132C324.204 258.101 324.146 258.074 324.09 258.042C323.736 257.846 323.378 257.657 323.016 257.478C322.952 257.446 322.889 257.412 322.825 257.381C322.415 257.181 321.999 256.994 321.579 256.816C321.536 256.798 321.495 256.776 321.453 256.759C321.392 256.733 321.33 256.713 321.269 256.688C320.914 256.542 320.556 256.404 320.194 256.274C320.122 256.248 320.051 256.22 319.979 256.194C319.558 256.047 319.133 255.911 318.704 255.784C318.664 255.772 318.625 255.758 318.585 255.746C318.519 255.727 318.451 255.713 318.385 255.694C318.029 255.593 317.669 255.5 317.307 255.413C317.213 255.391 317.121 255.367 317.027 255.345C316.591 255.246 316.151 255.157 315.707 255.079C315.674 255.073 315.643 255.065 315.611 255.059C315.545 255.048 315.477 255.041 315.41 255.03C315.034 254.967 314.654 254.912 314.272 254.865C314.165 254.851 314.058 254.836 313.95 254.824C313.493 254.772 313.032 254.73 312.567 254.699C312.541 254.697 312.516 254.694 312.49 254.692C312.43 254.688 312.367 254.689 312.307 254.686C311.885 254.661 311.46 254.646 311.032 254.64C310.924 254.638 310.817 254.635 310.709 254.634C310.22 254.632 309.727 254.64 309.23 254.661C309.198 254.662 309.167 254.661 309.135 254.662C309.074 254.665 309.011 254.673 308.95 254.676C308.46 254.7 307.966 254.735 307.469 254.782C307.394 254.789 307.319 254.794 307.243 254.802C306.706 254.856 306.164 254.926 305.62 255.007C305.563 255.015 305.507 255.019 305.45 255.028C305.396 255.036 305.34 255.05 305.285 255.058C304.668 255.156 304.046 255.268 303.418 255.4C303.325 255.419 303.231 255.441 303.138 255.461C302.491 255.602 301.84 255.757 301.184 255.934C301.168 255.938 301.152 255.941 301.135 255.946C301.028 255.975 300.92 256.009 300.813 256.039C300.508 256.124 300.204 256.211 299.898 256.304C299.734 256.353 299.57 256.407 299.406 256.459C299.131 256.546 298.857 256.634 298.581 256.727C298.406 256.787 298.23 256.848 298.054 256.91C297.784 257.005 297.514 257.102 297.243 257.203C297.066 257.269 296.888 257.336 296.71 257.404C296.433 257.511 296.156 257.621 295.879 257.734C295.761 257.782 295.643 257.826 295.525 257.875C295.477 257.894 295.429 257.918 295.381 257.938C294.889 258.144 294.395 258.357 293.898 258.583C293.854 258.603 293.809 258.626 293.764 258.646C293.311 258.854 292.855 259.072 292.398 259.297C292.245 259.372 292.091 259.45 291.938 259.527C291.569 259.713 291.199 259.904 290.828 260.1C290.678 260.18 290.528 260.258 290.378 260.339C289.872 260.613 289.364 260.894 288.855 261.188C288.203 261.564 287.555 261.957 286.91 262.36C286.702 262.489 286.495 262.626 286.288 262.758C285.848 263.039 285.41 263.323 284.974 263.616C284.734 263.777 284.496 263.941 284.257 264.106C283.85 264.386 283.445 264.67 283.042 264.96C282.8 265.134 282.558 265.309 282.317 265.486C282.194 265.577 282.069 265.664 281.946 265.756C281.967 265.692 281.983 265.629 282.004 265.566C282.021 265.516 282.035 265.466 282.052 265.415C282.237 264.863 282.437 264.312 282.645 263.763C282.698 263.624 282.751 263.486 282.805 263.348C282.986 262.886 283.174 262.425 283.37 261.966C283.403 261.891 283.433 261.814 283.466 261.739C283.689 261.226 283.924 260.717 284.166 260.21C284.229 260.079 284.293 259.948 284.357 259.818C284.555 259.414 284.758 259.013 284.967 258.615C285.031 258.493 285.093 258.371 285.158 258.25C285.425 257.751 285.7 257.257 285.983 256.768C286.036 256.677 286.092 256.587 286.146 256.496C286.397 256.07 286.656 255.647 286.92 255.229C286.996 255.108 287.073 254.986 287.15 254.865C287.478 254.357 287.812 253.855 288.157 253.362C288.21 253.286 288.266 253.211 288.319 253.135C288.681 252.624 289.051 252.122 289.43 251.629C289.478 251.567 289.524 251.504 289.572 251.442C290.048 250.83 290.539 250.234 291.041 249.654C291.104 249.58 291.167 249.505 291.231 249.432C291.878 248.692 292.545 247.981 293.23 247.301C293.304 247.228 293.38 247.157 293.454 247.085C293.9 246.649 294.353 246.225 294.813 245.818C294.851 245.784 294.889 245.748 294.927 245.715C295.402 245.297 295.886 244.9 296.375 244.516C296.468 244.443 296.56 244.369 296.654 244.298C297.134 243.928 297.62 243.574 298.112 243.238C298.2 243.178 298.288 243.121 298.376 243.063C298.891 242.719 299.41 242.388 299.936 242.085C300.357 241.841 300.775 241.621 301.19 241.411C301.309 241.351 301.428 241.294 301.547 241.236C301.862 241.084 302.175 240.941 302.486 240.807C302.599 240.759 302.712 240.708 302.824 240.662C303.112 240.544 303.398 240.437 303.682 240.336C303.76 240.308 303.839 240.275 303.917 240.248C304.277 240.125 304.634 240.016 304.987 239.919C305.204 239.859 305.419 239.808 305.634 239.758C305.72 239.738 305.808 239.714 305.894 239.695C306.197 239.63 306.497 239.574 306.793 239.529C306.818 239.525 306.843 239.523 306.868 239.519C307.125 239.482 307.379 239.451 307.63 239.428C307.721 239.419 307.81 239.415 307.901 239.408C308.061 239.397 308.22 239.389 308.379 239.383C308.769 239.369 309.154 239.37 309.531 239.392C309.594 239.396 309.656 239.404 309.718 239.409C310.025 239.432 310.326 239.468 310.623 239.515C310.715 239.529 310.808 239.543 310.899 239.56C311.237 239.623 311.57 239.696 311.893 239.79C311.904 239.793 311.914 239.797 311.925 239.8C312.236 239.891 312.537 240.001 312.833 240.121C312.918 240.155 313.003 240.192 313.087 240.229C313.337 240.338 313.582 240.458 313.821 240.588C313.9 240.63 313.982 240.668 314.059 240.713L302.905 234.231C302.869 234.21 302.832 234.189 302.796 234.169C302.755 234.145 302.709 234.128 302.667 234.106C302.428 233.976 302.183 233.856 301.932 233.746C301.886 233.726 301.843 233.7 301.796 233.68C301.758 233.664 301.717 233.654 301.679 233.639C301.383 233.519 301.082 233.409 300.771 233.318C300.762 233.315 300.754 233.311 300.744 233.309C300.743 233.308 300.741 233.308 300.739 233.308C300.416 233.214 300.083 233.141 299.745 233.078C299.705 233.071 299.667 233.058 299.627 233.051C299.575 233.042 299.521 233.041 299.469 233.033C299.172 232.986 298.871 232.95 298.564 232.927C298.517 232.923 298.473 232.914 298.425 232.911C298.409 232.91 298.393 232.911 298.377 232.91C298 232.888 297.615 232.887 297.225 232.901C297.186 232.902 297.149 232.898 297.109 232.9C296.99 232.905 296.867 232.918 296.746 232.926C296.656 232.933 296.567 232.938 296.476 232.946C296.225 232.969 295.971 233 295.714 233.037C295.689 233.041 295.664 233.043 295.639 233.047C295.635 233.048 295.632 233.048 295.629 233.048C295.336 233.094 295.039 233.149 294.74 233.213C294.654 233.232 294.566 233.256 294.48 233.277C294.282 233.323 294.084 233.367 293.883 233.421C293.867 233.426 293.85 233.432 293.833 233.437C293.48 233.534 293.123 233.643 292.763 233.766C292.685 233.793 292.606 233.826 292.528 233.853C292.244 233.955 291.958 234.062 291.67 234.18C291.63 234.197 291.59 234.209 291.55 234.226C291.478 234.256 291.404 234.294 291.332 234.325C291.021 234.459 290.708 234.602 290.393 234.754C290.274 234.812 290.155 234.869 290.036 234.929C289.621 235.139 289.203 235.359 288.782 235.603C288.256 235.906 287.738 236.237 287.222 236.58C287.134 236.639 287.046 236.696 286.958 236.756C286.466 237.092 285.98 237.446 285.5 237.815C285.406 237.887 285.314 237.961 285.221 238.034C284.732 238.418 284.248 238.815 283.773 239.233C283.735 239.267 283.697 239.302 283.659 239.336C283.199 239.743 282.746 240.167 282.3 240.603C282.255 240.647 282.207 240.687 282.162 240.731C282.133 240.76 282.105 240.791 282.076 240.819C281.759 241.134 281.446 241.454 281.137 241.782C280.37 239.009 279.837 236.029 279.558 232.874C279.216 228.938 279.245 224.75 279.651 220.377C279.67 220.172 279.706 219.965 279.753 219.757C279.758 219.735 279.764 219.713 279.769 219.691C279.815 219.498 279.873 219.304 279.941 219.113C279.947 219.095 279.953 219.078 279.96 219.061C280.034 218.859 280.118 218.658 280.214 218.462C280.218 218.454 280.222 218.447 280.226 218.439C280.322 218.245 280.427 218.055 280.541 217.871C280.549 217.86 280.556 217.848 280.563 217.836C280.681 217.648 280.808 217.466 280.942 217.294C280.947 217.287 280.953 217.281 280.958 217.275C281.077 217.123 281.203 216.982 281.332 216.846C281.359 216.817 281.386 216.788 281.413 216.76C281.515 216.657 281.622 216.566 281.729 216.474C281.78 216.43 281.83 216.381 281.882 216.34C282.041 216.215 282.203 216.102 282.369 216.006C282.474 215.945 282.581 215.89 282.688 215.843C282.842 215.775 282.99 215.726 283.133 215.691C283.153 215.686 283.173 215.682 283.192 215.678C283.324 215.649 283.452 215.632 283.575 215.629C283.586 215.629 283.598 215.63 283.61 215.63C283.734 215.63 283.853 215.644 283.966 215.671C283.975 215.673 283.984 215.675 283.993 215.677C284.112 215.708 284.224 215.753 284.327 215.812L273.173 209.331C273.168 209.328 273.164 209.325 273.159 209.322C273.114 209.297 273.068 209.275 273.02 209.255C272.974 209.235 272.925 209.218 272.876 209.203C272.864 209.2 272.851 209.198 272.839 209.195C272.83 209.193 272.821 209.191 272.811 209.189C272.782 209.182 272.752 209.173 272.722 209.168C272.668 209.159 272.613 209.152 272.557 209.149C272.524 209.147 272.49 209.148 272.456 209.148C272.444 209.148 272.432 209.147 272.42 209.148C272.406 209.148 272.392 209.146 272.377 209.147C272.31 209.15 272.242 209.157 272.173 209.167C272.129 209.174 272.083 209.186 272.039 209.196C272.019 209.2 271.999 209.204 271.979 209.209C271.962 209.213 271.945 209.215 271.928 209.22C271.821 209.249 271.712 209.286 271.601 209.332C271.579 209.342 271.557 209.351 271.535 209.361C271.427 209.409 271.32 209.463 271.215 209.524C271.049 209.62 270.887 209.733 270.728 209.857C270.675 209.899 270.626 209.949 270.574 209.993C270.483 210.071 270.391 210.145 270.303 210.231C270.288 210.246 270.274 210.263 270.259 210.278C270.232 210.306 270.205 210.335 270.178 210.364C270.119 210.426 270.058 210.487 270.001 210.553C269.934 210.63 269.869 210.71 269.805 210.792C269.799 210.799 269.793 210.805 269.788 210.812C269.785 210.816 269.782 210.819 269.779 210.823C269.716 210.904 269.655 210.987 269.595 211.072C269.54 211.15 269.487 211.23 269.436 211.31C269.426 211.325 269.418 211.339 269.409 211.354C269.402 211.365 269.395 211.377 269.387 211.389C269.356 211.44 269.324 211.491 269.293 211.543C269.249 211.619 269.206 211.696 269.165 211.774C269.132 211.834 269.102 211.896 269.072 211.957C269.068 211.965 269.064 211.972 269.06 211.98C269.056 211.989 269.051 211.998 269.046 212.007C269.009 212.085 268.973 212.164 268.938 212.244C268.903 212.325 268.869 212.407 268.838 212.489C268.826 212.519 268.816 212.549 268.805 212.579C268.799 212.596 268.793 212.613 268.787 212.63C268.773 212.669 268.758 212.708 268.745 212.748C268.714 212.841 268.686 212.934 268.66 213.027C268.643 213.088 268.629 213.149 268.615 213.209C268.61 213.231 268.604 213.253 268.599 213.275C268.594 213.298 268.587 213.32 268.582 213.342C268.554 213.474 268.531 213.607 268.515 213.739C268.508 213.791 268.502 213.843 268.497 213.895C268.091 218.269 268.062 222.456 268.404 226.392C268.751 230.321 269.474 233.994 270.579 237.311C271.14 238.959 271.77 240.54 272.524 241.997C272.959 242.83 273.426 243.633 273.916 244.402L277.348 246.397C277.287 246.483 277.226 246.568 277.165 246.653C277.129 246.705 277.09 246.754 277.053 246.805C277.036 246.83 277.02 246.855 277.003 246.88C276.658 247.374 276.324 247.875 275.996 248.383C275.965 248.431 275.932 248.477 275.901 248.526C275.855 248.598 275.812 248.674 275.766 248.747C275.502 249.165 275.244 249.586 274.993 250.012C274.954 250.079 274.911 250.143 274.872 250.21C274.857 250.236 274.844 250.262 274.829 250.287C274.545 250.776 274.271 251.269 274.005 251.766C273.983 251.807 273.959 251.847 273.937 251.888C273.894 251.97 273.855 252.054 273.812 252.136C273.603 252.533 273.401 252.932 273.205 253.333C273.164 253.416 273.119 253.498 273.079 253.581C273.055 253.63 273.035 253.68 273.011 253.729C272.769 254.236 272.535 254.745 272.312 255.258C272.304 255.275 272.296 255.292 272.288 255.309C272.263 255.366 272.242 255.424 272.218 255.482C272.02 255.941 271.832 256.403 271.652 256.866C271.622 256.942 271.587 257.018 271.558 257.094C271.534 257.156 271.515 257.219 271.491 257.281C271.282 257.83 271.083 258.382 270.898 258.934C270.894 258.947 270.889 258.959 270.885 258.971C270.873 259.008 270.863 259.045 270.851 259.081C270.664 259.648 270.492 260.216 270.331 260.783C270.311 260.854 270.286 260.925 270.266 260.996C270.256 261.034 270.249 261.072 270.239 261.109C270.057 261.773 269.896 262.435 269.752 263.096C269.739 263.155 269.721 263.215 269.708 263.274C269.69 263.358 269.677 263.442 269.66 263.526C269.606 263.785 269.557 264.044 269.51 264.302C269.477 264.482 269.444 264.663 269.414 264.842C269.37 265.11 269.331 265.377 269.293 265.644C269.275 265.77 269.252 265.897 269.236 266.022C269.232 266.054 269.231 266.085 269.227 266.117C269.155 266.687 269.1 267.254 269.06 267.817C269.051 267.938 269.045 268.058 269.038 268.178C269.004 268.755 268.981 269.329 268.983 269.896C268.984 270.179 268.991 270.457 269.004 270.732C269.016 271.007 269.033 271.279 269.052 271.548L272.758 273.702C272.689 273.771 272.622 273.845 272.553 273.914C271.745 274.717 270.945 275.536 270.155 276.378C270.049 276.49 269.945 276.605 269.84 276.718C269.06 277.556 268.289 278.411 267.527 279.284C267.48 279.337 267.431 279.387 267.384 279.441C267.365 279.464 267.346 279.487 267.326 279.51C266.703 280.228 266.087 280.96 265.477 281.7C265.313 281.899 265.152 282.1 264.989 282.3C264.52 282.878 264.054 283.461 263.593 284.051C263.49 284.183 263.383 284.31 263.281 284.443C263.211 284.533 263.143 284.627 263.072 284.718C262.649 285.267 262.23 285.823 261.813 286.383C261.689 286.551 261.563 286.715 261.439 286.884C260.903 287.611 260.375 288.346 259.852 289.09C259.826 289.126 259.799 289.161 259.774 289.198C259.651 289.373 259.533 289.552 259.411 289.727C259.059 290.235 258.708 290.744 258.361 291.258C258.177 291.532 257.996 291.808 257.813 292.083C257.505 292.549 257.199 293.015 256.896 293.486C256.809 293.621 256.72 293.752 256.634 293.886C256.529 294.051 256.427 294.219 256.323 294.384C256.046 294.821 255.771 295.261 255.499 295.703C255.31 296.009 255.121 296.316 254.934 296.625C254.764 296.905 254.594 297.186 254.426 297.469L251.036 295.498L234.326 290.096L245.48 296.578L253.437 299.15C253.21 299.542 252.989 299.939 252.767 300.334C252.608 300.614 252.448 300.893 252.292 301.174C251.973 301.748 251.66 302.327 251.349 302.907C251.257 303.079 251.161 303.249 251.069 303.422C251.058 303.442 251.048 303.463 251.037 303.484C250.623 304.262 250.217 305.046 249.817 305.834C249.718 306.029 249.622 306.228 249.524 306.424C249.225 307.019 248.929 307.614 248.639 308.214C248.607 308.279 248.574 308.342 248.543 308.407C248.44 308.621 248.342 308.838 248.24 309.052C247.985 309.588 247.731 310.125 247.482 310.665C247.336 310.982 247.193 311.3 247.049 311.618C246.819 312.126 246.592 312.635 246.368 313.146C246.296 313.31 246.221 313.472 246.15 313.636C246.08 313.798 246.014 313.961 245.945 314.123C245.709 314.673 245.477 315.225 245.247 315.779C245.12 316.086 244.992 316.392 244.867 316.7C244.61 317.331 244.36 317.965 244.113 318.599C244.041 318.786 243.964 318.97 243.892 319.157C243.857 319.247 243.823 319.336 243.789 319.426L248.567 322.202L241.343 326.373C241.077 327.194 240.822 328.017 240.573 328.841C240.494 329.103 240.419 329.365 240.342 329.627C240.175 330.193 240.009 330.759 239.85 331.327C239.815 331.451 239.777 331.574 239.742 331.698C239.709 331.82 239.68 331.942 239.647 332.063C239.34 333.18 239.044 334.298 238.768 335.418C238.75 335.49 238.734 335.562 238.716 335.634C238.451 336.717 238.204 337.801 237.969 338.886C237.943 339.007 237.911 339.127 237.885 339.249C237.865 339.342 237.848 339.435 237.829 339.528C237.738 339.959 237.652 340.39 237.566 340.821C237.498 341.16 237.428 341.499 237.363 341.837C237.281 342.269 237.204 342.699 237.127 343.131L233.168 340.83L214.048 351.869C213.86 351.977 213.676 352.104 213.495 352.243C213.436 352.288 213.38 352.339 213.322 352.387C213.201 352.487 213.081 352.59 212.965 352.702C212.942 352.723 212.918 352.74 212.896 352.762C212.823 352.834 212.754 352.913 212.683 352.989C212.641 353.034 212.598 353.077 212.557 353.124C212.545 353.138 212.532 353.15 212.52 353.164C212.426 353.272 212.334 353.384 212.244 353.499C212.223 353.526 212.204 353.555 212.183 353.582C212.162 353.61 212.142 353.638 212.121 353.666C212.086 353.714 212.049 353.761 212.015 353.81C211.947 353.907 211.881 354.005 211.817 354.106C211.804 354.126 211.792 354.147 211.779 354.167C211.767 354.187 211.755 354.208 211.742 354.228C211.708 354.283 211.674 354.338 211.641 354.394C211.586 354.488 211.532 354.584 211.481 354.681C211.465 354.71 211.451 354.741 211.435 354.771C211.424 354.793 211.413 354.814 211.402 354.836C211.38 354.881 211.356 354.925 211.334 354.97C211.287 355.067 211.242 355.165 211.199 355.265C211.18 355.31 211.163 355.355 211.144 355.401C211.134 355.424 211.125 355.447 211.115 355.471C211.102 355.504 211.087 355.537 211.075 355.57C211.033 355.677 210.994 355.786 210.958 355.894C210.936 355.961 210.915 356.027 210.895 356.094L196.037 405.27L183.262 420.147C183.176 420.247 183.092 420.351 183.01 420.455C182.932 420.557 182.856 420.66 182.783 420.764C182.753 420.806 182.726 420.849 182.698 420.891C182.686 420.908 182.674 420.926 182.662 420.944C182.637 420.982 182.611 421.019 182.586 421.058C182.526 421.152 182.467 421.247 182.411 421.343C182.356 421.438 182.303 421.533 182.252 421.629C182.237 421.658 182.223 421.687 182.208 421.716C182.2 421.732 182.192 421.747 182.184 421.763C182.158 421.815 182.131 421.866 182.106 421.919C182.058 422.017 182.013 422.116 181.97 422.215C181.925 422.317 181.884 422.42 181.844 422.523C181.838 422.538 181.834 422.553 181.828 422.568C181.823 422.581 181.819 422.594 181.814 422.607C181.784 422.688 181.754 422.768 181.727 422.849C181.688 422.967 181.652 423.085 181.619 423.202C181.603 423.262 181.591 423.32 181.576 423.379C181.568 423.41 181.56 423.441 181.553 423.473C181.543 423.516 181.53 423.559 181.521 423.602C181.487 423.765 181.459 423.926 181.439 424.084C181.434 424.116 181.435 424.146 181.432 424.178C181.423 424.256 181.421 424.33 181.416 424.406C181.405 424.574 181.401 424.737 181.407 424.897C181.41 424.978 181.415 425.056 181.422 425.135C181.437 425.29 181.463 425.436 181.497 425.58C181.512 425.645 181.523 425.711 181.542 425.773C181.602 425.971 181.676 426.157 181.776 426.323C181.942 426.601 182.154 426.81 182.399 426.952L193.553 433.434C193.308 433.292 193.096 433.083 192.929 432.805C192.83 432.639 192.756 432.452 192.696 432.255C192.677 432.193 192.666 432.126 192.651 432.062C192.618 431.919 192.591 431.771 192.576 431.617C192.569 431.539 192.564 431.459 192.56 431.379C192.555 431.22 192.559 431.056 192.57 430.888C192.575 430.812 192.577 430.737 192.586 430.66C192.612 430.429 192.651 430.194 192.707 429.955C192.714 429.924 192.722 429.892 192.73 429.861C192.793 429.606 192.872 429.348 192.967 429.09C192.972 429.077 192.977 429.063 192.982 429.049C193.084 428.78 193.203 428.51 193.338 428.245C193.346 428.229 193.354 428.214 193.362 428.198C193.498 427.936 193.649 427.678 193.816 427.426C193.828 427.408 193.84 427.39 193.852 427.373C194.025 427.116 194.213 426.866 194.416 426.629L207.191 411.752L222.049 362.576C222.112 362.367 222.186 362.159 222.269 361.954C222.278 361.93 222.288 361.906 222.298 361.881C222.377 361.691 222.463 361.502 222.556 361.318C222.567 361.296 222.578 361.275 222.589 361.253C222.685 361.068 222.787 360.887 222.896 360.71C222.909 360.69 222.921 360.669 222.934 360.648C223.042 360.476 223.156 360.31 223.275 360.148C223.295 360.12 223.316 360.092 223.337 360.064C223.457 359.906 223.582 359.752 223.711 359.606C223.752 359.56 223.795 359.517 223.837 359.472C223.929 359.372 224.023 359.276 224.119 359.183C224.235 359.072 224.355 358.97 224.475 358.87C224.533 358.822 224.59 358.77 224.649 358.725C224.83 358.586 225.014 358.459 225.202 358.351L235.863 352.195C235.855 352.285 235.85 352.374 235.841 352.464C235.75 353.427 235.668 354.389 235.605 355.347C235.602 355.383 235.599 355.419 235.596 355.456C235.532 356.441 235.487 357.423 235.452 358.402C235.443 358.646 235.436 358.889 235.429 359.133C235.401 360.115 235.383 361.095 235.385 362.069C235.444 382.797 242.461 397.425 253.537 403.862L264.691 410.344C253.615 403.907 246.598 389.278 246.539 368.55Z" fill="url(#paint16_linear_32_2866)"/>
<path d="M331.473 254.852L342.627 261.334C341.506 260.449 340.336 259.653 339.12 258.947L337.912 258.245L354.523 233.622L365.934 188.921C365.992 188.694 366.063 188.47 366.143 188.248C366.151 188.225 366.159 188.202 366.168 188.179C366.249 187.961 366.339 187.746 366.439 187.535C366.443 187.528 366.446 187.52 366.45 187.512C366.554 187.296 366.668 187.084 366.789 186.879C366.798 186.863 366.807 186.848 366.817 186.833C366.932 186.641 367.055 186.454 367.184 186.274C367.2 186.25 367.218 186.228 367.235 186.204C367.368 186.023 367.505 185.848 367.648 185.683C367.653 185.678 367.658 185.673 367.663 185.667C367.796 185.515 367.935 185.374 368.076 185.238C368.193 185.124 368.314 185.022 368.436 184.921C368.495 184.872 368.552 184.817 368.611 184.771C368.794 184.631 368.98 184.503 369.168 184.395C369.344 184.293 369.522 184.209 369.699 184.139C369.738 184.124 369.775 184.114 369.813 184.1C369.976 184.042 370.138 183.992 370.299 183.963C370.42 183.942 370.537 183.931 370.651 183.928C370.671 183.927 370.69 183.928 370.71 183.928C370.803 183.928 370.894 183.933 370.982 183.945C370.997 183.947 371.013 183.948 371.028 183.95C371.123 183.966 371.215 183.989 371.303 184.018C371.321 184.024 371.339 184.031 371.356 184.037C371.446 184.07 371.533 184.108 371.614 184.155L371.61 184.153C371.611 184.153 371.613 184.154 371.614 184.155L360.46 177.673C360.454 177.67 360.448 177.666 360.442 177.663C360.387 177.632 360.33 177.604 360.271 177.579C360.248 177.57 360.225 177.563 360.202 177.555C360.185 177.548 360.167 177.542 360.149 177.536C360.129 177.53 360.111 177.521 360.091 177.516C360.029 177.498 359.965 177.483 359.9 177.472C359.891 177.47 359.882 177.47 359.874 177.469C359.859 177.466 359.843 177.465 359.828 177.463C359.783 177.457 359.739 177.45 359.693 177.447C359.648 177.445 359.602 177.446 359.556 177.446C359.536 177.446 359.517 177.445 359.497 177.446C359.486 177.446 359.475 177.445 359.464 177.445C359.379 177.449 359.292 177.458 359.203 177.472C359.184 177.474 359.165 177.478 359.145 177.481C359.063 177.496 358.98 177.514 358.897 177.537C358.818 177.558 358.739 177.59 358.659 177.618C358.621 177.632 358.583 177.642 358.545 177.657C358.528 177.664 358.512 177.667 358.495 177.675C358.334 177.741 358.174 177.821 358.015 177.912C357.826 178.021 357.641 178.149 357.458 178.289C357.397 178.336 357.34 178.391 357.28 178.44C357.159 178.541 357.039 178.642 356.922 178.755C356.905 178.771 356.887 178.784 356.87 178.801C356.747 178.922 356.627 179.051 356.509 179.185C356.505 179.191 356.499 179.196 356.494 179.201C356.494 179.202 356.493 179.203 356.492 179.204C356.396 179.314 356.303 179.427 356.212 179.545C356.167 179.602 356.125 179.663 356.081 179.722C356.064 179.746 356.046 179.768 356.03 179.792C356.015 179.813 355.999 179.832 355.985 179.853C355.917 179.95 355.85 180.048 355.786 180.149C355.744 180.215 355.703 180.284 355.663 180.352C355.653 180.367 355.644 180.381 355.635 180.397C355.627 180.411 355.618 180.424 355.61 180.438C355.555 180.532 355.502 180.628 355.45 180.725C355.399 180.82 355.351 180.916 355.304 181.013C355.301 181.019 355.299 181.025 355.296 181.03C355.292 181.038 355.289 181.046 355.285 181.053C355.245 181.137 355.206 181.222 355.169 181.308C355.125 181.409 355.083 181.511 355.043 181.614C355.033 181.642 355.024 181.67 355.014 181.697C355.005 181.72 354.997 181.743 354.989 181.766C354.968 181.824 354.946 181.882 354.926 181.94C354.887 182.058 354.851 182.177 354.817 182.297C354.804 182.344 354.792 182.391 354.78 182.438L343.369 227.14L326.74 251.79L328.756 252.963C329.687 253.544 330.599 254.163 331.473 254.852Z" fill="url(#paint17_linear_32_2866)"/>
<path d="M216.05 264.285C216.055 264.331 216.063 264.376 216.07 264.421C216.102 264.635 216.146 264.843 216.217 265.034L228.177 297.341C228.347 297.798 228.621 298.143 228.98 298.351L240.134 304.833C239.775 304.625 239.501 304.28 239.331 303.823L227.371 271.515C227.3 271.325 227.256 271.117 227.224 270.903C227.217 270.858 227.209 270.813 227.204 270.767C227.181 270.555 227.172 270.334 227.182 270.105C227.184 270.066 227.189 270.026 227.192 269.986C227.207 269.768 227.235 269.544 227.278 269.316C227.284 269.287 227.287 269.259 227.293 269.229C227.348 268.962 227.42 268.69 227.511 268.418C227.513 268.414 227.515 268.409 227.516 268.404C227.608 268.133 227.718 267.861 227.843 267.593C227.849 267.58 227.855 267.567 227.861 267.554C227.986 267.29 228.128 267.029 228.283 266.775C228.293 266.758 228.303 266.742 228.313 266.726C228.47 266.473 228.642 266.226 228.827 265.991C228.839 265.975 228.853 265.96 228.866 265.944C229.054 265.708 229.255 265.481 229.469 265.271C229.844 264.905 230.226 264.613 230.601 264.397C230.745 264.313 230.887 264.245 231.028 264.184C231.072 264.166 231.116 264.148 231.159 264.132C231.241 264.1 231.323 264.072 231.403 264.048C231.452 264.033 231.501 264.018 231.549 264.006C231.597 263.995 231.645 263.985 231.692 263.976C231.752 263.964 231.811 263.954 231.87 263.947C231.906 263.943 231.942 263.939 231.977 263.937C232.046 263.931 232.115 263.93 232.182 263.931C232.204 263.931 232.227 263.93 232.25 263.931C232.337 263.936 232.423 263.946 232.507 263.961C232.524 263.964 232.54 263.969 232.557 263.973C232.626 263.988 232.693 264.007 232.758 264.029C232.777 264.036 232.797 264.042 232.816 264.049C232.895 264.08 232.972 264.115 233.046 264.158L221.892 257.676C221.886 257.672 221.879 257.669 221.873 257.665C221.818 257.634 221.761 257.606 221.702 257.582C221.689 257.576 221.675 257.573 221.662 257.568C221.643 257.56 221.623 257.554 221.603 257.547C221.576 257.537 221.55 257.526 221.522 257.518C221.483 257.507 221.443 257.5 221.404 257.491C221.387 257.487 221.37 257.482 221.352 257.479C221.344 257.478 221.337 257.475 221.329 257.474C221.261 257.462 221.192 257.454 221.121 257.45C221.113 257.449 221.104 257.45 221.096 257.449C221.073 257.448 221.05 257.449 221.028 257.449C220.983 257.448 220.939 257.446 220.893 257.448C220.87 257.449 220.846 257.453 220.823 257.455C220.788 257.457 220.752 257.461 220.716 257.465C220.689 257.469 220.662 257.469 220.634 257.473C220.603 257.478 220.571 257.488 220.539 257.494C220.491 257.503 220.443 257.513 220.394 257.525C220.372 257.53 220.351 257.532 220.329 257.538C220.303 257.545 220.276 257.558 220.25 257.566C220.169 257.59 220.087 257.618 220.004 257.65C219.978 257.66 219.952 257.666 219.925 257.677C219.909 257.684 219.891 257.695 219.875 257.702C219.733 257.763 219.591 257.831 219.447 257.914C219.072 258.131 218.69 258.423 218.315 258.79C218.307 258.797 218.299 258.805 218.291 258.813C218.163 258.94 218.038 259.073 217.918 259.211C217.847 259.292 217.779 259.377 217.712 259.462C217.699 259.478 217.686 259.493 217.673 259.509C217.662 259.522 217.651 259.535 217.64 259.549C217.562 259.65 217.486 259.753 217.413 259.857C217.345 259.954 217.279 260.052 217.216 260.151C217.196 260.182 217.178 260.213 217.159 260.244C217.149 260.26 217.139 260.277 217.129 260.293C217.099 260.342 217.068 260.39 217.04 260.439C216.984 260.534 216.931 260.63 216.879 260.727C216.828 260.823 216.779 260.92 216.732 261.018C216.723 261.036 216.716 261.054 216.707 261.072C216.701 261.085 216.695 261.098 216.689 261.11C216.658 261.179 216.625 261.246 216.596 261.315C216.552 261.417 216.509 261.52 216.47 261.623C216.431 261.723 216.396 261.823 216.362 261.923C216.361 261.927 216.359 261.932 216.357 261.936C216.356 261.94 216.354 261.945 216.353 261.949C216.314 262.067 216.278 262.185 216.245 262.302C216.208 262.436 216.175 262.57 216.147 262.702C216.143 262.718 216.142 262.733 216.139 262.748C216.133 262.777 216.13 262.804 216.124 262.833C216.101 262.953 216.078 263.072 216.063 263.189C216.049 263.296 216.045 263.4 216.038 263.505C216.035 263.544 216.03 263.584 216.028 263.623C216.018 263.852 216.027 264.073 216.05 264.285Z" fill="url(#paint18_linear_32_2866)"/>
<path d="M310.986 233.096C311.324 232.082 311.641 231.07 311.941 230.063C312.051 229.69 312.158 229.317 312.262 228.945C312.277 228.89 312.289 228.835 312.305 228.779C312.504 228.055 312.692 227.332 312.869 226.61C312.906 226.458 312.942 226.306 312.978 226.154C313.144 225.463 313.303 224.774 313.452 224.088C313.46 224.049 313.471 224.008 313.479 223.969C313.486 223.934 313.494 223.9 313.501 223.865C313.719 222.835 313.915 221.81 314.089 220.792C314.147 220.454 314.189 220.121 314.242 219.785C314.348 219.108 314.459 218.43 314.546 217.761C314.548 217.75 314.55 217.739 314.551 217.729C314.637 217.07 314.698 216.422 314.765 215.771C314.798 215.453 314.842 215.13 314.87 214.814C314.956 213.841 315.021 212.877 315.064 211.926C315.242 208.091 315.079 204.437 314.587 201.042C314.56 200.861 314.554 200.67 314.559 200.475C314.561 200.415 314.567 200.354 314.572 200.293C314.583 200.136 314.599 199.976 314.629 199.813C314.634 199.785 314.638 199.756 314.643 199.728C314.686 199.515 314.742 199.3 314.813 199.086C314.814 199.083 314.814 199.081 314.814 199.081C314.888 198.859 314.976 198.641 315.075 198.426C315.081 198.413 315.086 198.4 315.092 198.388C315.191 198.178 315.302 197.972 315.423 197.771C315.431 197.757 315.44 197.744 315.448 197.73C315.573 197.527 315.708 197.329 315.854 197.141C315.858 197.137 315.861 197.133 315.865 197.129C316.006 196.949 316.156 196.779 316.314 196.62C316.327 196.606 316.34 196.591 316.353 196.577C316.522 196.41 316.698 196.255 316.882 196.117C317.022 196.011 317.162 195.919 317.299 195.839C317.47 195.741 317.636 195.668 317.8 195.609C317.831 195.598 317.862 195.587 317.893 195.577C318.047 195.528 318.198 195.493 318.343 195.479C318.356 195.477 318.37 195.476 318.383 195.475C318.539 195.462 318.688 195.469 318.828 195.496C318.835 195.498 318.842 195.499 318.849 195.501C318.992 195.531 319.127 195.581 319.25 195.652L308.096 189.17C308.091 189.167 308.086 189.164 308.081 189.162C308.037 189.136 307.991 189.114 307.943 189.094C307.896 189.074 307.848 189.057 307.798 189.043C307.764 189.033 307.73 189.026 307.695 189.019C307.688 189.017 307.681 189.016 307.674 189.014C307.664 189.012 307.654 189.009 307.643 189.007C307.589 188.998 307.534 188.991 307.477 188.988C307.417 188.984 307.357 188.983 307.295 188.986C307.273 188.987 307.251 188.991 307.229 188.993C307.216 188.994 307.202 188.995 307.189 188.997C307.156 189 307.123 189.001 307.089 189.006C307.009 189.019 306.928 189.036 306.844 189.059C306.81 189.068 306.774 189.084 306.739 189.095C306.708 189.105 306.678 189.116 306.646 189.127C306.607 189.141 306.568 189.151 306.528 189.167C306.403 189.219 306.275 189.283 306.145 189.357C306.008 189.437 305.868 189.529 305.728 189.635C305.55 189.768 305.38 189.916 305.216 190.077C305.21 190.083 305.205 190.09 305.199 190.096C305.186 190.109 305.174 190.123 305.16 190.137C305.077 190.222 304.993 190.308 304.914 190.399C304.844 190.479 304.777 190.562 304.711 190.647C304.707 190.651 304.704 190.655 304.7 190.659C304.698 190.662 304.696 190.665 304.694 190.667C304.632 190.748 304.571 190.83 304.513 190.913C304.458 190.991 304.406 191.069 304.354 191.149C304.334 191.182 304.315 191.215 304.294 191.248C304.286 191.262 304.277 191.275 304.269 191.289C304.25 191.32 304.231 191.35 304.213 191.381C304.169 191.457 304.126 191.534 304.085 191.611C304.044 191.688 304.004 191.766 303.967 191.844C303.957 191.865 303.948 191.885 303.939 191.906C303.933 191.918 303.927 191.931 303.921 191.944C303.899 191.99 303.877 192.037 303.857 192.083C303.822 192.165 303.788 192.248 303.756 192.33C303.723 192.417 303.692 192.504 303.663 192.591C303.662 192.593 303.662 192.594 303.661 192.596C303.661 192.596 303.66 192.601 303.659 192.604C303.629 192.693 303.602 192.783 303.577 192.872C303.548 192.977 303.522 193.082 303.5 193.187C303.495 193.207 303.494 193.226 303.489 193.246C303.484 193.275 303.48 193.303 303.475 193.331C303.46 193.411 303.444 193.491 303.434 193.57C303.423 193.652 303.423 193.731 303.418 193.811C303.413 193.872 303.407 193.933 303.405 193.993C303.4 194.188 303.406 194.379 303.433 194.56C303.925 197.955 304.088 201.609 303.91 205.444C303.867 206.396 303.802 207.359 303.716 208.332C303.688 208.648 303.643 208.972 303.611 209.29C303.543 209.951 303.479 210.61 303.392 211.279C303.305 211.948 303.194 212.626 303.088 213.303C303.034 213.639 302.993 213.971 302.935 214.31C302.761 215.328 302.565 216.353 302.347 217.383C302.332 217.455 302.315 217.527 302.299 217.599C302.149 218.289 301.99 218.982 301.823 219.676C301.787 219.826 301.752 219.976 301.715 220.126C301.538 220.848 301.351 221.572 301.151 222.297C301.033 222.725 300.914 223.153 300.787 223.581C300.477 224.621 300.149 225.667 299.798 226.716L310.952 233.198C310.963 233.164 310.974 233.13 310.986 233.096Z" fill="url(#paint19_linear_32_2866)"/>
<path d="M364.943 335.904C366.321 335.108 367.568 335.334 368.11 336.481L383.193 368.37L396.014 368.469C397.707 368.485 398.384 370.473 397.531 372.911C396.928 374.628 395.723 376.117 394.474 376.838C393.945 377.143 393.417 377.306 392.915 377.304L378.981 377.193C378.258 377.187 377.687 376.819 377.372 376.145L362.687 345.114L348.045 353.568C349.425 350.244 350.69 346.871 351.826 343.477L364.943 335.904Z" fill="url(#paint20_linear_32_2866)"/>
<path d="M375.08 271.819C376.458 271.023 377.71 271.247 378.251 272.393L393.334 304.283L406.155 304.381C407.848 304.392 408.526 306.385 407.668 308.826C407.065 310.543 405.864 312.029 404.611 312.753C404.087 313.055 403.554 313.221 403.052 313.219L389.117 313.108C388.4 313.099 387.828 312.732 387.509 312.06L372.829 281.027L357.539 289.854C357.123 287.404 356.596 285.07 355.964 282.855L375.08 271.819Z" fill="url(#paint21_linear_32_2866)"/>
<path d="M248.79 402.964C249.941 405.038 251.216 406.945 252.611 408.667L237.969 417.12L223.512 464.975C223.198 466.013 222.63 467.039 221.915 467.875L208.026 484.05C207.526 484.629 206.994 485.079 206.47 485.381C205.216 486.105 204.011 486.009 203.401 484.992C202.532 483.548 203.2 480.783 204.888 478.815L217.662 463.939L232.515 414.766C233.053 412.996 234.295 411.333 235.673 410.538L248.79 402.964Z" fill="url(#paint22_linear_32_2866)"/>
<path d="M347.734 277.87C351.619 285.284 353.836 294.978 353.869 306.583C353.979 345.125 329.996 390.376 300.405 407.461C270.813 424.546 246.648 407.092 246.539 368.55C246.506 356.945 248.662 344.727 252.497 332.855L347.734 277.87Z" fill="url(#paint23_linear_32_2866)"/>
<path d="M369.169 184.395C369.543 184.178 369.925 184.029 370.299 183.963C372.093 183.647 373.05 185.346 372.431 187.765L360.688 233.758C360.474 234.595 360.085 235.448 359.572 236.21L342.627 261.334C341.133 260.155 339.552 259.133 337.894 258.273L354.523 233.622L365.934 188.921C366.423 187.003 367.748 185.215 369.169 184.395Z" fill="url(#paint24_linear_32_2866)"/>
<path d="M300.008 267.67C318.936 256.743 335.644 259.947 345.256 273.766L254.943 325.908C264.446 301.053 281.077 278.6 300.008 267.67Z" fill="url(#paint25_linear_32_2866)"/>
<path d="M230.601 264.397C232.023 263.576 233.354 263.83 233.853 265.178L245.48 296.578L262.19 301.98C260.546 304.748 258.976 307.589 257.494 310.485L240.462 304.978C239.941 304.814 239.549 304.411 239.331 303.823L227.371 271.516C226.74 269.818 227.68 267.024 229.469 265.272C229.844 264.905 230.226 264.614 230.601 264.397Z" fill="url(#paint26_linear_32_2866)"/>
<path d="M299.936 242.085C310.885 235.763 319.824 240.858 319.86 253.444C319.862 254.009 319.84 254.587 319.805 255.168C313.61 255.858 306.937 258.135 299.993 262.145C293.044 266.157 286.384 271.577 280.206 278.031C280.167 277.492 280.138 276.943 280.137 276.379C280.101 263.792 288.982 248.409 299.936 242.085Z" fill="url(#paint27_linear_32_2866)"/>
<path d="M317.299 195.839C318.632 195.07 319.809 195.514 320.017 196.96L320.027 197.05C320.461 200.954 320.51 205.097 320.191 209.415C319.867 213.73 319.167 218.226 318.089 222.802C317.535 225.094 316.916 227.397 316.172 229.718C315.744 231.05 315.287 232.386 314.799 233.72C313.597 233.367 312.309 233.197 310.952 233.198C311.303 232.149 311.631 231.103 311.941 230.063C312.556 227.985 313.061 225.911 313.501 223.865C314.368 219.765 314.891 215.752 315.064 211.926C315.242 208.091 315.079 204.437 314.587 201.042C314.352 199.449 315.381 197.243 316.882 196.117C317.022 196.011 317.162 195.919 317.299 195.839Z" fill="url(#paint28_linear_32_2866)"/>
<path d="M282.369 216.006C282.474 215.945 282.581 215.891 282.689 215.843C284.195 215.174 285.284 216.115 285.114 217.952L285.101 218.066C284.624 222.02 284.488 225.847 284.682 229.467C284.881 233.079 285.424 236.476 286.307 239.566C286.762 241.095 287.273 242.582 287.902 243.942C288.217 244.622 288.55 245.286 288.902 245.929C287.549 247.492 286.265 249.147 285.07 250.884C284.58 250.115 284.113 249.312 283.678 248.479C282.924 247.022 282.294 245.44 281.733 243.793C280.628 240.476 279.905 236.803 279.558 232.874C279.216 228.938 279.245 224.75 279.651 220.377C279.809 218.671 280.994 216.8 282.369 216.006Z" fill="url(#paint29_linear_32_2866)"/>
<path d="M244.322 347.312C243.704 350.248 243.193 353.181 242.792 356.104L227.497 364.934L213.041 412.789C212.726 413.827 212.163 414.85 211.444 415.688L197.555 431.863C197.055 432.442 196.523 432.893 195.999 433.195C194.75 433.916 193.54 433.822 192.93 432.805C192.061 431.361 192.729 428.592 194.416 426.629L207.191 411.752L222.049 362.577C222.582 360.81 223.824 359.146 225.202 358.351L244.322 347.312Z" fill="url(#paint30_linear_32_2866)"/>
<path d="M297.448 306.902V409.06C298.427 408.565 299.413 408.034 300.405 407.461C301.262 406.967 302.113 406.446 302.96 405.904V303.72L297.448 306.902Z" fill="url(#paint31_linear_32_2866)"/>
<path d="M302.96 266.079C301.982 266.574 300.999 267.098 300.009 267.67C299.15 268.166 298.297 268.694 297.448 269.236V301.367L302.96 298.185V266.079Z" fill="url(#paint32_linear_32_2866)"/>
<defs>
<linearGradient id="paint0_linear_32_2866" x1="0" y1="296.581" x2="471.198" y2="296.581" gradientUnits="userSpaceOnUse">
<stop stop-color="#727094"/>
<stop offset="0.2377" stop-color="#9D9ACB"/>
<stop offset="0.7902" stop-color="#9D9ACB"/>
<stop offset="1" stop-color="#727094"/>
</linearGradient>
<linearGradient id="paint1_linear_32_2866" x1="256.589" y1="56.3239" x2="504.444" y2="56.3239" gradientUnits="userSpaceOnUse">
<stop stop-color="#566AA6"/>
<stop offset="1" stop-color="#9AA8CB"/>
</linearGradient>
<linearGradient id="paint2_linear_32_2866" x1="299.699" y1="56.9653" x2="488.573" y2="56.9653" gradientUnits="userSpaceOnUse">
<stop stop-color="#5F75B8"/>
<stop offset="1" stop-color="#A8B7DE"/>
</linearGradient>
<linearGradient id="paint3_linear_32_2866" x1="35.2527" y1="429.063" x2="175.172" y2="429.063" gradientUnits="userSpaceOnUse">
<stop stop-color="#566AA6"/>
<stop offset="1" stop-color="#9AA8CB"/>
</linearGradient>
<linearGradient id="paint4_linear_32_2866" x1="43.3472" y1="416.21" x2="122.844" y2="416.21" gradientUnits="userSpaceOnUse">
<stop stop-color="#5F75B8"/>
<stop offset="1" stop-color="#A8B7DE"/>
</linearGradient>
<linearGradient id="paint5_linear_32_2866" x1="74.3611" y1="324.063" x2="504.449" y2="324.063" gradientUnits="userSpaceOnUse">
<stop stop-color="#6E84C1"/>
<stop offset="1" stop-color="#BCC9E7"/>
</linearGradient>
<linearGradient id="paint6_linear_32_2866" x1="82.3517" y1="327.016" x2="496.432" y2="327.016" gradientUnits="userSpaceOnUse">
<stop stop-color="#5F75B8"/>
<stop offset="1" stop-color="#A8B7DE"/>
</linearGradient>
<linearGradient id="paint7_linear_32_2866" x1="105.02" y1="334.343" x2="472.936" y2="334.343" gradientUnits="userSpaceOnUse">
<stop stop-color="white"/>
<stop offset="0.5402" stop-color="#DDDDDF"/>
<stop offset="0.8356" stop-color="#C9C9CD"/>
<stop offset="1" stop-color="#CFD3E2"/>
</linearGradient>
<linearGradient id="paint8_linear_32_2866" x1="166.764" y1="334.343" x2="472.936" y2="334.343" gradientUnits="userSpaceOnUse">
<stop stop-color="white"/>
<stop offset="0.3609" stop-color="#DDDDDE"/>
<stop offset="0.8356" stop-color="#ABABAF"/>
<stop offset="1" stop-color="#B6BAC7"/>
</linearGradient>
<linearGradient id="paint9_linear_32_2866" x1="35.2527" y1="172.561" x2="289.161" y2="172.561" gradientUnits="userSpaceOnUse">
<stop stop-color="#566AA6"/>
<stop offset="1" stop-color="#9AA8CB"/>
</linearGradient>
<linearGradient id="paint10_linear_32_2866" x1="51.1782" y1="173.487" x2="278.475" y2="173.487" gradientUnits="userSpaceOnUse">
<stop stop-color="#5F75B8"/>
<stop offset="1" stop-color="#A8B7DE"/>
</linearGradient>
<linearGradient id="paint11_linear_32_2866" x1="176.566" y1="331.648" x2="412.86" y2="331.648" gradientUnits="userSpaceOnUse">
<stop stop-color="white"/>
<stop offset="0.3609" stop-color="#DDDDDE"/>
<stop offset="0.8356" stop-color="#ABABAF"/>
<stop offset="1" stop-color="#B6BAC7"/>
</linearGradient>
<linearGradient id="paint12_linear_32_2866" x1="372.038" y1="365.293" x2="396.897" y2="365.293" gradientUnits="userSpaceOnUse">
<stop stop-color="#50649C"/>
<stop offset="1" stop-color="#929FC0"/>
</linearGradient>
<linearGradient id="paint13_linear_32_2866" x1="336.891" y1="352.957" x2="378.092" y2="352.957" gradientUnits="userSpaceOnUse">
<stop stop-color="#50649C"/>
<stop offset="1" stop-color="#929FC0"/>
</linearGradient>
<linearGradient id="paint14_linear_32_2866" x1="382.18" y1="301.205" x2="407.04" y2="301.205" gradientUnits="userSpaceOnUse">
<stop stop-color="#50649C"/>
<stop offset="1" stop-color="#929FC0"/>
</linearGradient>
<linearGradient id="paint15_linear_32_2866" x1="191.875" y1="441.052" x2="248.79" y2="441.052" gradientUnits="userSpaceOnUse">
<stop stop-color="#50649C"/>
<stop offset="1" stop-color="#929FC0"/>
</linearGradient>
<linearGradient id="paint16_linear_32_2866" x1="181.404" y1="321.29" x2="388.233" y2="321.29" gradientUnits="userSpaceOnUse">
<stop stop-color="#50649C"/>
<stop offset="1" stop-color="#929FC0"/>
</linearGradient>
<linearGradient id="paint17_linear_32_2866" x1="326.74" y1="219.389" x2="371.614" y2="219.389" gradientUnits="userSpaceOnUse">
<stop stop-color="#50649C"/>
<stop offset="1" stop-color="#929FC0"/>
</linearGradient>
<linearGradient id="paint18_linear_32_2866" x1="216.024" y1="281.14" x2="240.134" y2="281.14" gradientUnits="userSpaceOnUse">
<stop stop-color="#50649C"/>
<stop offset="1" stop-color="#929FC0"/>
</linearGradient>
<linearGradient id="paint19_linear_32_2866" x1="299.798" y1="211.091" x2="319.25" y2="211.091" gradientUnits="userSpaceOnUse">
<stop stop-color="#50649C"/>
<stop offset="1" stop-color="#929FC0"/>
</linearGradient>
<linearGradient id="paint20_linear_32_2866" x1="348.045" y1="356.369" x2="397.9" y2="356.369" gradientUnits="userSpaceOnUse">
<stop stop-color="#5F75B8"/>
<stop offset="1" stop-color="#A8B7DE"/>
</linearGradient>
<linearGradient id="paint21_linear_32_2866" x1="355.964" y1="292.283" x2="408.04" y2="292.283" gradientUnits="userSpaceOnUse">
<stop stop-color="#5F75B8"/>
<stop offset="1" stop-color="#A8B7DE"/>
</linearGradient>
<linearGradient id="paint22_linear_32_2866" x1="203.02" y1="444.408" x2="252.611" y2="444.408" gradientUnits="userSpaceOnUse">
<stop stop-color="#5F75B8"/>
<stop offset="1" stop-color="#A8B7DE"/>
</linearGradient>
<linearGradient id="paint23_linear_32_2866" x1="246.539" y1="345.944" x2="353.87" y2="345.944" gradientUnits="userSpaceOnUse">
<stop stop-color="#EF3F6C"/>
<stop offset="1" stop-color="#9C2947"/>
</linearGradient>
<linearGradient id="paint24_linear_32_2866" x1="337.894" y1="222.629" x2="372.619" y2="222.629" gradientUnits="userSpaceOnUse">
<stop stop-color="#5F75B8"/>
<stop offset="1" stop-color="#A8B7DE"/>
</linearGradient>
<linearGradient id="paint25_linear_32_2866" x1="254.943" y1="293.511" x2="345.256" y2="293.511" gradientUnits="userSpaceOnUse">
<stop stop-color="#EF3F6C"/>
<stop offset="1" stop-color="#9C2947"/>
</linearGradient>
<linearGradient id="paint26_linear_32_2866" x1="227.175" y1="287.206" x2="262.19" y2="287.206" gradientUnits="userSpaceOnUse">
<stop stop-color="#5F75B8"/>
<stop offset="1" stop-color="#A8B7DE"/>
</linearGradient>
<linearGradient id="paint27_linear_32_2866" x1="280.136" y1="258.7" x2="319.86" y2="258.7" gradientUnits="userSpaceOnUse">
<stop stop-color="#EF3F6C"/>
<stop offset="1" stop-color="#9C2947"/>
</linearGradient>
<linearGradient id="paint28_linear_32_2866" x1="310.952" y1="214.593" x2="320.397" y2="214.593" gradientUnits="userSpaceOnUse">
<stop stop-color="#EF3F6C"/>
<stop offset="1" stop-color="#9C2947"/>
</linearGradient>
<linearGradient id="paint29_linear_32_2866" x1="279.322" y1="233.256" x2="288.902" y2="233.256" gradientUnits="userSpaceOnUse">
<stop stop-color="#EF3F6C"/>
<stop offset="1" stop-color="#9C2947"/>
</linearGradient>
<linearGradient id="paint30_linear_32_2866" x1="192.549" y1="390.488" x2="244.322" y2="390.488" gradientUnits="userSpaceOnUse">
<stop stop-color="#5F75B8"/>
<stop offset="1" stop-color="#A8B7DE"/>
</linearGradient>
<linearGradient id="paint31_linear_32_2866" x1="297.448" y1="356.39" x2="302.96" y2="356.39" gradientUnits="userSpaceOnUse">
<stop stop-color="#EF3F6C"/>
<stop offset="1" stop-color="#9C2947"/>
</linearGradient>
<linearGradient id="paint32_linear_32_2866" x1="297.448" y1="283.723" x2="302.96" y2="283.723" gradientUnits="userSpaceOnUse">
<stop stop-color="#EF3F6C"/>
<stop offset="1" stop-color="#9C2947"/>
</linearGradient>
</defs>
</svg>
